<svg xmlns="http://www.w3.org/2000/svg" width="250.087" height="62.345" viewBox="0 0 250.087 62.345"><defs><style>.a{fill:#54575c;}.b{fill:#386884;}.c{fill:#3a6882;}.d{fill:#3b6982;}.e{fill:#376781;}.f{fill:#3a6880;}.g{fill:#386882;}.h{fill:#386880;}.i{fill:#595b5e;}.j{fill:#5b5c60;}.k{fill:#59595e;}.l{fill:#585b5f;}.m{fill:#5c5e62;}.n{fill:#57595e;}.o{fill:#575b5e;}.p{fill:#5a5b60;}.q{fill:#56595c;}.r{fill:#3d6a80;}.s{fill:#4c6d79;}.t{fill:#456777;}.u{fill:#426576;}.v{fill:#486673;}.w{fill:#2e6d77;}</style></defs><g transform="translate(0 0)"><path class="a" d="M158.267,449.247c.074,3.015.024,6.034.034,9.051.01,3.087,0,6.173,0,9.261v9.3c1.888.109,3.706.071,5.7,0v-8.619c0-1.406.084-1.492,1.419-1.493h11.576c1.662,0,1.665,0,1.665,1.627v23.59H183.1a5.983,5.983,0,0,1-.54.853c-1.331,1.341-2.631,2.707-4.009,3.992a7.871,7.871,0,0,1-11.011-.232q-7.256-7.2-14.466-14.449c-2.7-2.7-5.323-5.471-8.107-8.076a8.255,8.255,0,0,1,.047-12.18c4.049-3.827,7.9-7.855,11.848-11.791.343-.343.72-.651,1.082-.974Z" transform="translate(-142.304 -436.982)"/><path class="b" d="M225.541,443.5h.488c.013.489.191.739.716.5a1.817,1.817,0,0,0,1.1-1.961c-.047-.609-.03-1.223-.084-1.831-.007-.086-.262-.148-.4-.223a5.2,5.2,0,0,0-.069-1.091,2.875,2.875,0,0,0-.475-.739c-.281-.62-.62-.954-1.331-.467a1.992,1.992,0,0,1-1.066.232q-12.7.019-25.4,0a8.911,8.911,0,0,1-.946-.1,15.5,15.5,0,0,1-.174-5.665.728.728,0,0,0-.628-.933l.009-.507a2.79,2.79,0,0,1,1.865-.532c4.238.032,8.477.022,12.716,0a7.384,7.384,0,0,0,1.315-.241,13.71,13.71,0,0,0,.232-1.619c.035-1.23.01-2.462.01-3.9H192.879a7.736,7.736,0,0,1,.64-.946c2.387-2.4,4.8-4.783,7.171-7.2a7.844,7.844,0,0,1,5.5-2.434,7.365,7.365,0,0,1,5.5,2.082q3.72,3.645,7.393,7.336,4.551,4.541,9.088,9.1c2.332,2.335,4.707,4.628,6.985,7.013a7.865,7.865,0,0,1-.1,11.013q-7.836,7.9-15.736,15.733a1.006,1.006,0,0,1-.217.129c-.914-.232-.791-.974-.791-1.64V446.1c0-.624-.074-1.246-.123-2.015h1.47c1.757,0,3.512,0,5.268.018C225.385,444.123,225.541,443.912,225.541,443.5Z" transform="translate(-175.533 -413.836)"/><path class="c" d="M364.441,459.413c.037.939.108,1.876.1,2.81,0,.985-.106,1.072-1.141,1.075-3.9.009-7.8,0-11.7,0-.547,0-1.094.046-1.757.075-.034.546-.083,1-.086,1.456-.012,2.661-.009,5.314-.016,7.973,0,1.436-.092,1.521-1.53,1.53q-1.286.007-2.571,0c-1.414,0-1.468-.058-1.479-1.422V446.55c0-1.536.038-1.566,1.6-1.566h18c1.409,0,1.479.068,1.479,1.421,0,.943-.027,1.887.01,2.829.03.726-.321,1.016-.989,1.035H351.506c-.5,0-1.007.046-1.582.074-.038.463-.1.837-.1,1.211,0,1.971.03,3.944,0,5.915,0,.628.169.982.843.952.114.763.717.461,1.115.464,3.2.024,6.4.012,9.611.015a4.78,4.78,0,0,1,3.045.513Z" transform="translate(-274.958 -434.285)"/><path class="d" d="M785.683,474.384c-.481-.281-.674-.371-.841-.5-1.922-1.43-4.14-1.252-6.3-1.035a2.8,2.8,0,0,0-1.66,1.051,1.627,1.627,0,0,0,.773,2.46,9.241,9.241,0,0,0,2.218.558c1.634.3,3.314.407,4.907.84a5.629,5.629,0,0,1,4.477,5.027,6.272,6.272,0,0,1-3.563,6.432,9.189,9.189,0,0,1-4.312,1.079,18.141,18.141,0,0,1-5.471-.5,10.942,10.942,0,0,1-4.937-3.149l2.391-3.379a12.632,12.632,0,0,0,5.2,2.458,6.236,6.236,0,0,0,4.494-.383,2.07,2.07,0,0,0,1.171-2.109,1.723,1.723,0,0,0-1.511-1.541,23.142,23.142,0,0,0-2.778-.432,13.8,13.8,0,0,1-5.5-1.551,5.619,5.619,0,0,1-.08-9.679,12.273,12.273,0,0,1,7.661-1.513,10.521,10.521,0,0,1,5.258,1.857c.859.625.9.812.265,1.626-.4.506-.843.97-1.247,1.47C786.086,473.744,785.911,474.047,785.683,474.384Z" transform="translate(-555.206 -449.679)"/><path class="d" d="M488.818,483.269a12.777,12.777,0,0,0,5.19,2.455,6.849,6.849,0,0,0,3.92-.114,3.377,3.377,0,0,0,1.26-.838,1.774,1.774,0,0,0-.772-2.991,9.893,9.893,0,0,0-2.619-.5,14.581,14.581,0,0,1-4.973-1.1,5.886,5.886,0,0,1-3.2-2.838,5.743,5.743,0,0,1,1.627-6.936,10.448,10.448,0,0,1,5.243-1.893,12.1,12.1,0,0,1,7.775,1.566c.46.281.864.654,1.422,1.084l-2.542,3a1.71,1.71,0,0,1-.444-.035,8.611,8.611,0,0,0-6.37-1.363c-1.391.087-2.218.8-2.264,1.825a1.7,1.7,0,0,0,1.369,1.922c1.23.318,2.526.38,3.776.627a26.255,26.255,0,0,1,3.844.924c4.466,1.609,4.779,7.639,1.38,10.31a8.7,8.7,0,0,1-5.339,1.91,14.514,14.514,0,0,1-6.8-.887,27.064,27.064,0,0,1-3.138-1.971.943.943,0,0,1-.247-1.53C487.555,485.044,488.159,484.179,488.818,483.269Z" transform="translate(-368.46 -449.672)"/><path class="e" d="M612.634,446.992v.512c-.157.158-.414.3-.444.481a6.811,6.811,0,0,0-.027,1.147c-.027,1.307-1.035,2-2.137,1.316a2.687,2.687,0,0,0-1.536-.361c-.98-.018-1.964.047-2.939-.021a1.961,1.961,0,0,0-1.872.759,8.6,8.6,0,0,0-.25,1.458q-.025,10.6-.012,21.2c0,.3-.015.6,0,.9.034.655-.28.936-.923.93-1.2-.012-2.4-.007-3.6,0-.651,0-.932-.318-.887-.96.018-.3,0-.6,0-.9v-22.6h-2.423c-1.922,0-3.853.012-5.78-.01-.951-.012-1.056-.112-1.065-1.028-.01-1.11.041-2.218.067-3.331a3.525,3.525,0,0,0,.973.242c.525-.019,1.047-.234,1.569-.235,6.432-.018,12.864,0,19.295-.024a3.183,3.183,0,0,1,1.987.525Z" transform="translate(-435.515 -435.249)"/><path class="c" d="M709.531,483.589c1.838,3.008,4.982,3.816,7.614,1.884a5.149,5.149,0,0,0,2.208-4.288c.015-3.17,0-6.342.009-9.512,0-1.5.112-1.6,1.594-1.627.729-.01,1.458-.028,2.185,0,1.17.041,1.331.207,1.341,1.363.01,2.784,0,5.57,0,8.356v9.641c0,1.3-.073,1.363-1.394,1.375-.686,0-1.372.016-2.057,0-1.017-.025-1.069-.095-1.183-1.078-.059-.5-.17-.989-.3-1.677-.463.37-.79.624-1.107.887-4.557,3.8-12.1,2.639-13.917-4.392a11.866,11.866,0,0,1-.393-2.774c-.049-3.513-.027-7.026-.024-10.541,0-.3.052-.591.086-.951a11.893,11.893,0,0,1,4.334-.053,5.476,5.476,0,0,1,.129.874c-.034,3.139-.086,6.28-.126,9.421-.012.985,0,1.971,0,3Zm14.578-10.229c-.829-.117-.64.458-.64.828q-.016,7.393,0,14.786a4.153,4.153,0,0,0,.118.7c.831.117.639-.458.64-.828q.016-7.393,0-14.786a4.152,4.152,0,0,0-.12-.711Z" transform="translate(-511.288 -450.722)"/><path class="d" d="M545.162,463.589h-2.756c-.461,0-.887-.1-.9-.674-.019-1.146,0-2.292,0-3.574h3.636c.01-1.183.028-2.227.03-3.274,0-2.336.053-2.379,2.46-2.471.8-.031,1.6-.124,2.617-.206v5.872c1.61,0,3.012-.009,4.414,0,1.183.01,1.246.078,1.269,1.221.013.685.019,1.372,0,2.057-.033.912-.136,1.035-1.057,1.05-1.331.028-2.661.01-3.983.019a5.912,5.912,0,0,0-.625.077v3.456c0,1.714-.015,3.427,0,5.141.028,2.561,1.424,3.609,3.946,2.987,1.183-.3,1.307-.226,1.668.9.235.73.444,1.47.705,2.193a.722.722,0,0,1-.552,1.071,10.018,10.018,0,0,1-7.022-.053,5.96,5.96,0,0,1-3.611-5.359c-.2-2.9-.166-5.814-.229-8.724C545.153,464.79,545.162,464.283,545.162,463.589Z" transform="translate(-404.494 -439.796)"/><path class="c" d="M830.179,453.915c1.4-.173,2.745-.356,4.092-.494.566-.058.726.342.727.828v5.027h3.655c.429,0,.858,0,1.285.015a.668.668,0,0,1,.739.705v3.566h-5.529a3.223,3.223,0,0,0-.139.591c-.009,2.829-.037,5.657,0,8.484a2.647,2.647,0,0,0,3.253,2.835c.167-.024.327-.1.492-.132.414-.084.828-.16,1.425-.273l1.331,4.009a9.291,9.291,0,0,1-5.2.914,6.269,6.269,0,0,1-6.219-6.636c-.069-2.654-.025-5.311-.045-7.966,0-.547-.062-1.094-.1-1.786-.985,0-1.875-.03-2.764.009a.887.887,0,0,1-1.05-.985c-.024-.813-.01-1.627,0-2.441a.809.809,0,0,1,.955-.915c.895.027,1.792,0,2.771,0C830.3,457.542,829.859,455.815,830.179,453.915Z" transform="translate(-591.424 -439.814)"/><path class="f" d="M657.045,471.276a6.664,6.664,0,0,1,5.872-2.8,6.811,6.811,0,0,1,5.049,2.169L665.88,474.6a17.759,17.759,0,0,0-2.409-.871c-3.717-.75-6.542,1.1-6.553,5.061-.01,3.127,0,6.256,0,9.383,0,.5-.068.991-.112,1.587h-4.22a.729.729,0,0,1-.8-.8c0-.257-.016-.514-.016-.77V470.578c0-1.394.126-1.514,1.547-1.541.642-.012,1.286,0,1.922.021,1.151.043,1.149.053,1.439,1.165C656.76,470.507,656.877,470.783,657.045,471.276Z" transform="translate(-476.916 -449.708)"/><path class="g" d="M438.868,471.718V470.17c.342-.662.963-.475,1.519-.513.407-.03.979.214,1.019-.534h1.961l.559,1.814a17.271,17.271,0,0,1,3.092-2,7.828,7.828,0,0,1,7,.779c.9.534.954.726.507,1.647-.52,1.07-1.088,2.117-1.695,3.29-.435-.216-.762-.381-1.091-.541a6.22,6.22,0,0,0-5.332-.035,4.965,4.965,0,0,0-2.165,2.279c-.844.208-.773.887-.773,1.52v9.633a2.914,2.914,0,0,1-.126,1.127,1.035,1.035,0,0,1-.714.562c-1.149.043-2.381.3-3.275-.841V472.6C439.334,472.227,439.467,471.776,438.868,471.718Z" transform="translate(-337.087 -449.682)"/><path class="h" d="M413.247,480.13v-8.872c0-1.461.033-1.49,1.535-1.5.815,0,1.626.01,2.443,0,.639-.01.96.272.946.921,0,.3.012.6.012.9v17.359c0,.3-.009.6-.016.9-.012.531-.3.767-.816.765-1.035,0-2.058.024-3.086,0-.9-.024-1.008-.13-1.016-1.081-.016-2.1,0-4.2,0-6.3Q413.247,481.673,413.247,480.13Z" transform="translate(-320.26 -450.547)"/><g transform="translate(69.136 45.31)"><path class="i" d="M358.655,548.85a8.95,8.95,0,0,1-.939.138c-1.014.024-1.229-.126-1.4-1.09-.285-1.641-.529-3.29-.807-4.934-.084-.5-.225-.98-.395-1.709a6,6,0,0,0-.5.862c-.649,1.9-1.276,3.809-1.922,5.711-.194.572-.393,1.125-1.168,1.176-1,.066-1.363-.148-1.7-1.139-.591-1.74-1.173-3.484-1.774-5.223a3.171,3.171,0,0,0-.739-1.286l-.8,4.383c-.148.84-.278,1.687-.485,2.514-.174.694-.739.9-1.644.729-.76-.148-.628-.624-.532-1.171.63-3.575,1.254-7.151,1.838-10.733.1-.624.226-1.054.958-1.1.98-.067,1.548.135,1.8.838.423,1.162.788,2.347,1.183,3.519.5,1.495,1.007,2.988,1.615,4.788l2.12-6.261c.234-.689.43-1.391.707-2.063.3-.724.819-.9,1.813-.79.705.075.856.473.958,1.11.54,3.33,1.149,6.654,1.711,9.975a16.342,16.342,0,0,1,.1,1.76Z" transform="translate(-343.772 -535.628)"/><path class="j" d="M553.031,546.494c.089-.717.528-.979,1.214-.969.921.015,1.155.169,1.161,1.107.018,2.526.03,5.053-.03,7.578a6.642,6.642,0,0,1-.443,2.243,3.67,3.67,0,0,1-3.232,2.383,15.5,15.5,0,0,1-2.565,0,3.735,3.735,0,0,1-3.3-2.634,3.951,3.951,0,0,1,2.71.086,6,6,0,0,0,2.349.443c1.443-.067,1.922-.652,2.107-2.3a9.9,9.9,0,0,1-2.611.739,5.057,5.057,0,0,1-2.642-.739,5.274,5.274,0,0,1-1.774-2.1,5.125,5.125,0,0,1,1.1-5.784C548.66,545.086,550.242,545.069,553.031,546.494Zm.148,3.793a2.6,2.6,0,0,0-2.738-2.713,2.734,2.734,0,0,0-2.662,2.734,2.826,2.826,0,0,0,2.744,2.81,2.605,2.605,0,0,0,2.647-2.828Z" transform="translate(-476.268 -541.857)"/><path class="i" d="M477.338,546.428c.148-.846.75-.875,1.369-.858.859.024,1.084.2,1.09,1.05.019,2.662.083,5.323-.019,7.971a4.13,4.13,0,0,1-4.545,4.309,9.845,9.845,0,0,1-2.051-.071,4.155,4.155,0,0,1-3.1-2.573,3.458,3.458,0,0,1,2.747.073,4.035,4.035,0,0,0,3.231.3c1.054-.349,1.391-.955,1.257-2.308a4.683,4.683,0,0,1-4.4.614,4.949,4.949,0,0,1-2.295-1.968,5.234,5.234,0,0,1,.56-6.086C472.72,545.206,474.467,545.045,477.338,546.428Zm-5,3.93a2.6,2.6,0,1,0,5.192.009A2.545,2.545,0,0,0,475,547.6a2.5,2.5,0,0,0-2.657,2.758Z" transform="translate(-426.611 -541.892)"/><path class="k" d="M645.722,541.943c.226.172.356.284.5.377a3.419,3.419,0,0,1,1.406,4.071,3.565,3.565,0,0,1-3.318,2.629c-1.232.123-2.486.039-3.729.046-.8,0-.847-.534-.846-1.14.007-2.746,0-5.49,0-8.236v-3.41a5.546,5.546,0,0,1,1.064-.2,24.994,24.994,0,0,1,3.207.167,3.115,3.115,0,0,1,2.239,4.927C646.094,541.375,645.961,541.591,645.722,541.943Zm-3.59,4.869c.739-.069,1.394-.108,2.049-.2a1.27,1.27,0,0,0,1.238-1.362,1.53,1.53,0,0,0-1.218-1.711,15.069,15.069,0,0,0-2.07-.192Zm-.015-8.428c-.022.458-.05.874-.059,1.289-.01.455,0,.912,0,1.451.937-.037,1.763.22,2.314-.664a1.183,1.183,0,0,0-.022-1.427,2.042,2.042,0,0,0-2.231-.651Z" transform="translate(-538.148 -535.71)"/><path class="l" d="M678.619,546.463c.43-1.312,1.393-.905,2.366-.877.041.507.108.964.111,1.422.01,2.231.018,4.463-.009,6.692,0,.515.217,1.167-.489,1.451a1.755,1.755,0,0,1-2.015-.7c-.216.109-.444.208-.661.34-3.116,1.932-6.382-.843-6.67-3.719a5.255,5.255,0,0,1,1.331-4.273,4.352,4.352,0,0,1,6.037-.339Zm-2.438,6.712c1.459.219,2.709-.952,2.733-2.839a2.636,2.636,0,0,0-2.685-2.818,2.7,2.7,0,0,0-2.679,2.839,2.584,2.584,0,0,0,2.63,2.82Z" transform="translate(-558.828 -541.844)"/><path class="m" d="M749.7,543.405l4.084,4.572a2.373,2.373,0,0,1-3.09-.3c-.705-.747-1.366-1.536-2.07-2.29-.334-.359-.714-.677-1.072-1.013l-.315.1c0,.87.018,1.74,0,2.608-.031,1.156-.226,1.323-1.389,1.279-.945-.037-1.1-.173-1.108-1.153-.016-2.014,0-4.028,0-6.042v-4.628c0-1.443.077-1.532,1.21-1.536,1.193,0,1.3.121,1.3,1.615,0,1.457-.012,2.914-.018,4.371v1.662a36.334,36.334,0,0,0,2.545-2.771,3.033,3.033,0,0,1,3.6-1.035C752.36,540.594,750.749,541.73,749.7,543.405Z" transform="translate(-607.105 -535.011)"/><path class="i" d="M514.967,554.446c-.189.089-.384.174-.575.269a4.395,4.395,0,0,1-6.506-2.746,5.124,5.124,0,0,1,2.83-6.376,4.8,4.8,0,0,1,4.307.775,1.125,1.125,0,0,1,1.286-.895c.958.007,1.137.127,1.145,1.09q.027,3.534,0,7.069c0,.522.217,1.158-.482,1.458A1.813,1.813,0,0,1,514.967,554.446Zm-2.378-1.319a2.514,2.514,0,0,0,2.737-2.69,2.7,2.7,0,0,0-2.687-2.957,2.635,2.635,0,0,0-2.648,2.827,2.552,2.552,0,0,0,2.6,2.821Z" transform="translate(-451.383 -541.8)"/><path class="i" d="M585.6,550.976a2.662,2.662,0,0,0,4.12,1.9c1.066-.591,1.739-.282,2.65.515a8.446,8.446,0,0,1-1.331,1.19,5.1,5.1,0,0,1-7.368-2.24,5.011,5.011,0,1,1,9.262-3.809,3,3,0,0,1,.176.739c.167,1.57.049,1.7-1.508,1.7C589.631,550.979,587.663,550.976,585.6,550.976Zm5.273-1.922a2.77,2.77,0,0,0-3.507-1.665,1.7,1.7,0,0,0-1.43,1.665Z" transform="translate(-501.037 -541.707)"/><path class="n" d="M799.324,543.579v3.952c0,1.451-.095,1.536-1.507,1.5-.21,0-.418-.034-.755-.062a13.881,13.881,0,0,1-.164-1.492q-.027-5.069-.015-10.136c0-1.168.148-1.318,1.356-1.306,1.152.012,2.305.095,3.456.163a2.023,2.023,0,0,1,.606.166,3.605,3.605,0,0,1,2.15,4.309,3.549,3.549,0,0,1-3.178,2.725C800.652,543.461,800.025,543.514,799.324,543.579Zm.041-2.449c.951-.21,2.008.418,2.616-.6a1.649,1.649,0,0,0-.044-1.511,2.423,2.423,0,0,0-2.573-.571Z" transform="translate(-641.356 -535.68)"/><path class="l" d="M399.5,545.412a5,5,0,1,1-5.027,5.014,5.005,5.005,0,0,1,5.027-5.014Zm-.078,7.742c1.81.055,2.647-1.142,2.713-2.876a2.662,2.662,0,0,0-5.323.072,2.492,2.492,0,0,0,2.608,2.8Z" transform="translate(-377.058 -541.823)"/><path class="o" d="M712.433,555.206c-.379.032-.63.075-.887.072-1.124-.01-1.255-.121-1.264-1.249-.019-2.4-.012-4.8-.012-7.192,0-.52-.028-1.035.671-1.2a1.288,1.288,0,0,1,1.686.685,16.473,16.473,0,0,1,3.025-.778,2.874,2.874,0,0,1,3.071,2.795c.1,2.008.028,4.023.04,6.034,0,.767-.473.909-1.1.914-.914,0-1.183-.148-1.209-.921-.041-1.284,0-2.568-.027-3.852-.013-.549-.139-1.094-.206-1.641a1.331,1.331,0,0,0-1.141-1.218,1.522,1.522,0,0,0-1.791.686,6.735,6.735,0,0,0-.68,2.287c-.112,1.1-.015,2.218-.036,3.336a12.233,12.233,0,0,1-.141,1.239Z" transform="translate(-584.479 -541.923)"/><path class="p" d="M852.436,547.342c-1.127,1.109-1.294,1.139-2.661.5a3.456,3.456,0,0,0-3.624.457,2.909,2.909,0,0,0-.695,3.189,3.079,3.079,0,0,0,4.474,1.281,1.316,1.316,0,0,1,1.731.032c.673.569.708.852.046,1.421a4.968,4.968,0,0,1-3.453,1.183,5.027,5.027,0,0,1-.911-10,5.237,5.237,0,0,1,4.732,1.437,5.07,5.07,0,0,1,.361.5Z" transform="translate(-671.533 -541.805)"/><path class="j" d="M453.265,535.845c.052,1,.105,2.046.163,3.152l1.075.245c.386,1.615.359,1.669-1.139,2.242v4.065c0,.686.018,1.374,0,2.058-.032,1.059-.231,1.227-1.331,1.214-.989-.012-1.171-.179-1.183-1.227-.015-2.016,0-4.029,0-6.156a1.291,1.291,0,0,1-1.113-1.5c.067-.728.6-.739,1.113-.97,0-.7-.013-1.427,0-2.151.024-1.02.1-1.094,1.1-1.124.257-.007.514-.007.772.009A3.944,3.944,0,0,1,453.265,535.845Z" transform="translate(-413.352 -535.453)"/><path class="q" d="M830.3,541.844c0,1.8.013,3.59,0,5.387-.01.986-.177,1.136-1.1,1.147-.974.013-1.2-.177-1.2-1.183q-.019-5.514,0-11.029c0-1.005.148-1.121,1.1-1.128,1.026-.009,1.193.135,1.2,1.17.016,1.881,0,3.762,0,5.642Z" transform="translate(-661.785 -535.019)"/><path class="m" d="M433.058,546.23c.739-.566,1.507-1.133,2.514-.591-.081,1.4-.192,1.526-1.352,1.9-.887.287-1.035,1.062-1.056,1.85-.029,1.5,0,3-.021,4.494-.012,1.171-.206,1.35-1.331,1.331-.989-.024-1.183-.191-1.183-1.23-.016-2.354-.01-4.708,0-7.062,0-.492-.148-1.125.51-1.309a1.315,1.315,0,0,1,1.695.491C432.867,546.153,432.959,546.176,433.058,546.23Z" transform="translate(-400.806 -541.843)"/></g><path class="r" d="M417.7,447.571a2.827,2.827,0,0,1-2.809,2.957,3.009,3.009,0,0,1-3.105-2.878,2.863,2.863,0,0,1,3.01-2.94,2.715,2.715,0,0,1,2.9,2.86Z" transform="translate(-319.302 -434.104)"/><path class="s" d="M272.762,500.078c0,.408-.155.62-.612.614-1.757-.021-3.512-.015-5.268-.018H265.41c.049.769.121,1.391.123,2.015q.012,9.252,0,18.505c0,.665-.123,1.408.791,1.64l-1.183,1.248-.263-.1c-.034-.444-.1-.9-.1-1.344q0-10.722-.021-21.44c0-.726.148-1.2.939-1.195C268.063,500.013,270.412,500.05,272.762,500.078Z" transform="translate(-222.753 -470.411)"/><path class="t" d="M438.778,477.993c.591.052.464.509.466.871.007,1.584,0,3.169,0,4.752v11.013c.887,1.139,2.126.887,3.275.841a1.035,1.035,0,0,0,.714-.562,2.91,2.91,0,0,0,.126-1.127c.009-3.212,0-6.422,0-9.633,0-.636-.071-1.311.773-1.52-.089.887-.245,1.774-.254,2.661-.033,3.037-.012,6.073-.012,9.11,0,1.61,0,1.612-1.665,1.615-.812,0-1.626.015-2.438-.013-.887-.031-1.023-.148-1.035-1.076-.024-1.539-.01-3.08,0-4.619Q438.751,484.15,438.778,477.993Z" transform="translate(-336.995 -455.957)"/><path class="u" d="M612.77,445.977a3.184,3.184,0,0,0-2-.529c-6.432.022-12.864,0-19.295.024-.524,0-1.044.214-1.569.235a3.518,3.518,0,0,1-.973-.242c.148-.17.281-.413.473-.491a2.12,2.12,0,0,1,.763-.044h21.341C612.653,444.928,612.653,444.944,612.77,445.977Z" transform="translate(-435.649 -434.233)"/><path class="v" d="M205.564,464.487a.728.728,0,0,1,.628.933,15.5,15.5,0,0,0,.174,5.665,8.945,8.945,0,0,0,.946.1q12.7.007,25.4,0a1.991,1.991,0,0,0,1.066-.232c.714-.486,1.054-.148,1.331.467-3.339.013-6.679.037-10.019.038q-9.058,0-18.116-.007c-1.408,0-1.465-.052-1.462-1.431C205.517,468.169,205.547,466.328,205.564,464.487Z" transform="translate(-183.832 -447.086)"/><path class="t" d="M717.995,483.924l-1-.09c0-1.028-.01-2.012,0-3,.038-3.141.09-6.28.126-9.42a5.482,5.482,0,0,0-.129-.874c.726.108.51.689.515,1.106.019,2.661-.043,5.311.033,7.965C717.579,481.054,717.835,482.486,717.995,483.924Z" transform="translate(-519.752 -451.062)"/><path class="u" d="M376.751,485.007a4.78,4.78,0,0,0-3.024-.513c-3.2,0-6.4.009-9.611-.015-.4,0-1,.3-1.115-.464,4.288-.013,8.576-.019,12.864-.049C376.622,483.961,376.85,484.319,376.751,485.007Z" transform="translate(-287.262 -459.881)"/><path class="u" d="M632.271,452.815a1.961,1.961,0,0,1,1.872-.758c.976.068,1.959,0,2.939.021a2.686,2.686,0,0,1,1.536.361c1.1.686,2.112-.009,2.137-1.316a6.8,6.8,0,0,1,.027-1.147c.035-.182.3-.321.443-.481v3.32Z" transform="translate(-464.111 -437.241)"/><path class="v" d="M221.581,460.708a7.4,7.4,0,0,1-1.315.241c-4.238.019-8.477.028-12.716,0a2.79,2.79,0,0,0-1.865.532,2.578,2.578,0,0,1,.523-.726c.18-.123.5-.053.753-.052Q214.271,460.708,221.581,460.708Z" transform="translate(-183.944 -444.587)"/><path class="s" d="M290.79,489.995c.14.074.395.137.4.223.055.608.037,1.223.084,1.831a1.817,1.817,0,0,1-1.1,1.961c-.525.247-.7,0-.716-.5l1.214-.248C290.715,492.17,290.753,491.083,290.79,489.995Z" transform="translate(-238.966 -463.839)"/><path class="t" d="M441.324,470.351c-.038.747-.612.5-1.019.534-.556.038-1.183-.148-1.519.513-.148-.751.124-1.127.918-1.087C440.244,470.339,440.784,470.339,441.324,470.351Z" transform="translate(-337.01 -450.91)"/><path class="w" d="M761.127,479.695a4.139,4.139,0,0,1,.118.7q.011,7.393,0,14.786c0,.37.191.945-.64.828a4.152,4.152,0,0,1-.118-.7q-.01-7.393,0-14.786C760.487,480.153,760.3,479.578,761.127,479.695Z" transform="translate(-548.308 -457.064)"/></g></svg>