<svg xmlns="http://www.w3.org/2000/svg" xmlns:xlink="http://www.w3.org/1999/xlink" height="182" viewBox="0 0 492 182" width="492"><filter id="a" height="120.8%" width="120.8%" x="-10.4%" y="-10.4%"><feGaussianBlur in="SourceGraphic" stdDeviation="2"/></filter><filter id="b" height="127%" width="136%" x="-18%" y="-13.5%"><feGaussianBlur in="SourceGraphic" stdDeviation="4"/></filter><filter id="c" height="129.5%" width="130.5%" x="-15.3%" y="-14.8%"><feGaussianBlur in="SourceGraphic" stdDeviation="2"/></filter><filter id="d" height="127%" width="136%" x="-18%" y="-13.5%"><feGaussianBlur in="SourceGraphic" stdDeviation="4"/></filter><filter id="e" height="130%" width="130%" x="-15%" y="-15%"><feGaussianBlur in="SourceGraphic" stdDeviation="2"/></filter><filter id="f" height="146.9%" width="146.9%" x="-23.5%" y="-23.5%"><feGaussianBlur in="SourceGraphic" stdDeviation="4"/></filter><mask id="g" fill="#fff"><path d="m55.9392931.84962069c-.5538103.26244828-1.3789655 1.8882931-1.2188276 3.8055-.3781034 2.5332931 2.1640862 5.51808621.9875173 8.22041381-.1690345.3758793.4426034 3.144931.7784482 4.7351896h-9.8974138l-4.1035344 28.4645173 3.2672586.9964138c1.4078793-1.5702414 3.0137069-2.8291035 4.7930172-3.8055 1.772638-.9608276 3.9767586-1.4434655 6.6012414-1.4434655 3.3918103 0 6.1564138 1.1676724 8.2915862 3.4941206 2.1285 2.3286725 3.1938621 5.3223621 3.1938621 8.9543794 0 2.4977069-.3313966 4.7374137-.9741724 6.708-.6538966 1.9728103-1.6036035 3.6809482-2.8780345 5.1244137-1.0987242 1.2610863-2.4309828 2.224138-3.9789828 2.8802587-1.5457758.6494482-3.1249138.9830689-4.7329655.9830689-.789569 0-1.6347414-.0578276-2.5421897-.1712586-.8985517-.1178793-1.6858965-.2891379-2.3620344-.5271207.3091551-.7917931.6983793-1.9505689 1.1787931-3.4741034.4826379-1.5257586.7228448-2.9247414.7228448-4.2214138 0-1.821569-.7117241-3.2895-2.144069-4.3882242-1.419-1.0898275-3.2427931-1.6414137-5.4758276-1.6414137-2.1351724 0-3.854431.6338793-5.1399827 1.8905172-1.2855517 1.2722069-1.9261035 2.8113103-1.9261035 4.6462241 0 3.0937759 1.9372242 5.7738621 5.8005518 8.0469311 3.8655517 2.2708448 8.6897069 3.3918103 14.4680172 3.3918103 7.4775517 0 13.6072759-1.7859827 18.4203103-5.3868621 4.8063621-3.5986551 7.2151035-8.2315344 7.2151035-13.9075344 0-.6272069-.048931-1.2255-.1023103-1.821569.4670689.5382414.9808448 1.0564655 1.5190862 1.5613448 2.1796551 1.9817069 4.8886551 3.5741897 8.1425689 4.7930173 3.2628104 1.2121551 5.9251035 1.9928275 10.1932243 1.8193448 2.446552-.1023104 4.397121-.516 7.506465-1.5457759 3.107121-1.032 5.822793-2.5332931 8.160362-4.4949827 2.224138-1.8793966 3.978983-4.1724828 5.275656-6.9015 1.232172-2.6289311 1.872724-5.5714655 1.912758-8.8142587v-.5671551c-.084517-5.2756552-2.866914-13.1424311-9.650534-17.8954138-.464845.3936724-.954155.7517586-1.470155 1.0275517-1.590259.887431-3.307294 1.3300345-4.99319 1.5391035-.854069.1045344-1.697017.1356724-2.54219.1223275-.418138-.0022241-.8385-.0355862-1.254414-.0689482-.209068-.0133449-.420362-.0378104-.629431-.0667242l-.309155-.0467069-.162362-.0244655-.07562-.0133448-.042259-.0111207h-.028914c-.051155-.0044483-.113431-.0200172-.180155-.0511552-.129-.0556034-.224638-.1868276-.258-.2735689.033362-.0600518.068948-.129.108983-.1979483l-.040035.0355862s.09119-.1423448.240207-.3914483c.028914-.048931.062276-.0934138.09119-.1490172.578276-.9563793 1.808224-3.0537414 2.751258-5.0487931-1.588034-.2935862-3.282827-.4603966-5.108844-.4603966-14.1521901 0-20.1039832 9.4036552-21.0047591 10.8137586l-1.5146379-9.4815h-3.9923276c-.0022241-.0200172-.0111207-.0378103-.0133448-.0600517-.387-2.8313276.1023103-5.3312586.2446552-5.2801034.5827241.2023965 1.0342241.1245517 1.4568103.0511551 1.0097586-.1801551 1.8349138-.3625344 3.9122586 3.3406552 1.4657069 2.6155862 2.9469828 2.1996724 3.5363793 3.2205517.3736552.6494483 2.3776035.2424311 1.9928276-.7606551-.2179655-.5827242-.9630517-3.0648621-.8941034-3.4563104.1201034-.2602241.1801551-.5226724.1089827-.8251552-.0444827-.1846034-.4403793-.4181379-.629431-.9230172.0845172.0333621.3469655.1712586.5360172.1712586.3180518-.0022241.7584311-.226862.9274656-.387.2846896-.2757931-.5849483-.5893965-.9897414-.6205345-.2624483-.0200172-.5360173.0934138-.7984655.0934138-.1000862-.8273793-.6005173-1.0720344-1.1098449-1.1120689-1.0853793-.0778449-2.3687069-2.2263621-3.6564827-4.61508624-1.1231897-2.07512069-3.2138793-5.09327586-5.7249311-5.55589655-3.6809482-.68503448-6.7280172-.05560345-12.9733965-.6627931-1.4634828-.14234483-2.499931-.22908621-3.3295345-.22908621-1.3856379 0-2.1974483.2402069-3.483.84962069zm11.013931 8.22263793c-.6272069-.26022414-1.3144655-.57605172-1.5724655-1.20103448-.2846896-.68948276.0467069-1.47682759-.0911896-2.20412069-.1823793-.94303448-1.5257587-2.98479311-2.3553621-3.46743104l6.0963621-.04003448c.5916207 0 .8385-.01556896 1.2343965.37810345.387.39367241.6294311.98751724.4515 1.51241379-.3002586.90077586-1.5880345 1.14765517-1.9149827 2.03731035-.1000862.28246551-.0911897.58717241-.0822931.88075862l.0422586 1.26998276c.0066724.23798276.0088965.48263793-.1023104.68281034-.1490172.26912069-.4692931.39812069-.774.39812069h-.0266896c-.3180517-.00889655-.611638-.129-.9052242-.24687931zm-4.8597413 4.02791378c.4181379-.0444827.2824655-.7717758.2668965-1.1854655.3625345-.3002586.6561207-.7339655.8251552-1.3166897 1.4167758.5982931 3.3873621 1.1810173 6.4655689 1.3923104s-.0711724 3.0003621-.0867413 3.305069c-.0066724.2491034-.2802414 1.6102758-.402569 2.3153275h-8.5518103c-.6494483-1.3589482-1.0564656-3.0270517-1.0408966-3.3006207.0289138-.7006034.0822931-1.2321724.1868276-1.968362.0511552.0222414.2268621.0556034.2891379.0756207.0333621.3113793.1556897.8407241.4781897.8407241.3625345 0 .3603103-.5360172.3736552-.8496207.1378965.0088966.4692931-.048931.5916206-.0978621.0934138.2869138.2290862.7917932.5627069.7917932.0111207 0 .0222414 0 .0422587-.0022242zm8.9655 2.4799138c.4937586-.6538965 1.4301206-3.2917241 1.4301206-3.2917241.2624483.1089827 1.419.2112931 1.9149828.0889655.0978621-.0355862.6828104 3.5274827.9118966 5.0643621.0088965.0511551.0200172.1156551.0289138.1690344h-4.8286035c.1089828-.6983793.3047069-1.6792241.5426897-2.0306379zm-13.6050518-1.6592069 1.4590345 3.6898448h-.8807586c-.3024828-1.1765689-.5382414-2.9269655-.5782759-3.6898448zm38.9023966 15.6356897c-.8674138-.2068449-1.790431-.5226724-2.2819655-1.2633104-1.0408966-1.5924827 1.0609138-2.4087414 2.2886379-2.5666552 3.776586-.4715172 7.653259-.4515 11.452086-.2846896 1.238845.0556034 3.854431.0355862 4.530569 1.3322586.366983.7050517-.020017 1.6881207-.086741 2.5066035-.071173.8296034-.142345 1.6569827-.217966 2.484362-.191276 2.1952242-.382551 4.3904483-.571603 6.5878966-.384776 4.4527241-.769552 8.901-1.163224 13.3581724 0 1.3656207-3.189414 1.790431-7.126138 1.790431-.020017 0-.031138-.0044482-.042259-.0044482-.015569 0-.02669.0044482-.040034.0044482-3.9389486 0-7.1328107-.4248103-7.1328107-1.790431 0-3.498569-.6027414-6.9593276-.9052241-10.4312069-.144569-1.6658793-.2869138-3.3339828-.4359311-4.9976379-.1245517-1.4301207-.1112069-3.0226035-.4781896-4.4104655s4.9909655-.0289138 8.3938965-.3402932c2.075121-.1935 4.639552-.6338793 6.203121-1.8638275-2.215242.2668965-4.461621.4893103-6.694655.4893103-1.914983 0-3.8232936-.1645862-5.6915694-.6005172zm-46.6957759-1.2722069h31.9408449c-.3269483.5938448-.6094138 1.2010345-.8607414 1.8193448-1.0698104 2.5822241-1.5947069 5.3779655-1.5947069 8.3961207 0 1.5924827.1601379 3.1271379.4670689 4.6217586-.8585172-.8429483-1.7948793-1.5746896-2.8157586-2.193-2.3175517-1.3856379-4.692931-2.3397931-7.1305862-2.8446724-2.4421034-.500431-4.9197931-.7539828-7.4175-.7539828-3.2450172 0-6.0652241.4003449-8.4583965 1.2032587-2.3976207.8006896-4.3593104 1.6391896-5.8828449 2.5110517zm57.9632583-23.94062072c-.366982.28913793-.658344.76287931-.769551 1.26775862-.102311.52489655-.082293.97862069.177931 1.49906897.289138.6160862.689482 1.23662069 1.103172 1.92387931.8385 1.37006892 1.507966 2.97589652 1.806 4.56170692.162362.7917931.264672 1.5880345.342517 2.3753793.011121.1267758.020018.2602241.033362.3981207.044483-.1089828.102311-.2179655.144569-.3269483.304707-.6894828.56938-1.3945345.822931-2.0906897.480414-1.3989827.851845-2.8202069.947483-4.19694823.093414-1.37451725-.115655-2.67563794-.749534-3.69651725-.162362-.25355172-.344742-.48486206-.547138-.71839655-.224638-.24020689-.453724-.47151724-.691707-.6627931-.471517-.387-.980845-.64277586-1.419-.68948276-.071173-.01112069-.135673-.01334483-.200173-.01334483-.36031 0-.689482.12677586-1.000862.3692069zm7.295173 7.59765522c-.433707.2135172-.758431.629431-.95638 1.1654482-.082293.2201897-.195724.740638-.3225 1.1343104-.131224.4248103-.293586.8607414-.487086 1.2788793-.831827 1.7014655-2.086241 2.9091724-3.2895 4.0234655-.61831.5582586-1.243293 1.0876034-1.868276 1.6169483-.180155.1423448-.391448.3202758-.582724.4737414l.713949-.1067587c.778448-.1334482 1.545775-.3002586 2.293086-.4959827 1.492396-.3914483 2.915845-.9430345 4.123551-1.708138 1.198811-.7784482 2.148518-1.7793103 2.651173-3.0114827.544914-1.2655345.742862-2.7134483.246879-3.5875345-.300258-.6227586-.989741-.9897414-1.679224-.9919655-.291362 0-.5805.0689483-.842948.209069zm-82.475483 5.6693275c-.3692069.4937587-.8718621 1.0431207-1.5057414 1.6858966-.629431.6316552-1.4412414 1.2366207-2.4376552 1.8326896-.9652758.5627069-2.1907758 1.0564656-3.6475862 1.4568104-1.4634827.402569-3.2072069.5982931-5.2156034.5982931h-1.8994138v3.0003621h8.7542069l-.0266897 17.9510172c0 5.031-5.5269827 4.305931-6.225362 2.9158448-2.0284138-4.047931-1.0764828-8.5162241.4915345-12.5597069-2.611138 1.7192587-4.9687242 3.6765-5.7449483 8.3093793-.1668104 1.0253276 0 1.7704138-.3736552 2.8758104-1.4657069-4.6351035-5.26453448-8.9743966-10.17320689-10.0931379.29581035.0733965 2.25527586 2.7557069 2.70677586 3.3673448 1.36339655 1.8571552 2.41986207 4.4104655 2.92251723 6.6346034-1.60582757-1.7793103-4.15913792-3.7699138-6.70577585-2.9158448-.84962069.2869138-1.5657931.8407241-2.17520689 1.4835-.27579311.2935862-.55603449.6094138-.76732759.951931-.16903448.2846897-.33139655.6205345-.42036207 1.1187414 1.05424138-1.1765689 3.42517241-1.8037758 4.77967241-.7539827 1.63029311 1.2566379 1.94389656 3.7454482-.35141379 4.4215862-.61831034.1823793-1.26998276.2557758-1.91943103.2869138-.8674138.0422586-.28468966 0-1.23662069 0v3.2361207l45.1566724-.0133449v-3.2427931c-.6672414-.048931-1.7103621-.0956379-3.1071207-.3002586-1.4123276-.2046207-2.4176379-.4470517-3.015931-.7006034-.6650173-.2958104-1.1810173-.7183966-1.548-1.2833276-.3536379-.5493621-.5248966-1.2099311-.5248966-1.9683621v-18.5515345c0-1.4545862.0333621-3.0937758.1000862-4.9286896.0711725-1.8349138.1378966-3.4407414.2068449-4.8152587z" fill="#fff" fill-rule="evenodd"/></mask><g fill="none" fill-rule="evenodd" transform="translate(.642852 .199101)"><path d="m167.900148 127.377899-.006 8.365h-4.869l.015-9.295c.019-.908-.03-1.719-.169-2.394-.266-1.32-1.032-2.131-2.813-2.131-.734 0-1.515.134-2.329.445l-.014 13.375h-4.892v-16.037c2.328-.788 4.827-1.477 7.717-1.477 4.066 0 6.456 2.397 7.127 5.7.154.783.227 1.955.233 3.449" fill="#008ac4"/><path d="m288.042148 127.377899-.006 8.365h-4.876l.016-9.295c.013-.908-.016-1.719-.157-2.394-.267-1.32-1.047-2.131-2.811-2.131-.751 0-1.527.134-2.338.445l-.024 13.375h-4.89l.009-16.037c2.319-.788 4.827-1.477 7.718-1.477 4.054 0 6.46 2.397 7.117 5.7.157.783.236 1.955.242 3.449" fill="#008ac4"/><path d="m143.848148 121.871899c-2.094 0-4.321 2.654-3.602 6.92.437 2.594 1.908 3.436 2.86 3.436.783 0 1.435-.265 1.998-.766l-.014-9.516c-.328-.031-.827-.074-1.242-.074zm6.179 13.871h-3.703s-.311-.518-.484-1.172c-.36.283-1.484 1.383-3.719 1.383-3.078 0-5.96-2.852-6.748-6.726-1.472-7.288 3.813-10.967 8.89-10.967 2.031 0 4.452.513 5.749.891z" fill="#008ac4"/><path d="m211.945148 121.871899c-2.092 0-4.326 2.654-3.592 6.92.42 2.594 1.904 3.436 2.855 3.436.769 0 1.44-.265 2.003-.766l-.024-9.516c-.334-.031-.819-.074-1.242-.074zm6.172 13.871h-3.704s-.312-.518-.467-1.172c-.375.283-1.501 1.383-3.718 1.383-3.088 0-5.972-2.852-6.757-6.726-1.477-7.288 3.802-10.967 8.897-10.967 2.029 0 4.453.559 5.749.936z" fill="#008ac4"/><path d="m298.768148 121.871899c-2.093 0-4.314 2.654-3.594 6.92.44 2.594 1.907 3.436 2.876 3.436.765 0 1.423-.265 1.985-.766l-.015-9.516c-.331-.031-.83-.074-1.252-.074zm6.178 13.871h-3.709s-.297-.518-.47-1.172c-.374.283-1.492 1.383-3.716 1.383-3.087 0-5.971-2.852-6.75-6.726-1.484-7.288 3.801-10.967 8.889-10.967 2.015 0 4.452.513 5.75.891z" fill="#008ac4"/><path d="m246.192148 127.398899.016 8.344h-4.89v-9.266c.014-.92 0-1.748-.124-2.434-.267-1.251-1.017-2.128-2.851-2.128-.744 0-2.049.236-2.854.711.049.103.557 1.703.557 3.679l.016 9.438h-4.93l.006-9.295c.01-.954-.036-1.788-.18-2.468-.251-1.283-1.031-2.065-2.766-2.065-.765 0-1.514.142-2.326.448l-.015 13.38h-4.892v-16.06c1.978-.72 4.892-1.454 7.719-1.454 1.828 0 3.313.469 4.454 1.311 1.438-.708 3.405-1.311 5.701-1.311 4.047 0 6.437 2.397 7.109 5.7.157.817.266 2.002.25 3.47" fill="#008ac4"/><path d="m258.315148 128.791899c-.703 4.702-4.466 3.685-4.911 3.342v-10.188c.336-.046.89-.086 1.305-.086 2.095 0 4.264 2.635 3.606 6.932zm-4.013-10.531c-2.033 0-4.453.374-5.748.734v24.732h4.889l-.039-8.313c.509.188 1.882.54 2.742.54 3.774 0 6.204-2.717 6.911-6.242 1.62-8.069-3.834-11.451-8.755-11.451z" fill="#008ac4"/><path d="m125.700148 130.242899c-.454-2.189-2.078-3.578-3.858-4.555-1.875-1.037-3.076-1.599-3.236-2.337-.123-.654.203-1.81 1.626-1.842 1.32-.032 2.233.328 3.953 1.283v-3.609c-1.908-.722-3.038-.954-4.516-.954-3.266 0-5.981 1.811-5.266 5.374.407 2.017 1.562 3.125 3.048 4.109 1.64 1.045 3.477 1.968 3.72 3.188.186.937-.37 2.202-2.519 2.202-1.31 0-2.732-.779-3.922-1.408v3.754c1.235.466 2.658.8 4.392.8 4.312 0 7.423-1.817 6.578-6.005" fill="#008ac4"/><path d="m90.1711476 118.470899c-4.032 0-6.344.807-8.312 1.475l.046 15.797h4.89l-.029-13.231c.81-.315 2.177-.441 2.92-.441.266 0 .5.032.735.064v-3.658c-.094 0-.172-.006-.25-.006" fill="#008ac4"/><path d="m97.1541476 135.742899h-4.781l.033-17.217s.621-.189 2.373-.203c1.986-.022 2.406.203 2.406.203z" fill="#008ac4"/><path d="m134.354148 131.945899c-.153.031-.341.031-.577.031-.993 0-1.466-.465-1.466-2.094v-16.857s-.441-.234-2.455-.221c-1.795.018-2.421.221-2.421.221h-.016v17.069c0 5.305 3.048 6.179 5.108 6.179 1.236 0 2.094-.172 2.86-.406z" fill="#008ac4"/><path d="m270.097148 135.742899h-4.782l.034-16.923s.64-.343 2.381-.349c1.977-.022 2.4.349 2.4.349z" fill="#008ac4"/><path d="m201.727148 131.585899c-.954.297-2.248.674-3.454.674-3.387 0-4.656-3.376-4.656-7.64 0-4.018.987-7.691 4.469-7.691 1.032 0 2.377.206 3.483 1.269l2.484-3.283c-1.305-1.306-3.092-2.06-5.967-2.06-5.383 0-9.78 3.508-9.78 11.765 0 8.434 4.015 11.779 9.865 11.779 1.62 0 4.229-.531 5.477-1.031z" fill="#008ac4"/><path d="m177.992148 132.413899c-.998 0-2.405-.843-2.855-3.468-.454-2.703.187-5.446 1.888-6.703 1.062-.725 2.266-.514 3.172-.248l.017 9.53c-.626.577-1.438.889-2.222.889zm4.613-19.609c-1.783.018-2.408.221-2.408.221l.017 5.361c-.391-.035-.923-.158-1.329-.158-4.998 0-10.188 3.202-8.564 11.202.8 3.92 3.659 6.757 7.078 6.757 1.22 0 2.47-.586 3.531-1.397l.47.952h3.735v-22.717s-.509-.234-2.53-.221z" fill="#008ac4"/><path d="m106.723148 121.570899h.058c1.264-.1 2.312 1.375 2.387 3.547l-.021 1.016h-5.335s-.394-4.376 2.911-4.563zm1.62 7.494c.952 0 2.297-.025 3.141-.085l1.082-.05c0-.061.346-1.531.315-3.196-.087-5.834-2.899-7.411-6.381-7.505h-.024.005-.03c-4.297.063-7.4350004 2.649-7.421047 8.937v.077c.1700466 6.5 3.063047 8.954 7.673047 9.045l.044.017c1.096 0 3.235-.188 5.355-1.249v-3.594c-1.981.888-2.885 1.357-4.916 1.25-3.843-.201-3.467-3.647-3.467-3.647z" fill="#008ac4"/><path d="m72.6721476 117.008899c.718-.594 2.406-.829 4.017-.829 3.701 0 5.108.801 5.108.801l1.077-3.675s-2.796-1.451-8.452-.945c-5.296.477-6.936 1.877-6.936 1.877v21.63h5.171l.015-9.653h7.469v-4h-7.469z" fill="#008ac4"/><path d="m328.173148 115.166899c0 1.404-1.142 2.527-2.53 2.527-1.408 0-2.533-1.123-2.533-2.527 0-1.392 1.125-2.532 2.533-2.532 1.388 0 2.53 1.14 2.53 2.532" fill="#008ac4"/><path d="m340.156148 122.337899c0-1.609-.624-2.703-1.537-3.312-.914-.594-2.04-.725-3.087-.725-.414 0-.811.022-1.187.051-2.063.165-3.906.643-4.751.985v11.532h3.75v-8.654c.735-.144 1.328-.22 1.767-.22.514 0 .827.1.954.22.139.108.217.262.233.669 0 .353-.094.859-.292 1.502-.271.888-.613 1.875-.958 2.794v3.689h2.593c.03-.095 1.921-4.97 2.234-6.392.187-.797.281-1.506.281-2.139" fill="#008ac4"/><path d="m314.330148 135.727899h22.609v-3.282h-22.609z" fill="#008ac4"/><path d="m327.673148 119.408899s-.469-.131-2.03-.131c-1.192 0-2.048.131-2.048.131v11.46h4.078z" fill="#008ac4"/><path d="m316.237148 127.179899c-.345-.919-.686-1.906-.968-2.794-.189-.643-.282-1.149-.282-1.502.006-.407.093-.561.217-.669.141-.12.454-.22.969-.22.439 0 1.033.076 1.75.22v8.654h3.767v-11.532c-.844-.342-2.687-.82-4.751-.985-.375-.029-.78-.051-1.186-.051-1.047 0-2.173.131-3.095.725-.921.609-1.532 1.703-1.532 3.312 0 .633.094 1.342.281 2.139.315 1.422 2.203 6.297 2.237 6.392h2.593z" fill="#008ac4"/><path d="m82.0701476 3.12489865c-4.332 11.96600005-6.584 19.33100005-7.806 24.88800005-.771 3.612-1.085 6.268-.984 8.548.187 6.54 4.117 8.419 7.484 9.14 3.368.721 7.188.702 11.752.5 4.53-.218 9.6380004-.733 14.8240004-1.36 7.361-.903 21.867-3.217 28.922-4.314-10.516 1.408-22.574 2.863-32.717 3.002-4.3910004.061-8.4220004-.125-11.9980004-.733-3.565-.64-6.752-1.531-9.484-3.969-1.881-1.729-3.063-3.906-3.758-6.085-.698-2.203-.962-4.46-.994-6.757-.063-5.811 1.345-11.937 2.906-17.26800005.534-1.78 1.172-3.678 1.867-5.595l.262-.716z" fill="#9ccd94"/><path d="m77.3111476 25.9848987c.032 2.297.296 4.554.994 6.757.695 2.179 1.877 4.356 3.758 6.085 2.732 2.438 5.919 3.329 9.484 3.969 3.576.608 7.607.794 11.9980004.733 10.143-.139 22.201-1.594 32.717-3.002.72-.092 1.438-.194 2.139-.294-.17-.752-.357-1.517-.592-2.289-.812-2.711-2.032-5.368-3.351-7.445-5.76.779-11.741 1.515-17.708 2.288-13.08 1.774-24.9000004 2.026-28.9070004-2.025-3.779-3.827-1.126-16.528 1.546-25.83900005-1.78-1.383-4.024-2.785-6.641-3.596-.07.201-.156.41-.234.627-.733 1.961-1.547 4.266-2.297 6.763-1.561 5.33100005-2.969 11.45700005-2.906 17.26800005" fill="#3aab47"/><path d="m33.5811476 119.117899c3.734-9.357 10.013-24.1990003 16.716-33.9810003 2.406-3.486 4.797-6.469 7.454-8.704 1.477-1.216 3.063-2.28 5.123-2.856 1.19-.346 2.391-.503 3.546-.503 3.363.017 5.827 1.031 8.58 2.531 2.75 1.515 5.311 3.468 7.688 5.554 4.75 4.18 13.763 15.982 13.763 15.982h.008s-8.978-12.334-14.391-18.175c-2.725-2.924-5.561-6.032-8.442-8.235-1.456-1.093-2.909-2.062-4.47-2.828-1.561-.721-3.265-1.314-5.29-1.326-.663 0-1.383.061-2.139.264-2.648.765-3.892 2.187-5.242 3.638-2.24 2.612-4.305 6.423-6.515 10.612-6.109 11.656-12.747 28.5560003-16.388 38.0250003z" fill="#e893b5"/><path d="m88.0451476 99.0418987c2.376-.118 5.76-.781 8.406-1.901 0 0-9.013-11.802-13.763-15.982-2.377-2.086-4.938-4.039-7.688-5.554-2.753-1.5-5.217-2.514-8.58-2.531-1.155 0-2.356.157-3.546.503-2.06.576-3.646 1.64-5.123 2.856-2.657 2.235-5.048 5.218-7.454 8.704-6.703 9.782-12.982 24.6240003-16.716 33.9810003 1.994.694 5.857 1.473 10.25 1.273.329-.834 14.269-36.7120003 23.632-38.1920003 7.221-1.141 18.472 13.89 20.582 16.843" fill="#d8127d"/><path d="m107.883148 48.3268987c15.396-3.892 27.129-5.378 30.832-6-4.893.59-23.252 3.372-39.8120004 6.657-16.559 3.296-24.723 6.685-20.934 17.296 3.547 9.888 18.311 27.311 20.281 29.599-1.363-1.788-8.658-11.585-11.164-17.532-8.766-18.569 5.178-26.083 20.7970004-30.02" fill="#74b7d9"/><path d="m138.701148 50.4668987s.889-4.117.07-8.148l-.056.008c-3.703.622-15.436 2.108-30.832 6-15.6190004 3.937-29.5630004 11.451-20.7970004 30.02 2.506 5.947 9.801 15.744 11.164 17.532.131.156.222.273.222.273s4.4570004-2.72 7.1120004-7.079l.157-.254c.331.408-11.8620004-15.756-10.6570004-22.855 1.328-7.819 33.2110004-13.797 43.6170004-15.497" fill="#008ac4"/><path d="m22.7461476 7.10989865.208.262c2.704 3.40600005 7.265 8.95500005 13.123 15.49300005 3.561 3.951 7.047 7.562 10.422 10.328 1.703 1.374 3.364 2.562 5.131 3.468 4.458 2.289 8.429 2.297 12.585-1.076 2.609-2.174 4.438-4.978 6.155-8.143 2.531-4.749 4.655-10.422 6.626-15.969 1.141-3.26500005 2.233-6.48200005 3.266-9.39000005-1.375 3.36-2.812 6.936-4.471 10.42200005-2.48 5.203-5.389 10.252-9.74 14.031-2.891 2.518-6.57 4.392-10.868 4.828-.371.031-.747.047-1.123.047-3.936-.047-7.319-1.672-10.594-3.781-3.267-2.157-6.466-4.983-9.656-8.17-3.557-3.568-7.363-7.93-10.848-12.09400005l-.092-.106z" fill="#e7ea97"/><path d="m43.4661476 27.6298987c3.275 2.109 6.658 3.734 10.594 3.781.376 0 .752-.016 1.123-.047 4.298-.436 7.977-2.31 10.868-4.828 4.351-3.779 7.26-8.828 9.74-14.031 1.659-3.48600005 3.178-7.03000005 4.471-10.42200005.22-.58.282-.767.474-1.326-.233-.063-.47-.117-.717-.172-3.625-.782-7.078-.751-9.939-.079-1.828 4.467-7.834 20.67400005-16.043 21.89900005-7.055 1.055-16.384-9.892-25.681-20.92300005-2.343.486-5.518 2-7.465 3.38.136.153.061.081.202.244 4.037 4.93100005 8.369 9.99300005 12.717 14.35400005 3.19 3.187 6.389 6.013 9.656 8.17" fill="#d2db2f"/><path d="m44.8441476 40.3728987c-1.279-2.952-3.029-5.702-4.826-8.374-1.688-2.518-3.484-4.969-5.33-7.374-3.951-5.157-8.137-10.143-12.482-14.97100005-1.014-1.108-2.045-2.231-3.078-3.325l-.063-.063c4.462 4.90100005 11.865 13.45700005 17.206 24.89600005 1.504 3.222 5.423 12.575-1.469 18.673-7.114 6.295-21.281 8.311-34.60999995 10.257 6.265-.689 12.52999995-1.44 18.76399995-2.36 4.484-.657 8.969-1.378 13.375-2.388 3.672-.861 7.75-1.863 10.718-4.283 1.562-1.265 2.719-3.048 2.93-5.078.194-1.97-.414-3.827-1.135-5.61" fill="#f5c286"/><path d="m12.8001476 14.2198987c6.867 7.912 9.709 10.49 14.768 20.665 3.927 7.901-.378 10.19-5.737 12.347-4.531 1.843-20.95199995 4.484-20.95199995 4.484l-.007.001c-.851 2.516-1.071 5.142-.696 8.377l.016-.002c13.32899995-1.946 27.49599995-3.962 34.60999995-10.257 6.892-6.098 2.973-15.451 1.469-18.673-5.341-11.439-12.744-19.995-17.206-24.89600005l-.063-.063c-1.238.904-2.302 2.17-3.799 4.04500005-1.342 1.679-2.289 3.464-2.398 3.972" fill="#eb8b2d"/><path d="m44.5471476 63.2178987c-2-2.018-4.796-2.923-7.529-3.377-2.657-.423-5.374-.469-8.06-.438-9.509.157-18.98099995 1.414-28.40299995 2.694l-.059.009c8.114-1.008 14.30399995-1.437 19.08599995-1.437 5.102.009 8.704.469 11.608 1.451.208.066.41.136.609.207.111.039.217.079.325.119l.159.062c6.97 2.685 8.862 8.344 8.97 15.223-.031 6.657-1.798 14.999-4.062 23.4210003-1.658 6.123-3.599 12.23-5.379 17.39 2.392-6.269 4.892-12.501 7.157-18.8120003 2.401-6.719 4.734-13.451 6.409-20.405.725-3.017 1.351-6.094 1.396-9.203.041-2.459-.459-5.076-2.227-6.904" fill="#eb9073"/><path d="m41.2531476 77.7308987c-.108-6.879-2-12.538-8.97-15.223l-.159-.062c-.108-.04-.214-.08-.325-.119-.199-.07-.401-.141-.609-.207-2.904-.982-6.506-1.442-11.608-1.451-4.782 0-10.97199995.429-19.08599995 1.437.819 5.083 2.903 8.399 3.788 9.585 6.57999995-.757 11.57999995-1.053 15.29799995-1.053 14.069-.061 14.441 4.004 13.702 15.07-.613 9.18-6.813 25.2380003-8.437 28.6290003 0 0 1.187 1.14 2.687 2.074 1.951 1.213 4.041 2.045 4.261 2.125l.017.006c1.78-5.16 3.721-11.267 5.379-17.39 2.264-8.4220003 4.031-16.7640003 4.062-23.4210003" fill="#d8232a"/><g fill="#008ac4"><path d="m228.422148 174.183899c-.172-1.498-.356-2.994-.513-4.493-.116-1.106-.198-2.217-.294-3.326-.024-.277-.024-.558-.07-.831-.017-.1-.121-.219-.214-.256l-.248.168c-.387.403-.748.833-1.153 1.216-1.482 1.401-4.344 1.242-5.591-.28-.862-1.052-1.132-2.558-.596-3.802.671-1.556 1.784-2.703 3.135-3.686.852-.618 1.828-.744 2.795-.945.22-.045.501-.008.695.098.257.139.617.366.645.59.047.392-.377.388-.69.474-1.935.535-3.615 1.469-4.708 3.231-.76 1.224-.581 2.735.412 3.754.452.461 1.03.564 1.64.257.283-.142.589-.292.8-.516.76-.808 1.521-1.62 2.199-2.494.215-.278.189-.752.239-1.142.056-.415.247-.676.682-.681.428-.005.928-.127 1.154.394.142.324.236.683.276 1.035.107.947.228 1.898.244 2.849.026 1.517.265 3.004.456 4.503.179 1.418.277 2.858.249 4.286-.021 1.019-.213 2.061-.501 3.043-.382 1.3-1.266 2.175-2.645 2.512-.61.149-1.091-.099-1.591-.327-.1-.045-.206-.317-.161-.391.089-.142.337-.337.429-.298.508.218.986.128 1.338-.214.389-.378.774-.829.971-1.323.427-1.078.654-2.217.616-3.405"/><path d="m248.094148 161.520899c-.113-.61-.189-1.16-.322-1.697-.168-.687-.497-.896-1.119-.605-.679.317-1.359.691-1.936 1.165-1.48 1.213-2.544 2.737-3.117 4.583-.094.303-.187.615-.337.891-.258.476-.791.702-1.19.555-.479-.177-.555-.496-.557-1.149-.003-1.025-.049-2.06-.201-3.073-.432-2.9-.937-5.789-1.389-8.686-.122-.783-.201-1.576-.224-2.367-.018-.661.182-.851.7-.895.592-.05 1.056.239 1.173.784.108.503.193 1.015.236 1.527.106 1.267.14 2.542.282 3.804.202 1.812.47 3.615.723 5.421.019.13.147.244.224.366.112-.098.251-.178.333-.298.891-1.293 1.912-2.481 3.274-3.271 1.135-.658 2.349-1.199 3.735-.602.726.314 1.124.816 1.307 1.579.61 2.528-.231 4.707-1.607 6.746-.636.942-1.641 1.37-2.706 1.636-.516.129-1.139-.135-1.357-.541-.124-.228-.103-.585.196-.542 2.27.326 2.797-1.394 3.4-2.929.299-.759.332-1.622.479-2.402"/><path d="m192.521148 158.730899c-.012-2.159.153-4.297.523-6.421l.018-.238c.071-.435.291-.766.753-.793.442-.026.918.433.896.934-.046 1.03-.17 2.056-.271 3.084-.055.551-.143 1.099-.193 1.652-.085.948-.174 1.898-.219 2.85-.022.473.039.952.079 1.426.017.197.088.388.112.584.067.558.124 1.117.184 1.675.283-.521.552-1.051.851-1.562.481-.826.963-1.653 1.484-2.453.192-.293.467-.555.755-.757.913-.643 2.223-.284 2.664.635.634 1.322.946 2.704 1.03 4.135.072 1.236.042 2.479.003 3.716-.019.672-.137 1.342-.232 2.01-.079.555-.345.738-.899.706-.519-.03-.53-.388-.529-.763.001-1.438.069-2.882-.015-4.315-.07-1.183-.3-2.359-.498-3.532-.058-.34-.197-.788-.64-.733-.312.038-.707.246-.871.502-.58.901-1.092 1.848-1.599 2.794-.338.633-.619 1.296-.932 1.941-.202.416-.481.729-.994.744-.44.011-.797-.081-.914-.573-.083-.346-.213-.691-.234-1.043-.119-2.067-.211-4.136-.312-6.205"/><path d="m256.850148 174.496899c-.058-2.537.547-4.971 1.097-7.412.279-1.239.567-2.475.837-3.715.031-.145-.024-.308-.039-.462-.117.123-.259.229-.347.37-.754 1.217-1.436 2.484-2.265 3.648-.854 1.196-2.547 1.107-3.423-.088-.14-.191-.284-.394-.354-.615-.541-1.71-.921-3.454-.974-5.252-.024-.814.147-1.069.591-1.126.495-.064.799.187.949.993.173.934.217 1.891.37 2.83.116.703.275 1.405.493 2.083.202.625.603.727 1.072.303.322-.291.612-.633.851-.995 1.232-1.869 2.34-3.802 2.994-5.963.046-.152.084-.309.149-.454.235-.522.594-.759.998-.673.519.11.843.441.868.986.064 1.435.017 2.859-.359 4.266-.656 2.457-1.283 4.92-1.895 7.388-.475 1.914-.557 3.846-.193 5.796.138.74.211 1.493.277 2.244.024.27-.019.562-.103.82-.083.256-.233.59-.58.456-.265-.104-.479-.352-.701-.552l-.022-.233c-.097-1.547-.194-3.095-.291-4.643"/><path d="m270.308148 160.564899c.09 1.389.179 2.779.274 4.167l.078.221c.099-.046.245-.066.289-.144.51-.902.986-1.825 1.509-2.719.645-1.1 1.295-2.199 1.998-3.261.732-1.108 2.663-1.271 3.534-.242.323.38.366 1.025.457 1.563.074.428.034.877.027 1.317-.046 2.753.174 5.482.679 8.19.143.766-.314 1.135-1.062.887-.697-.231-.996-.745-1.028-1.452-.081-1.75-.129-3.502-.261-5.248-.096-1.265-.294-2.522-.471-3.778-.023-.162-.179-.406-.302-.425-.137-.02-.342.142-.459.276-1.451 1.684-2.384 3.674-3.29 5.675-.278.615-.507 1.256-.707 1.902-.154.493-.355.912-.931.929-.498.014-1.195-.505-1.315-1.027-.179-.77-.338-1.553-.398-2.341-.122-1.585-.198-3.177-.24-4.767-.014-.548.134-1.1.2-1.651.04-.342.141-.633.537-.683.343-.043.763.287.863.694.047.191.037.397.04.596.005.44.001.88.001 1.319z"/><path d="m136.304148 160.693899c.114 1.065.222 2.13.344 3.193.023.195.086.387.156.572.04.106.131.193.198.29.109-.102.261-.182.321-.306.505-1.039.948-2.111 1.499-3.124.532-.974 1.152-1.904 1.768-2.829.469-.705 1.187-.974 1.987-.771.721.181 1.1.794 1.232 1.486.147.777.221 1.572.27 2.363.105 1.707.139 3.418.276 5.122.045.574.264 1.153.497 1.689.186.429.364.83-.008 1.195-.26.255-.91.055-1.288-.312-.533-.516-.576-1.215-.638-1.874-.129-1.383-.138-2.779-.277-4.162-.092-.902-.282-1.802-.514-2.68-.139-.525-.561-.582-.875-.13-.454.65-.872 1.335-1.228 2.044-.608 1.21-1.147 2.455-1.734 3.675-.153.319-.332.651-.579.894-.628.617-1.564.48-2.021-.285-.202-.339-.361-.713-.479-1.09-.663-2.113-.848-4.284-.698-6.485.061-.894.446-1.273 1.13-1.248.476.017.75.239.764.727.01.359-.001.718-.002 1.077v.959z"/><path d="m292.533148 150.951899c.637.039.982.405 1.047 1.157.052.596.02 1.198.025 1.799.001.239-.006.479.001.72.025.899.033.943.978.88 1.029-.069 2.051-.234 3.078-.331.713-.069 1.429-.117 2.145-.126.215-.004.475.101.641.243.194.164.306.424.453.642-.202.11-.392.276-.608.319-.854.17-1.718.295-2.576.449-1.016.183-2.035.35-3.042.576-.844.189-.84.22-.843 1.146-.006 1.874.184 3.731.453 5.584.058.393.021.799.061 1.196.036.359.149.584.623.432.571-.182 1.015.083.941.591-.145 1.005-.161 2.077-1.065 2.825-.75.619-1.445.45-1.693-.508-.199-.767-.352-1.551-.453-2.337-.131-1.025-.184-2.059-.281-3.088-.156-1.661-.32-3.321-.483-4.983-.027-.272-.132-.485-.452-.357-.554.223-1.006-.109-1.489-.252-.344-.102-.47203-.38-.47203-.745-.00297-.399.22503-.603.55003-.678.346-.079.71-.094 1.067-.103.408-.011.583-.211.558-.6-.044-.714-.128-1.427-.139-2.141-.009-.584.015-1.179.117-1.754.082-.467.485-.593.858-.556"/><path d="m209.850148 162.111899c.001.839-.008 1.677.009 2.515.002.136.088.344.189.385.102.041.321-.045.402-.145.375-.462.742-.934 1.071-1.43.746-1.128 1.429-2.3 2.211-3.401.549-.773 1.154-1.533 2.166-1.78.89-.218 1.585.171 1.595 1.075.017 1.508-.084 3.018-.163 4.525-.075 1.428-.215 2.853-.262 4.281-.014.461.135.944.288 1.389.125.361-.041.579-.285.681-.218.091-.565.11-.751-.006-.461-.288-.711-.769-.694-1.317.031-.992.157-1.982.16-2.972.003-1.587-.055-3.175-.108-4.763-.006-.176-.155-.347-.238-.521-.198.109-.472.169-.579.335-.751 1.173-1.472 2.364-2.19 3.557-.369.614-.715 1.242-1.065 1.868-.362.652-.758 1.244-1.649 1.102-.797-.128-1.635-.93-1.748-1.765-.265-1.937-.34-3.886-.246-5.838.041-.857.344-1.088 1.118-1.011.591.059.744.203.763.841.023.797.006 1.596.006 2.395"/><path d="m321.346148 163.455899c1.335-.316 2.917-.708 3.985-2.114.256-.337.575-.704.327-1.189-.17-.332-.706-.446-1.307-.304l-.226.077c-1.507.594-2.611 1.644-3.397 3.042-.196.348-.097.474.618.488zm2.33 5.62c-.763-.171-1.541-.309-2.298-.522-1.35-.38-2.139-1.343-2.498-2.65-.131-.475-.176-.926-.713-1.144-.155-.064-.263-.288-.355-.458-.242-.441-.162-.794.28-.811.737-.027.846-.514 1.106-1.024 1.026-2.013 2.626-3.386 4.819-4.003.759-.214 1.517-.058 2.202.307 1.391.743 1.695 2.466.655 3.662-.802.924-1.825 1.559-2.962 1.947-.97.331-1.995.503-2.998.732-.29.067-.408.177-.296.491.387 1.082 1.195 1.721 2.273 1.882.935.141 1.914.157 2.834-.221.147-.06.301-.167.447-.157.219.014.526.048.623.191.094.138.041.48-.077.633-.207.271-.481.576-.786.668-.714.218-1.463.318-2.256.477z"/><path d="m165.685148 161.519899c-.079 1.796.054 3.695.443 5.573.032.154.034.319.019.476-.054.537-.456.795-.92.518-.281-.168-.56-.473-.661-.776-.173-.52-.237-1.084-.295-1.634-.105-.987-.169-1.977-.258-2.965-.01-.105-.072-.204-.11-.307-.076.085-.172.159-.224.258-.537 1.017-1.084 2.03-1.596 3.06-.742 1.495-2.545 1.387-3.415.106-.601-.884-1.142-1.834-1.541-2.823-.475-1.174-.773-2.42-1.135-3.64-.078-.263-.124-.544-.134-.818-.033-.953.293-1.238 1.21-1.111.356.049.593.207.677.567.081.348.207.692.238 1.045.159 1.811.893 3.451 1.508 5.126.078.214.266.392.413.579.27.342.545.296.77-.037.443-.661.932-1.302 1.286-2.009.692-1.384 1.557-2.695 1.918-4.233.053-.223.198-.435.336-.627.226-.315.54-.472.936-.379.435.101.534.432.534.82.001 1.038.001 2.075.001 3.231"/><path d="m279.854148 163.929899c.059-1.256.647-2.248 1.415-3.129.786-.904 1.638-1.763 2.733-2.291.635-.307 1.315-.541 2-.709.258-.064.616.101.87.257.332.205.32.677-.007.914-.256.185-.564.294-.843.448-1.588.875-3.02 1.933-3.999 3.501-.167.266-.323.56-.39.863-.21.947.351 1.545 1.263 1.245 1.051-.347 2.055-.844 3.073-1.291.216-.095.399-.26.602-.386.533-.332.865-.713.822-1.436-.056-.928.172-1.136.822-1.122.685.014 1.016.374 1.058 1.161.013.238.012.479.001.718-.09 2.039.199 4.044.525 6.046.019.116.14.246.11.334-.097.28-.174.658-.387.786-.331.199-.746.052-.897-.333-.289-.735-.557-1.485-.75-2.249-.153-.611-.184-1.253-.27-1.881-.072-.511-.235-.601-.729-.372-.936.431-1.836.965-2.808 1.285-.696.228-1.486.257-2.23.233-.771-.024-1.339-.51-1.631-1.221-.177-.433-.239-.913-.353-1.371"/><path d="m155.145148 162.403899c-.286 2.379-1.009 4.509-3.343 5.687-.747.377-1.522.627-2.399.51-2.812-.371-3.696-2.971-3.232-5.041.183-.811.328-1.635.575-2.426.497-1.589 1.54-2.766 2.929-3.657.489-.313 1.008-.448 1.577-.313.485.115.659.471.409.881-.12.195-.302.4-.505.488-1.389.602-2.149 1.714-2.582 3.102-.201.645-.428 1.285-.576 1.942-.208.926-.059 1.827.373 2.67.41.801 1.124 1.101 1.989.806.406-.139.835-.321 1.148-.601 1.312-1.18 1.998-2.663 1.942-4.447-.03-.975-.376-1.786-1.314-2.242-.144-.069-.358-.128-.4-.244-.088-.237-.165-.537-.088-.757.053-.156.388-.343.557-.31.833.166 1.629.463 2.104 1.234.506.825.879 1.702.836 2.718"/><path d="m306.877148 160.299899c-.095.747-.275 1.495-.264 2.24.018 1.066.102 2.144.3 3.191.121.639.055 1.326.512 1.931.33.435.063 1.084-.321 1.237-.474.19-1.017-.05-1.207-.68-.306-1.023-.509-2.078-.761-3.118-.025-.101-.08-.196-.122-.295-.079.084-.176.158-.236.253-.544.883-1.11 1.745-1.903 2.438-.861.753-2.052.763-2.904.027-.755-.651-1.228-1.495-1.501-2.406-.41-1.363-.686-2.769-1.007-4.158-.071-.308-.092-.627-.143-.939-.155-.945.321-1.467 1.246-1.389.324.027.509.14.558.486.148 1.06.291 2.121.486 3.173.18.972.401 1.939.654 2.896.089.337.288.661.5.946.379.508.755.573 1.19.103.646-.695 1.302-1.415 1.777-2.228.761-1.306 1.332-2.708 1.437-4.258.029-.431.168-.859.295-1.276.113-.373.344-.629.794-.541.375.075.538.323.544.68.01.56.003 1.118.003 1.678z"/><path d="m185.808148 170.134899c-1.275-.046-2.278-.771-2.523-2.134-.032-.181.162-.403.252-.606.194.089.447.127.573.275 1.055 1.236 1.978 1.396 3.296.494.704-.482 1.196-1.156 1.56-1.927.523-1.107.118-2.029-.625-2.832-.785-.849-1.637-1.636-2.456-2.453-.594-.592-1.203-1.17-1.768-1.789-.578-.632-.96-1.358-.906-2.263.048-.792.394-1.372 1.122-1.689 1.347-.588 2.701-.598 4.046.012.614.279 1.027.758 1.238 1.388.226.673.015 1.132-.573 1.368-.473.191-.793.071-1.129-.551-.258-.477-.539-.916-1.075-1.05-.324-.081-.713-.096-1.025.006-.68.218-.871.672-.55 1.303.193.382.482.731.786 1.039 1.175 1.197 2.381 2.361 3.557 3.555.806.818 1.285 1.762 1.306 2.97.022 1.252-.658 2.143-1.402 2.938-.901.962-2.064 1.611-3.382 1.907-.116.025-.237.029-.322.039"/><path d="m309.945148 159.033899c0-.43.009-.59-.002-.749-.031-.507.288-.721.71-.803.446-.086.675.222.78.582.165.569.279 1.153.404 1.733.05.231.049.476.113.702.042.144.162.266.248.398.089-.126.2-.241.264-.379.401-.876.89-1.674 1.617-2.34.898-.824 1.953-.821 3.027-.689.251.03.562.347.673.605.478 1.107.208 2.183-.36 3.17-.141.246-.577.405-.897.443-.343.04-.571-.185-.497-.618.085-.506.17-1.026.139-1.533-.04-.679-.536-.864-1.079-.456-1.015.763-1.438 1.885-1.785 3.033-.539 1.782-.393 3.591-.134 5.399.028.195.09.389.101.585.022.386-.06.716-.518.809-.515.105-.909-.041-1.097-.469-.127-.29-.216-.6-.293-.907-.563-2.271-1.097-4.545-1.199-6.898-.027-.63-.165-1.256-.215-1.618"/><path d="m176.850148 158.264899c-.216.545-.379 1.121-.671 1.621-.124.212-.511.367-.784.376-.387.013-.282-.38-.354-.635-.07-.244-.207-.611-.375-.647-.195-.043-.48.184-.685.346-.767.608-.967 1.55-1.276 2.395-.529 1.452-.959 2.944-1.041 4.508-.008.158-.016.328-.08.467-.17.372-.08.936-.677 1.012-.496.062-1.172-.439-1.344-.999-.105-.341-.205-.691-.244-1.043-.18-1.655-.329-3.315-.511-4.969-.096-.865-.236-1.726-.365-2.587-.085-.561.064-.989.41-1.121.498-.191 1.035.037 1.23.622.188.559.317 1.15.381 1.735.12 1.104.174 2.215.261 3.323.008.114.057.225.088.338.07-.12.167-.232.208-.361.229-.718.412-1.454.674-2.159.418-1.12.843-2.256 1.799-3.052.359-.297.788-.523 1.213-.72 1.097-.509 2.235.103 2.143 1.55"/><path d="m205.276148 162.903899c0 .519.005 1.038-.001 1.558-.016 1.315-.006 2.626.423 3.894.104.305.153.621-.207.841-.341.209-.676.09-.872-.133-.304-.345-.642-.757-.724-1.187-.239-1.242-.376-2.507-.516-3.767-.105-.945-.202-1.897-.207-2.847-.005-.789.136-1.578.203-2.368.03-.347.141-.636.518-.706.403-.074.859-.102 1.086.29.205.356.351.791.37 1.199.049 1.073.016 2.15.016 3.225z"/><path d="m181.166148 161.568899c.118 1.224.199 2.452.374 3.667.071.496.331.969.532 1.441.131.304-.002.46-.257.543-.8.255-1.419-.028-1.719-.819-.197-.517-.344-1.056-.485-1.593-.516-1.985-.519-4.013-.473-6.042.016-.711.376-1.057 1.004-1.085.631-.028 1.03.269 1.085 1.008.071.952.017 1.913.017 2.87z"/><path d="m206.731148 154.777899c-.211.135-.43.39-.651.391-.385.002-.788-.109-1.151-.252-.411-.162-.395-.566-.344-.928.052-.363.346-.364.635-.395.649-.069 1.049.294 1.388.763.065.089.068.223.123.421"/><path d="m180.208148 154.302902c-.082-.015003-.318.006997-.457-.099003-.167-.128-.356-.371-.345-.552.016-.235.178-.502.357-.67.115-.109.375-.095.567-.087.623.028 1.186.434 1.163.815-.019.343-.514.594-1.285.593003"/><path d="m446.151148 163.489899c-.058-2.539.547-4.974 1.098-7.417.279-1.239.567-2.476.838-3.717.031-.143-.024-.307-.04-.462-.116.123-.259.23-.346.371-.756 1.217-1.437 2.486-2.267 3.649-.855 1.197-2.548 1.108-3.425-.087-.14-.19-.285-.395-.355-.615-.54-1.711-.922-3.457-.973-5.256-.025-.815.146-1.069.591-1.126.495-.065.799.187.949.993.174.935.217 1.893.371 2.832.115.703.274 1.406.493 2.083.202.626.603.729 1.073.304.322-.291.612-.633.85-.995 1.233-1.869 2.342-3.805 2.997-5.967.046-.152.083-.31.148-.454.236-.523.595-.76.998-.674.52.11.845.441.87.986.064 1.437.017 2.863-.359 4.27-.656 2.457-1.284 4.923-1.896 7.391-.476 1.916-.558 3.849-.194 5.8.138.74.21 1.494.278 2.245.023.271-.019.562-.103.821-.083.256-.233.59-.581.456-.267-.104-.479-.352-.701-.552l-.023-.232c-.096-1.549-.194-3.098-.291-4.647"/><path d="m454.619148 152.441899c1.336-.314 2.919-.708 3.987-2.115.257-.337.577-.704.328-1.19-.17-.331-.706-.446-1.308-.303l-.226.076c-1.507.596-2.613 1.645-3.399 3.044-.196.349-.098.475.618.488zm2.331 5.624c-.762-.171-1.542-.309-2.299-.522-1.35-.381-2.139-1.344-2.499-2.652-.13-.474-.175-.926-.713-1.145-.156-.064-.263-.288-.357-.458-.241-.442-.16-.795.281-.812.739-.026.846-.513 1.107-1.025 1.026-2.013 2.628-3.387 4.821-4.005.761-.214 1.519-.057 2.204.309 1.393.743 1.696 2.466.656 3.664-.802.924-1.827 1.559-2.963 1.947-.971.331-1.997.503-3 .732-.291.067-.41.177-.297.492.386 1.083 1.196 1.721 2.274 1.883.937.14 1.915.158 2.836-.221.147-.061.302-.166.446-.157.22.014.529.047.624.19.094.14.041.481-.077.635-.207.27-.48.575-.786.669-.714.216-1.464.317-2.258.476z"/><path d="m461.551148 153.175899c.06-1.258.648-2.249 1.417-3.132.786-.904 1.638-1.764 2.734-2.293.635-.306 1.317-.541 2.001-.709.258-.064.617.101.871.259.332.204.32.676-.008.913-.255.185-.564.295-.843.448-1.589.875-3.022 1.934-4.001 3.503-.166.266-.324.561-.391.863-.21.949.352 1.546 1.264 1.246 1.052-.346 2.056-.844 3.075-1.291.216-.096.399-.261.602-.387.534-.331.866-.712.823-1.436-.056-.929.173-1.137.823-1.123.686.015 1.017.374 1.059 1.161.012.239.011.48.001.719-.091 2.04.198 4.047.525 6.05.019.115.14.246.109.333-.097.28-.173.659-.386.787-.331.199-.746.053-.899-.333-.289-.736-.556-1.486-.749-2.25-.155-.612-.184-1.254-.271-1.882-.072-.512-.235-.602-.729-.373-.936.432-1.838.966-2.809 1.286-.698.229-1.488.257-2.232.233-.771-.024-1.34-.509-1.632-1.222-.177-.433-.24-.912-.354-1.37"/><path d="m485.611148 159.147899c-1.274-.039-2.278-.653-2.523-1.808-.032-.154.162-.342.252-.514.194.075.447.108.573.232 1.056 1.048 1.979 1.185 3.299.419.704-.408 1.195-.979 1.559-1.632.525-.939.119-1.72-.624-2.4-.787-.72-1.638-1.388-2.458-2.08-.594-.502-1.204-.991-1.769-1.516-.578-.536-.961-1.151-.906-1.918.048-.67.393-1.163 1.122-1.432 1.347-.497 2.703-.506 4.049.012.615.235 1.027.642 1.239 1.175.225.571.014.96-.574 1.16-.474.162-.794.06-1.13-.467-.258-.404-.539-.777-1.075-.89-.325-.069-.714-.081-1.027.005-.679.185-.87.57-.55 1.104.194.325.484.621.787.881 1.175 1.014 2.382 2.001 3.559 3.013.808.693 1.286 1.493 1.307 2.517.021 1.06-.658 1.816-1.404 2.49-.901.815-2.064 1.365-3.383 1.615-.116.023-.237.025-.323.034"/><path d="m473.230148 148.533899c0-.43.008-.59-.002-.749-.032-.507.287-.722.71-.804.445-.086.675.222.78.582.165.57.279 1.154.404 1.734.05.232.049.476.113.703.042.144.163.266.248.398.089-.126.202-.242.265-.38.401-.876.89-1.674 1.617-2.341.899-.824 1.955-.821 3.031-.689.25.03.56.347.671.606.478 1.107.208 2.184-.359 3.171-.142.247-.578.405-.897.443-.345.041-.572-.184-.498-.618.085-.506.169-1.027.139-1.534-.041-.679-.536-.864-1.08-.456-1.016.763-1.438 1.886-1.786 3.035-.54 1.782-.394 3.593-.134 5.402.029.195.09.389.101.585.022.387-.061.717-.518.809-.515.106-.91-.042-1.097-.469-.127-.29-.217-.6-.293-.908-.565-2.271-1.099-4.546-1.201-6.901-.027-.631-.165-1.256-.214-1.619"/></g><g mask="url(#g)" transform="translate(352.357148 80.800899)"><g transform="translate(-17.793103 -24.465517)"><circle cx="28.913793" cy="71.809667" fill="#3aa934" filter="url(#a)" r="28.913793"/><ellipse cx="85.720385" cy="54.753637" fill="#f49900" filter="url(#b)" rx="33.362069" ry="44.482759" transform="matrix(.93969262 .34202014 -.34202014 .93969262 23.896419 -26.01605)"/><path d="m71.5722588 116.25494c11.6693959 0 21.1293104-9.459915 21.1293104-21.1293104 0-11.6693959-9.8597595-19.5049399-21.5291554-19.5049399s-17.7931035 1.6754317-17.7931035 13.3448275 6.5235526 27.2894228 18.1929485 27.2894228z" fill="#e11014" filter="url(#c)"/><ellipse cx="142.219876" cy="51.155172" fill="#0094d3" filter="url(#d)" rx="33.362069" ry="44.482759"/><circle cx="54.553855" cy="44.60771" fill="#e3dc00" filter="url(#e)" r="20.017241"/><circle cx="108.920283" cy="71.809667" fill="#e5007d" filter="url(#f)" r="25.577586"/></g></g></g></svg>