<svg xmlns="http://www.w3.org/2000/svg" x="0px" y="0px" viewBox="0 0 157 38" style="enable-background:new 0 0 157 38;" xml:space="preserve" width="157px" height="38px">
<path style="fill-rule:evenodd;clip-rule:evenodd;fill:#757578;" d="M0.36,10.24H6.2v6.43h0.12c0.93-2,3.58-7.06,9.67-7.06
	c4.86,0,6.94,3.98,6.94,7.91v19.81h-5.85V20.38c0-3.41-0.51-6.49-3.47-6.49c-5.79,0-7.41,8.89-7.41,12.25v11.22H0.36V10.24
	 M50.5,10.24h5.56l4.57,19.58h0.11l5.44-19.58h4.23l5.73,19.58h0.11l4.28-19.58h4.93l-6.43,27.1h-5.1l-5.85-18.34h-0.11l-5.21,18.34
	h-5.1L50.5,10.24 M139.5,15.59c-1.97-1.31-4.17-2.67-6.94-2.67c-1.85,0-3.94,0.8-3.94,2.84c0,4.9,12.63,5.35,12.63,14.01
	c0,5.81-4.64,8.2-10.48,8.2c-3.53,0-5.97-0.74-7.35-1.2v-5.3c1.68,1.14,4.39,2.85,7.64,2.85c3.36,0,4.75-1.71,4.75-3.42
	c0-4.78-12.45-5.76-12.45-13.49c0-4.11,2.78-7.81,9.66-7.81c2.96,0,5.51,0.8,6.49,1.08V15.59 M156.9,37.57
	c-1.16,0.28-2.72,0.4-4.05,0.4c-5.5,0-8.68-1.65-8.68-6.89V3.86l5.85-3.47v9.85h5.21v2.96h-5.21v15.6c0,3.98,0.4,5.91,4.16,5.91
	c0.93,0,1.91-0.11,2.72-0.45V37.57 M92.11,37.34V20.99H92.1v-0.28h0.01c0.02-0.84,0.06-2,0.18-2.79h0.01
	c0.16-1.68,1.23-5.92,5.59-5.92V9.61c-8.68,0-11.64,5.47-11.64,12.99v14.75H92.11 M104.36,20.99L104.36,20.99c0-0.05,0-0.12,0-0.18
	c0-0.03,0-0.07,0-0.1h0c0.02-0.84,0.06-2,0.18-2.79h0c0.16-1.68,1.13-5.92,5.48-5.92c4.03,0,4.96,3.43,5.08,5.6
	c-1.45,0.01-2.96,0.01-4.13,0.01c-2.83,0-4.13,2.24-4.35,3.21c0,0,6.73-0.07,10.57-0.11h3.65c0-5.24-1.68-11.1-10.59-11.1
	c-8.68,0-11.75,5.47-11.75,12.99c0,10.93,6.14,15.37,13.78,15.37c3.47,0,5.61-0.57,8.04-1.54v-2.62c-1.74,0.8-3.47,1.14-5.27,1.14
	C106.93,34.95,104.44,26.37,104.36,20.99"/>
<path style="fill-rule:evenodd;clip-rule:evenodd;fill:#AF6114;" d="M49.13,31.47H33.45c0,0-7.48,0.01-8.52,5.94h15.68
	C40.61,37.41,48.09,37.4,49.13,31.47 M49.13,20.82H33.45c0,0-7.48,0.01-8.52,5.94h15.68C40.61,26.76,48.09,26.75,49.13,20.82
	 M49.13,10.18H33.45c0,0-7.48,0.01-8.52,5.94h15.68C40.61,16.12,48.09,16.11,49.13,10.18"/>
</svg>
