<svg id="Layer_1" data-name="Layer 1" viewBox="0 0 253.02 174.61" xmlns="http://www.w3.org/2000/svg">
  <defs>
    <style>.cls-1{fill:none;}.cls-2{clip-path:url(#clip-path);}.cls-3{fill:#d2232a;}.cls-4{fill:#fff;}.cls-5{clip-path:url(#clip-path-2);}.cls-6{clip-path:url(#clip-path-3);}</style>
    <clipPath id="clip-path" transform="translate(-10.87 -7.49)">
      <rect class="cls-1" x="10.87" y="7.49" width="253.02" height="174.61"></rect>
    </clipPath>
    <clipPath id="clip-path-2" transform="translate(-10.87 -7.49)">
      <rect class="cls-1" x="150.62" y="30.1" width="88.99" height="34.71"></rect>
    </clipPath>
    <clipPath id="clip-path-3" transform="translate(-10.87 -7.49)">
      <rect class="cls-1" x="150.62" y="7.49" width="88.99" height="34.71"></rect>
    </clipPath>
  </defs>
  <title>Abbeylogo-negative</title>
  <g class="cls-2">
    <path class="cls-3" d="M247.14,174.3h2.45V165c1.06.67,2.13,1.39,3.19,2.16s2.09,1.56,3.07,2.36,1.88,1.61,2.73,2.42a28.55,28.55,0,0,1,2.19,2.33h3.12a40.31,40.31,0,0,0-4.53-4.88,55,55,0,0,0-6.84-5.36,10,10,0,0,0,1.06-.63l1.78-1.14,2.19-1.43c.78-.51,1.55-1,2.29-1.52l2.08-1.43c.64-.44,1.15-.81,1.52-1.11a1.75,1.75,0,0,0-.54-.52,1.67,1.67,0,0,0-1-.33,2.79,2.79,0,0,0-1.23.26c-.34.17-.69.37-1,.59-1.14.79-2.27,1.56-3.4,2.3s-2.15,1.41-3.08,2-1.71,1.09-2.36,1.48-1.05.64-1.22.74V150.81a4.36,4.36,0,0,0-.47-.17,2.32,2.32,0,0,0-.65-.09,1.16,1.16,0,0,0-1.33,1.26Zm-3.49,0v-11a8.24,8.24,0,0,0-.6-3.19,6.89,6.89,0,0,0-1.71-2.49,7.69,7.69,0,0,0-2.73-1.61,10.53,10.53,0,0,0-3.62-.58,10.38,10.38,0,0,0-3.6.58,7.69,7.69,0,0,0-2.71,1.61,7,7,0,0,0-1.71,2.49,8.24,8.24,0,0,0-.59,3.19v11h2.45V164.05a7,7,0,0,1,1.52-4.8,5.92,5.92,0,0,1,4.64-1.7,6,6,0,0,1,4.66,1.7,6.91,6.91,0,0,1,1.54,4.8V174.3Zm-23.18-1.93c-.27.07-.8.18-1.6.31a22.5,22.5,0,0,1-3.6.21,10.74,10.74,0,0,1-5.25-.95,3.19,3.19,0,0,1-1.58-2.95,4.06,4.06,0,0,1,.42-1.94,3.25,3.25,0,0,1,1.23-1.24,5.51,5.51,0,0,1,1.91-.65,15.67,15.67,0,0,1,2.49-.19,29.25,29.25,0,0,1,4.22.23l1.76.29Zm-4.27-14.66a5.75,5.75,0,0,1,2.17.89,4.78,4.78,0,0,1,1.52,1.77,6,6,0,0,1,.58,2.82v.22l-1-.11c-.43-.05-.92-.09-1.45-.13l-1.69-.11c-.59,0-1.16-.05-1.71-.05a16.45,16.45,0,0,0-4.19.44,7.31,7.31,0,0,0-2.66,1.23,4.21,4.21,0,0,0-1.39,1.87A6.75,6.75,0,0,0,206,169a6.89,6.89,0,0,0,.33,2.08,4.14,4.14,0,0,0,1.34,1.87,7.7,7.7,0,0,0,2.8,1.36,18.08,18.08,0,0,0,4.78.52,44.7,44.7,0,0,0,4.58-.21c1.35-.13,2.39-.26,3.1-.39v-11.1c0-2.7-.81-4.66-2.45-5.87a11.34,11.34,0,0,0-6.87-1.82,12.43,12.43,0,0,0-3.41.37,5.49,5.49,0,0,0-1.64.67,2.24,2.24,0,0,0-.5.52,1.19,1.19,0,0,0-.2.71,1.37,1.37,0,0,0,.2.74,2,2,0,0,0,.46.52,6.3,6.3,0,0,1,1.79-1,9.34,9.34,0,0,1,3.38-.52,13.32,13.32,0,0,1,2.56.24m-17.73,1Q197,160,193.69,160h-8.43v-9c.2,0,.86-.12,2-.22s2.62-.15,4.47-.15q4.32,0,6.24,1.24a3.9,3.9,0,0,1,1.94,3.44,4.39,4.39,0,0,1-1.43,3.41m1.93,10.81a4.1,4.1,0,0,1-1.6,1.66,8.62,8.62,0,0,1-2.86,1,24.55,24.55,0,0,1-4.25.32c-1.86,0-3.31,0-4.37-.15s-1.74-.17-2.06-.22v-9.88h9.14a10.63,10.63,0,0,1,3,.37,5.33,5.33,0,0,1,2,1,4,4,0,0,1,1.12,1.58,5.49,5.49,0,0,1,.35,2,5.24,5.24,0,0,1-.5,2.34m2.91-4.32a5.88,5.88,0,0,0-.83-1.8,6.29,6.29,0,0,0-1.47-1.49,7.57,7.57,0,0,0-2.15-1.06,5.86,5.86,0,0,0,1.24-.67,5.26,5.26,0,0,0,1.19-1.13,6.21,6.21,0,0,0,.89-1.61,6,6,0,0,0,.35-2.12,7.46,7.46,0,0,0-.42-2.44,5.25,5.25,0,0,0-1.6-2.23,8.91,8.91,0,0,0-3.27-1.61,19.85,19.85,0,0,0-5.44-.61c-2.13,0-3.83,0-5.09.11a22.64,22.64,0,0,0-2.67.26,1.74,1.74,0,0,0-.95.46,1.38,1.38,0,0,0-.35,1v24l1.09.09c.53,0,1.2.07,2,.11s1.72.08,2.75.11,2.13.06,3.32.06a23,23,0,0,0,6-.63,9.63,9.63,0,0,0,3.55-1.68,5.25,5.25,0,0,0,1.71-2.38,8.84,8.84,0,0,0,.44-2.75,7.49,7.49,0,0,0-.26-2M157.17,162a7.46,7.46,0,0,1,1.41-2.37,6.41,6.41,0,0,1,2.25-1.66,7.42,7.42,0,0,1,3.08-.61,8.85,8.85,0,0,1,1.87.19,5.11,5.11,0,0,1,1.64.61,3.28,3.28,0,0,1,1.15,1.13A3.36,3.36,0,0,1,169,161a3,3,0,0,1-1.69,2.71,9.06,9.06,0,0,1-2.59.83,21.64,21.64,0,0,1-4.15.32l-2,0q-.95,0-2-.09a8.23,8.23,0,0,1,.54-2.79m1.59,4.81c.66,0,1.38,0,2.18,0a24.93,24.93,0,0,0,5.1-.43,10,10,0,0,0,3.23-1.18,4.47,4.47,0,0,0,1.71-1.79,4.94,4.94,0,0,0,.5-2.24,5.65,5.65,0,0,0-.46-2.29,5,5,0,0,0-1.39-1.84,6.53,6.53,0,0,0-2.32-1.2,12,12,0,0,0-7.28.29,9.18,9.18,0,0,0-5.26,5.2,10.88,10.88,0,0,0-.74,4.07,9.85,9.85,0,0,0,.78,4.05,8.43,8.43,0,0,0,2.13,2.93,9.07,9.07,0,0,0,3.16,1.8,11.8,11.8,0,0,0,3.84.62,13.26,13.26,0,0,0,4.31-.71,10.39,10.39,0,0,0,1.45-.61c.4-.21.69-.38.89-.5l-1.07-1.79a16.24,16.24,0,0,1-2,.95,8.48,8.48,0,0,1-3.21.54,8.12,8.12,0,0,1-5.2-1.56,6.56,6.56,0,0,1-2.38-4.42c.72.05,1.41.08,2.06.09m-7-.8c0-.59,0-1.12,0-1.57s-.08-.86-.13-1.21a10.83,10.83,0,0,0-1.15-3.27,8.59,8.59,0,0,0-2.05-2.45,8.75,8.75,0,0,0-2.82-1.54,10.71,10.71,0,0,0-3.45-.54,10.18,10.18,0,0,0-4,.76,9.35,9.35,0,0,0-5.12,5.16,9.92,9.92,0,0,0-.72,3.77,10.82,10.82,0,0,0,.66,3.81,9.21,9.21,0,0,0,1.92,3.08,8.56,8.56,0,0,0,3.06,2.06,10.73,10.73,0,0,0,4.12.75,8.78,8.78,0,0,0,4.29-1,7.94,7.94,0,0,0,3-2.93v.89a9.9,9.9,0,0,1-.8,4.33,6.33,6.33,0,0,1-4.66,3.64,15.25,15.25,0,0,1-2.79.28,14.88,14.88,0,0,1-2.19-.15c-.67-.1-1.26-.21-1.78-.34a8,8,0,0,1-1.28-.39l-.73-.28-.66,2a25.22,25.22,0,0,0,2.41.76,17.3,17.3,0,0,0,4.49.47,13.83,13.83,0,0,0,4.15-.6,8.46,8.46,0,0,0,3.3-1.89,8.7,8.7,0,0,0,2.17-3.4,14.6,14.6,0,0,0,.78-5.07Zm-16.36-3.84a6.91,6.91,0,0,1,6.71-4.62,7.4,7.4,0,0,1,2.93.57,6.71,6.71,0,0,1,2.27,1.58,7.24,7.24,0,0,1,1.45,2.38,8.57,8.57,0,0,1,.52,3,8.7,8.7,0,0,1-.51,3,6.76,6.76,0,0,1-3.71,4,7,7,0,0,1-2.95.6,7.63,7.63,0,0,1-3-.56,6.58,6.58,0,0,1-2.27-1.56,6.87,6.87,0,0,1-1.45-2.41,9.31,9.31,0,0,1-.5-3.09,8.74,8.74,0,0,1,.5-3m-8.3,10.2c-.27.07-.8.18-1.59.31a22.73,22.73,0,0,1-3.61.21,10.74,10.74,0,0,1-5.25-.95,3.21,3.21,0,0,1-1.58-2.95,4,4,0,0,1,.43-1.94,3.16,3.16,0,0,1,1.22-1.24,5.5,5.5,0,0,1,1.92-.65,15.54,15.54,0,0,1,2.48-.19,29.15,29.15,0,0,1,4.22.23l1.76.29Zm-4.27-14.66a5.75,5.75,0,0,1,2.17.89,4.81,4.81,0,0,1,1.53,1.77,6.15,6.15,0,0,1,.57,2.82v.22l-1-.11c-.43-.05-.91-.09-1.45-.13l-1.69-.11c-.59,0-1.16-.05-1.71-.05a16.45,16.45,0,0,0-4.19.44,7.31,7.31,0,0,0-2.66,1.23,4.29,4.29,0,0,0-1.39,1.87,7,7,0,0,0-.41,2.44,6.61,6.61,0,0,0,.34,2.08,4,4,0,0,0,1.33,1.87,7.75,7.75,0,0,0,2.81,1.36,18,18,0,0,0,4.77.52,44.9,44.9,0,0,0,4.59-.21c1.35-.13,2.38-.26,3.1-.39v-11.1q0-4.05-2.45-5.87a11.39,11.39,0,0,0-6.88-1.82,12.43,12.43,0,0,0-3.41.37,5.61,5.61,0,0,0-1.64.67,2.47,2.47,0,0,0-.5.52,1.26,1.26,0,0,0-.2.71,1.47,1.47,0,0,0,.2.74,1.83,1.83,0,0,0,.47.52,6.07,6.07,0,0,1,1.78-1,9.37,9.37,0,0,1,3.38-.52,13.32,13.32,0,0,1,2.56.24M110.46,166c0-.59,0-1.12,0-1.57s-.08-.86-.13-1.21a10.56,10.56,0,0,0-1.15-3.27,8.72,8.72,0,0,0-2-2.45,8.9,8.9,0,0,0-2.83-1.54,10.66,10.66,0,0,0-3.45-.54,10.1,10.1,0,0,0-4,.76,9.32,9.32,0,0,0-5.13,5.16,9.92,9.92,0,0,0-.72,3.77,10.82,10.82,0,0,0,.66,3.81A9.21,9.21,0,0,0,93.55,172a8.56,8.56,0,0,0,3.06,2.06,10.73,10.73,0,0,0,4.12.75,8.78,8.78,0,0,0,4.29-1,7.94,7.94,0,0,0,3-2.93v.89a9.9,9.9,0,0,1-.8,4.33,6.33,6.33,0,0,1-4.66,3.64,15.15,15.15,0,0,1-2.78.28,14.92,14.92,0,0,1-2.2-.15c-.66-.1-1.26-.21-1.78-.34a8,8,0,0,1-1.28-.39l-.72-.28-.67,2a25.22,25.22,0,0,0,2.41.76,17.39,17.39,0,0,0,4.5.47,13.81,13.81,0,0,0,4.14-.6,8.46,8.46,0,0,0,3.3-1.89,8.7,8.7,0,0,0,2.17-3.4,14.6,14.6,0,0,0,.78-5.07ZM94.1,162.17a6.91,6.91,0,0,1,6.71-4.62,7.4,7.4,0,0,1,2.93.57A6.71,6.71,0,0,1,106,159.7a7.24,7.24,0,0,1,1.45,2.38,8.57,8.57,0,0,1,.52,3,8.7,8.7,0,0,1-.51,3,6.92,6.92,0,0,1-1.44,2.42,6.84,6.84,0,0,1-2.27,1.61,7,7,0,0,1-3,.6,7.63,7.63,0,0,1-3-.56,6.58,6.58,0,0,1-2.27-1.56,6.87,6.87,0,0,1-1.45-2.41,9.31,9.31,0,0,1-.5-3.09,8.74,8.74,0,0,1,.5-3m-3.58-4a4.72,4.72,0,0,0,.15-.45,2,2,0,0,0,.07-.55A1.14,1.14,0,0,0,89.37,156H82.83v-4.72a2.89,2.89,0,0,0-.46-.16,2.05,2.05,0,0,0-.65-.1,1.18,1.18,0,0,0-1.34,1.27v17.12a6.7,6.7,0,0,0,.35,2.19,4.78,4.78,0,0,0,1.06,1.73,4.85,4.85,0,0,0,1.79,1.13,7.23,7.23,0,0,0,2.56.41,10.28,10.28,0,0,0,1.91-.17,7.68,7.68,0,0,0,1.52-.43,7.94,7.94,0,0,0,1.12-.52,5,5,0,0,0,.69-.44l-1.08-1.6a8.78,8.78,0,0,1-1.49.71,5.87,5.87,0,0,1-2.08.37,4.41,4.41,0,0,1-2.82-.86A3.52,3.52,0,0,1,82.83,169V158.18Zm-13.18-2.3a10.64,10.64,0,0,0-3.35-.45,8.13,8.13,0,0,0-5.64,1.76,6.42,6.42,0,0,0-1.93,5V174.3h2.45v-11a10.64,10.64,0,0,1,.26-2.45,4.12,4.12,0,0,1,.89-1.8,3.87,3.87,0,0,1,1.65-1.1,7.47,7.47,0,0,1,2.55-.37,8.89,8.89,0,0,1,2.26.26,9.13,9.13,0,0,1,1.6.56,5.69,5.69,0,0,0,.39-.48,1.15,1.15,0,0,0,.2-.67c0-.65-.44-1.12-1.33-1.41m-14.41,5.44a9.78,9.78,0,0,0-2.06-3.09,9.52,9.52,0,0,0-3.14-2.06,11,11,0,0,0-7.95,0A9.73,9.73,0,0,0,46.64,172a9.89,9.89,0,0,0,3.14,2.08,10.78,10.78,0,0,0,7.95,0A9.89,9.89,0,0,0,60.87,172a9.78,9.78,0,0,0,2.06-3.09,10,10,0,0,0,0-7.57m-2.42,6.76A7.06,7.06,0,0,1,59,170.49a7.19,7.19,0,0,1-2.31,1.62,7.77,7.77,0,0,1-5.94,0,7,7,0,0,1-2.28-1.62A7.58,7.58,0,0,1,47,168.08a8.14,8.14,0,0,1-.54-3,8.66,8.66,0,0,1,.52-3,7.34,7.34,0,0,1,1.49-2.43,6.69,6.69,0,0,1,2.3-1.61,7.89,7.89,0,0,1,5.94,0A6.73,6.73,0,0,1,59,159.7a7.15,7.15,0,0,1,1.48,2.43,8.43,8.43,0,0,1,.52,3,8.34,8.34,0,0,1-.52,3m-34.78-3.89c-.51-1-1.06-2.11-1.67-3.3s-1.23-2.42-1.86-3.68-1.22-2.42-1.76-3.49-1-2-1.39-2.71-.63-1.2-.73-1.37a2.51,2.51,0,0,0-.74-.56,2.9,2.9,0,0,0-1.34-.26,1.85,1.85,0,0,0-1.2.44,1.75,1.75,0,0,0-.62,1.23q-.33,5.87-.67,11.9c-.22,4-.43,8-.63,11.91h2.45c.08-1.76.16-3.6.26-5.52s.21-3.85.32-5.79.22-3.88.32-5.8.19-3.75.29-5.51c.4.74.86,1.62,1.39,2.64s1.09,2.08,1.68,3.21S21,159.8,21.57,161s1.13,2.26,1.65,3.29l1.4,2.75c.41.8.72,1.43.94,1.87H28.2q.33-.7,1.08-2.13l1.65-3.21,1.9-3.72,1.83-3.62,1.49-2.95.85-1.71c0,.74.11,1.71.17,2.92s.14,2.51.22,3.93.18,2.91.26,4.44.17,3,.24,4.48.15,2.78.21,4,.12,2.21.17,3h2.45c-.23-4.24-.45-8.4-.69-12.48s-.48-8.26-.72-12.52a4.83,4.83,0,0,0-.54-.3,2.82,2.82,0,0,0-1.14-.18,2.36,2.36,0,0,0-1.69.52,5.24,5.24,0,0,0-.87,1.11c-.17.32-.46.86-.85,1.62s-.85,1.64-1.36,2.65L31.25,158l-1.67,3.36-1.53,3-1.11,2.21c-.3-.57-.7-1.36-1.21-2.38" transform="translate(-10.87 -7.49)"></path>
    <path class="cls-4" d="M219,110.18a18.27,18.27,0,0,0,1.39,7.34,15,15,0,0,0,3.84,5.36,16.8,16.8,0,0,0,5.91,3.29,23.84,23.84,0,0,0,7.51,1.14,20.49,20.49,0,0,0,7.89-1.48,11.48,11.48,0,0,0,5.27-3.92,23.63,23.63,0,0,1-1,7.3,11.51,11.51,0,0,1-2.79,4.68,10,10,0,0,1-4.43,2.49,22.22,22.22,0,0,1-5.9.72,42.11,42.11,0,0,1-4.77-.26c-1.49-.17-2.83-.38-4-.63a29,29,0,0,1-3-.8c-.84-.28-1.46-.51-1.85-.68-.4,1.18-.79,2.38-1.18,3.59s-.82,2.4-1.27,3.59c.39.16,1.07.4,2,.71s2.18.64,3.67,1,3.19.64,5.1.89a49,49,0,0,0,6.33.38,32.57,32.57,0,0,0,9.2-1.22,17.19,17.19,0,0,0,11.64-10.81,28.38,28.38,0,0,0,1.61-10.16v-37c-.29-.11-.86-.3-1.73-.55a10.3,10.3,0,0,0-2.83-.38,5.72,5.72,0,0,0-3.71,1.1,4.08,4.08,0,0,0-1.35,3.37v18.06q0,5.82-3,8.82a10.89,10.89,0,0,1-8.1,3q-5.56,0-8.23-3a11.41,11.41,0,0,1-2.65-7.93V85.71c-.29-.11-.86-.3-1.73-.55a10.3,10.3,0,0,0-2.83-.38,5.72,5.72,0,0,0-3.71,1.1A4.08,4.08,0,0,0,219,89.25Zm-34.89-11A13.22,13.22,0,0,1,186.64,95a11.81,11.81,0,0,1,4-2.91,12.93,12.93,0,0,1,5.49-1.1,11.84,11.84,0,0,1,6.37,1.61A5.3,5.3,0,0,1,205,97.44a6.07,6.07,0,0,1-.51,2.44,4.69,4.69,0,0,1-2.11,2.11,15,15,0,0,1-4.47,1.52,38,38,0,0,1-7.51.59h-3.54c-1.18,0-2.42,0-3.71-.08a14.93,14.93,0,0,1,1-4.81m25.1,18.06-1.56.76a27.12,27.12,0,0,1-2.53,1,23.11,23.11,0,0,1-7.39,1.18q-6.5,0-10-2.66a10.48,10.48,0,0,1-4.17-7c1.12.06,2.18.1,3.16.13s2,0,3.17,0a61,61,0,0,0,12-1,23.36,23.36,0,0,0,7.51-2.7A9.66,9.66,0,0,0,213.3,103a12.69,12.69,0,0,0-3.59-15.19,18,18,0,0,0-5.69-3,24.26,24.26,0,0,0-7.77-1.14,24.86,24.86,0,0,0-9.15,1.64,21.86,21.86,0,0,0-7.26,4.64A21.33,21.33,0,0,0,175,97.06a24,24,0,0,0-1.73,9.24,23.45,23.45,0,0,0,1.77,9.4,20.07,20.07,0,0,0,4.86,6.92,20.45,20.45,0,0,0,7.17,4.27,26.66,26.66,0,0,0,8.82,1.43,35,35,0,0,0,6.2-.51,39.91,39.91,0,0,0,5-1.18,22,22,0,0,0,3.58-1.43c1-.51,1.66-.9,2.11-1.18Zm-68.05,1.35a12.16,12.16,0,0,1-6.84-7.09,15.41,15.41,0,0,1-1-5.57,14.91,14.91,0,0,1,1-5.4A13.76,13.76,0,0,1,137,96.17a11.83,11.83,0,0,1,4.09-2.91,13.25,13.25,0,0,1,5.36-1.06,13,13,0,0,1,5.27,1.06,12.65,12.65,0,0,1,4.14,2.87,12.51,12.51,0,0,1,2.66,4.34,16.06,16.06,0,0,1,.92,5.49,15.65,15.65,0,0,1-.92,5.44,12.38,12.38,0,0,1-6.8,7.17,12.86,12.86,0,0,1-5.27,1.06,13.52,13.52,0,0,1-5.27-1m-17.34-14.69a31,31,0,0,0,1.68,10.72,20.68,20.68,0,0,0,4.73,7.59,19.36,19.36,0,0,0,7.21,4.56,26.71,26.71,0,0,0,9.16,1.52,24.08,24.08,0,0,0,9.15-1.69A22,22,0,0,0,163,122a20.59,20.59,0,0,0,4.72-7.09,23.29,23.29,0,0,0,1.69-8.94,24,24,0,0,0-1.64-9,21.71,21.71,0,0,0-4.56-7.09,20.57,20.57,0,0,0-6.84-4.64,22,22,0,0,0-8.56-1.64,18.37,18.37,0,0,0-8.52,1.9,17.08,17.08,0,0,0-5.83,4.6V65.88c-.28-.11-.84-.3-1.68-.55A9.8,9.8,0,0,0,129,65a5.84,5.84,0,0,0-3.79,1.1,4,4,0,0,0-1.35,3.37ZM91,118.62a12.7,12.7,0,0,1-4.14-2.79,12.49,12.49,0,0,1-2.7-4.3,15.62,15.62,0,0,1-1-5.57,15.12,15.12,0,0,1,1-5.4,13.94,13.94,0,0,1,2.66-4.39,11.92,11.92,0,0,1,4.09-2.91,13.28,13.28,0,0,1,5.36-1.06,13.1,13.1,0,0,1,5.28,1.06,12.32,12.32,0,0,1,6.79,7.21,15.82,15.82,0,0,1,.93,5.49,15.42,15.42,0,0,1-.93,5.44,12.4,12.4,0,0,1-6.79,7.17,12.94,12.94,0,0,1-5.28,1.06,13.52,13.52,0,0,1-5.27-1M73.65,103.93a30.73,30.73,0,0,0,1.69,10.72,20.66,20.66,0,0,0,4.72,7.59,19.4,19.4,0,0,0,7.22,4.56,26.62,26.62,0,0,0,9.15,1.52,24.16,24.16,0,0,0,9.16-1.69A22,22,0,0,0,112.8,122a20.62,20.62,0,0,0,4.73-7.09,23.48,23.48,0,0,0,1.68-8.94,23.85,23.85,0,0,0-1.64-9A21.71,21.71,0,0,0,113,89.88a20.63,20.63,0,0,0-6.83-4.64,22.07,22.07,0,0,0-8.57-1.64,18.4,18.4,0,0,0-8.52,1.9,16.94,16.94,0,0,0-5.82,4.6V65.88c-.28-.11-.85-.3-1.69-.55A9.73,9.73,0,0,0,78.8,65a5.87,5.87,0,0,0-3.8,1.1,4.08,4.08,0,0,0-1.35,3.37Zm-43.37-.76q1.26-3.28,2.7-6.75c1-2.3,1.91-4.57,2.87-6.79s1.88-4.33,2.78-6.33,1.72-3.78,2.45-5.36q.75,1.53,2.07,4.48T45.93,89c1,2.39,2,4.83,3,7.34s1.91,4.79,2.7,6.87Zm-9.28,24c.61-1.74,1.42-3.93,2.4-6.54s2.1-5.47,3.33-8.57H55c.45,1.13,1,2.42,1.52,3.89s1.11,2.91,1.65,4.34,1,2.77,1.47,4,.82,2.19,1.1,2.87H71.88q-.67-1.86-2.37-6.2t-3.92-10q-2.24-5.61-4.85-11.9T55.63,87Q53.14,81.23,51,76.59t-3.5-7a4.57,4.57,0,0,0-.63-.38,14.85,14.85,0,0,0-1.35-.63A12,12,0,0,0,43.65,68a9.1,9.1,0,0,0-2.15-.26A8.56,8.56,0,0,0,36.61,69a10.8,10.8,0,0,0-3.46,4.69q-3,6.75-6.12,13.83t-6,14Q18.22,108.4,15.6,115t-4.73,12.19Z" transform="translate(-10.87 -7.49)" style="fill: rgb(0, 38, 104);"></path>
  </g>
  <g class="cls-5">
    <path class="cls-4" d="M192.59,30.1h-.2a4.9,4.9,0,0,0-2.28.62l-37,20.8a4.84,4.84,0,0,0-2.47,4.11v.25a4.71,4.71,0,0,0,.62,2.25A4.86,4.86,0,0,0,157.85,60c10.8-6.07,32.77-18.44,33.4-18.69a2.89,2.89,0,0,1,1.33-.31,2.36,2.36,0,0,1,1.17.28c.59.32,32.79,18.87,32.79,18.87a4.88,4.88,0,0,0,2.29.64h.25a4.85,4.85,0,0,0,4.09-2.43,5,5,0,0,0,.64-2.36v-.12a4.85,4.85,0,0,0-2.43-4.15l-36.47-21a4.83,4.83,0,0,0-2.32-.65" transform="translate(-10.87 -7.49)" style="fill: rgb(0, 38, 104);"></path>
  </g>
  <g class="cls-6">
    <path class="cls-3" d="M192.59,7.49h-.2a4.79,4.79,0,0,0-2.28.62l-37,20.8A4.84,4.84,0,0,0,150.62,33v.25a4.77,4.77,0,0,0,.62,2.25,4.86,4.86,0,0,0,6.61,1.85c10.8-6.06,32.77-18.43,33.4-18.68a2.9,2.9,0,0,1,1.33-.32,2.47,2.47,0,0,1,1.17.28l32.79,18.87a4.78,4.78,0,0,0,2.29.65h.25a4.84,4.84,0,0,0,4.09-2.44,4.89,4.89,0,0,0,.64-2.36v-.11a4.87,4.87,0,0,0-2.43-4.16l-36.47-21a4.82,4.82,0,0,0-2.32-.64" transform="translate(-10.87 -7.49)"></path>
  </g>
</svg>