<?xml version="1.0" encoding="UTF-8"?>
<svg width="474px" height="72px" viewBox="0 0 474 72" version="1.1" xmlns="http://www.w3.org/2000/svg" xmlns:xlink="http://www.w3.org/1999/xlink">
    <!-- Generator: Sketch 53 (72520) - https://sketchapp.com -->
    <title>Group</title>
    <desc>Created with Sketch.</desc>
    <g id="Website" stroke="none" stroke-width="1" fill="none" fill-rule="evenodd">
        <g id="Group">
            <path d="M101.9292,18.5089 L108.6342,18.5089 L122.0912,53.4759 L115.1672,53.4759 L112.4402,46.2689 L98.1062,46.2689 L95.3142,53.4759 L88.3902,53.4759 L101.9292,18.5089 Z M105.2892,27.8029 L100.5492,39.8399 L110.0052,39.8399 L105.2892,27.8029 Z M123.4632,27.6159 L125.7522,27.6159 C125.7682,24.2309 125.8252,22.2349 125.9142,21.6179 C126.0932,20.1969 126.6862,19.0689 127.7002,18.2409 C128.7232,17.4129 130.1592,16.9999 132.0182,16.9999 C133.3652,16.9999 134.8752,17.3069 136.5642,17.9249 L136.5642,22.8589 C135.6302,22.5909 134.8672,22.4539 134.2662,22.4539 C133.5112,22.4539 132.9602,22.6079 132.6112,22.9249 C132.3592,23.1599 132.2302,23.6549 132.2302,24.3939 L132.2052,27.6159 L136.3202,27.6159 L136.3202,33.1189 L132.2302,33.1189 L132.2302,53.4759 L125.7522,53.4759 L125.7522,33.1189 L123.4632,33.1189 L123.4632,27.6159 Z M138.6502,27.6159 L144.2502,27.6159 L144.2502,30.9029 C144.8512,29.6209 145.6462,28.6469 146.6372,27.9809 C147.6352,27.3159 148.7232,26.9829 149.8992,26.9829 C150.7352,26.9829 151.6122,27.2019 152.5292,27.6489 L150.5172,33.2489 C149.7622,32.8669 149.1372,32.6809 148.6502,32.6809 C147.6592,32.6809 146.8152,33.2979 146.1332,34.5319 C145.4432,35.7649 145.1022,38.1849 145.1022,41.7879 L145.1262,43.0459 L145.1262,53.4759 L138.6502,53.4759 L138.6502,27.6159 Z M158.3092,16.9999 C159.4452,16.9999 160.4192,17.4129 161.2312,18.2329 C162.0502,19.0529 162.4562,20.0429 162.4562,21.2119 C162.4562,22.3649 162.0502,23.3469 161.2472,24.1579 C160.4432,24.9699 159.4772,25.3759 158.3492,25.3759 C157.1962,25.3759 156.2142,24.9619 155.4032,24.1339 C154.5832,23.3059 154.1772,22.2989 154.1772,21.1149 C154.1772,19.9779 154.5832,19.0119 155.3872,18.2079 C156.1902,17.4049 157.1642,16.9999 158.3092,16.9999 L158.3092,16.9999 Z M155.0542,53.4759 L161.5312,53.4759 L161.5312,27.6159 L155.0542,27.6159 L155.0542,53.4759 Z M192.7322,32.8759 L187.3342,35.8469 C186.3202,34.7829 185.3212,34.0529 184.3312,33.6379 C183.3412,33.2249 182.1802,33.0219 180.8492,33.0219 C178.4222,33.0219 176.4582,33.7439 174.9652,35.1809 C173.4632,36.6259 172.7162,38.4679 172.7162,40.7249 C172.7162,42.9159 173.4382,44.7019 174.8752,46.0899 C176.3202,47.4779 178.2112,48.1679 180.5572,48.1679 C183.4552,48.1679 185.7122,47.1779 187.3342,45.1969 L192.4402,48.7039 C189.6642,52.3079 185.7522,54.1089 180.6952,54.1089 C176.1422,54.1089 172.5782,52.7619 170.0052,50.0749 C167.4322,47.3879 166.1422,44.2469 166.1422,40.6429 C166.1422,38.1429 166.7662,35.8469 168.0162,33.7439 C169.2742,31.6419 171.0202,29.9859 173.2682,28.7849 C175.5082,27.5829 178.0162,26.9829 180.7922,26.9829 C183.3652,26.9829 185.6712,27.4949 187.7162,28.5169 C189.7612,29.5389 191.4342,30.9929 192.7322,32.8759 L192.7322,32.8759 Z M217.7242,27.6159 L224.2012,27.6159 L224.2012,53.4759 L217.7242,53.4759 L217.7242,50.7249 C216.4582,51.9259 215.1832,52.7869 213.9092,53.3139 C212.6352,53.8409 211.2472,54.1089 209.7622,54.1089 C206.4092,54.1089 203.5202,52.8189 201.0762,50.2299 C198.6332,47.6489 197.4152,44.4339 197.4152,40.5949 C197.4152,36.6089 198.6012,33.3459 200.9632,30.7979 C203.3252,28.2569 206.1902,26.9829 209.5672,26.9829 C211.1262,26.9829 212.5782,27.2749 213.9412,27.8509 C215.3052,28.4279 216.5642,29.3039 217.7242,30.4569 L217.7242,27.6159 Z M210.8982,32.9249 C208.8852,32.9249 207.2132,33.6299 205.8902,35.0509 C204.5582,36.4639 203.8932,38.2819 203.8932,40.4969 C203.8932,42.7299 204.5672,44.5639 205.9222,46.0089 C207.2772,47.4449 208.9422,48.1679 210.9222,48.1679 C212.9592,48.1679 214.6562,47.4619 215.9952,46.0409 C217.3432,44.6289 218.0162,42.7699 218.0162,40.4729 C218.0162,38.2249 217.3432,36.4059 215.9952,35.0109 C214.6562,33.6219 212.9512,32.9249 210.8982,32.9249 L210.8982,32.9249 Z M245.0452,18.5089 L252.1152,18.5089 C255.9382,18.5089 258.6902,18.8579 260.3782,19.5639 C262.0662,20.2699 263.4052,21.4149 264.3802,22.9889 C265.3542,24.5639 265.8412,26.4549 265.8412,28.6639 C265.8412,31.1059 265.1992,33.1349 263.9172,34.7509 C262.6432,36.3659 260.9062,37.4939 258.7052,38.1269 C257.4142,38.4929 255.0702,38.6709 251.6692,38.6709 L251.6692,53.4759 L245.0452,53.4759 L245.0452,18.5089 Z M251.6692,32.1939 L253.8032,32.1939 C255.4832,32.1939 256.6442,32.0719 257.3022,31.8359 C257.9602,31.5929 258.4712,31.2039 258.8522,30.6519 C259.2262,30.0999 259.4112,29.4339 259.4112,28.6469 C259.4112,27.2909 258.8842,26.3009 257.8282,25.6839 C257.0662,25.2209 255.6382,24.9859 253.5602,24.9859 L251.6692,24.9859 L251.6692,32.1939 Z M270.1272,27.6159 L275.7272,27.6159 L275.7272,30.9029 C276.3272,29.6209 277.1232,28.6469 278.1142,27.9809 C279.1122,27.3159 280.1992,26.9829 281.3772,26.9829 C282.2122,26.9829 283.0892,27.2019 284.0062,27.6489 L281.9922,33.2489 C281.2382,32.8669 280.6142,32.6809 280.1262,32.6809 C279.1362,32.6809 278.2922,33.2979 277.6102,34.5319 C276.9202,35.7649 276.5782,38.1849 276.5782,41.7879 L276.6042,43.0459 L276.6042,53.4759 L270.1272,53.4759 L270.1272,27.6159 Z M287.2132,27.6159 L293.7862,27.6159 L293.7862,40.0509 C293.7862,42.4699 293.9582,44.1499 294.2892,45.0909 C294.6232,46.0329 295.1582,46.7639 295.8982,47.2909 C296.6362,47.8109 297.5532,48.0699 298.6332,48.0699 C299.7122,48.0699 300.6382,47.8109 301.3932,47.2989 C302.1482,46.7879 302.7082,46.0329 303.0732,45.0349 C303.3402,44.2879 303.4792,42.6969 303.4792,40.2619 L303.4792,27.6159 L309.9552,27.6159 L309.9552,38.5569 C309.9552,43.0699 309.5992,46.1549 308.8842,47.8189 C308.0162,49.8479 306.7252,51.3989 305.0292,52.4859 C303.3332,53.5659 301.1742,54.1089 298.5602,54.1089 C295.7192,54.1089 293.4302,53.4759 291.6772,52.2099 C289.9232,50.9439 288.6902,49.1819 287.9762,46.9179 C287.4642,45.3509 287.2132,42.5029 287.2132,38.3709 L287.2132,27.6159 Z M335.5802,17.6319 L342.0582,17.6319 L342.0582,53.4759 L335.5802,53.4759 L335.5802,50.7249 C334.3142,51.9259 333.0412,52.7869 331.7662,53.3139 C330.4912,53.8409 329.1042,54.1089 327.6172,54.1089 C324.2662,54.1089 321.3762,52.8189 318.9332,50.2299 C316.4902,47.6489 315.2732,44.4339 315.2732,40.5949 C315.2732,36.6089 316.4582,33.3459 318.8192,30.7979 C321.1812,28.2569 324.0472,26.9829 327.4232,26.9829 C328.9822,26.9829 330.4342,27.2749 331.7992,27.8509 C333.1612,28.4359 334.4202,29.3119 335.5802,30.4729 L335.5802,17.6319 Z M328.7552,32.9249 C326.7412,32.9249 325.0692,33.6299 323.7462,35.0509 C322.4142,36.4639 321.7502,38.2819 321.7502,40.4969 C321.7502,42.7299 322.4232,44.5639 323.7792,46.0089 C325.1342,47.4449 326.7992,48.1679 328.7792,48.1679 C330.8162,48.1679 332.5132,47.4619 333.8522,46.0409 C335.1992,44.6289 335.8732,42.7699 335.8732,40.4729 C335.8732,38.2249 335.1992,36.4059 333.8522,35.0109 C332.5132,33.6219 330.8082,32.9249 328.7552,32.9249 L328.7552,32.9249 Z M374.4772,42.3719 L353.6572,42.3719 C353.9572,44.2159 354.7612,45.6839 356.0592,46.7799 C357.3582,47.8679 359.0222,48.4109 361.0342,48.4109 C363.4532,48.4109 365.5242,47.5589 367.2612,45.8549 L372.6992,48.4279 C371.3432,50.3589 369.7122,51.7879 367.8212,52.7209 C365.9212,53.6459 363.6732,54.1089 361.0672,54.1089 C357.0262,54.1089 353.7302,52.8349 351.1902,50.2779 C348.6492,47.7299 347.3752,44.5319 347.3752,40.6919 C347.3752,36.7559 348.6492,33.4839 351.1902,30.8869 C353.7302,28.2809 356.9112,26.9829 360.7512,26.9829 C364.8172,26.9829 368.1292,28.2809 370.6782,30.8709 C373.2272,33.4689 374.5012,36.8849 374.5012,41.1459 L374.4772,42.3719 Z M368.0242,37.3069 C367.5932,35.8949 366.7492,34.7429 365.4912,33.8579 C364.2252,32.9729 362.7642,32.5349 361.0922,32.5349 C359.2822,32.5349 357.6992,33.0299 356.3262,34.0279 C355.4752,34.6449 354.6802,35.7409 353.9492,37.3069 L368.0242,37.3069 Z M379.7692,27.6159 L386.2462,27.6159 L386.2462,30.2779 C387.7152,29.0449 389.0552,28.1919 390.2482,27.7049 C391.4412,27.2259 392.6672,26.9829 393.9172,26.9829 C396.4812,26.9829 398.6642,27.8759 400.4502,29.6609 C401.9512,31.1879 402.7072,33.4359 402.7072,36.4059 L402.7072,53.4759 L396.2792,53.4759 L396.2792,42.1689 C396.2792,39.0849 396.1412,37.0399 395.8652,36.0329 C395.5892,35.0189 395.1022,34.2479 394.4202,33.7199 C393.7302,33.1919 392.8782,32.9249 391.8702,32.9249 C390.5562,32.9249 389.4282,33.3619 388.4862,34.2389 C387.5452,35.1159 386.8952,36.3329 386.5302,37.8759 C386.3442,38.6869 386.2462,40.4329 386.2462,43.1189 L386.2462,53.4759 L379.7692,53.4759 L379.7692,27.6159 Z M409.7772,18.0699 L416.2542,18.0699 L416.2542,27.6159 L420.1022,27.6159 L420.1022,33.2169 L416.2542,33.2169 L416.2542,53.4759 L409.7772,53.4759 L409.7772,33.2169 L406.4652,33.2169 L406.4652,27.6159 L409.7772,27.6159 L409.7772,18.0699 Z M426.1732,16.9999 C427.3092,16.9999 428.2832,17.4129 429.0952,18.2329 C429.9142,19.0529 430.3212,20.0429 430.3212,21.2119 C430.3212,22.3649 429.9142,23.3469 429.1112,24.1579 C428.3082,24.9699 427.3422,25.3759 426.2142,25.3759 C425.0612,25.3759 424.0782,24.9619 423.2682,24.1339 C422.4472,23.3059 422.0422,22.2989 422.0422,21.1149 C422.0422,19.9779 422.4472,19.0119 423.2512,18.2079 C424.0542,17.4049 425.0292,16.9999 426.1732,16.9999 L426.1732,16.9999 Z M422.9192,53.4759 L429.3972,53.4759 L429.3972,27.6159 L422.9192,27.6159 L422.9192,53.4759 Z M454.4102,27.6159 L460.8892,27.6159 L460.8892,53.4759 L454.4102,53.4759 L454.4102,50.7249 C453.1462,51.9259 451.8702,52.7869 450.5972,53.3139 C449.3232,53.8409 447.9342,54.1089 446.4492,54.1089 C443.0972,54.1089 440.2072,52.8189 437.7642,50.2299 C435.3212,47.6489 434.1032,44.4339 434.1032,40.5949 C434.1032,36.6089 435.2872,33.3459 437.6512,30.7979 C440.0122,28.2569 442.8782,26.9829 446.2542,26.9829 C447.8132,26.9829 449.2662,27.2749 450.6292,27.8509 C451.9922,28.4279 453.2512,29.3039 454.4102,30.4569 L454.4102,27.6159 Z M447.5852,32.9249 C445.5732,32.9249 443.9002,33.6299 442.5762,35.0509 C441.2452,36.4639 440.5792,38.2819 440.5792,40.4969 C440.5792,42.7299 441.2542,44.5639 442.6102,46.0089 C443.9652,47.4449 445.6292,48.1679 447.6102,48.1679 C449.6472,48.1679 451.3442,47.4619 452.6832,46.0409 C454.0302,44.6289 454.7032,42.7699 454.7032,40.4729 C454.7032,38.2249 454.0302,36.4059 452.6832,35.0109 C451.3442,33.6219 449.6392,32.9249 447.5852,32.9249 L447.5852,32.9249 Z M466.7412,53.4759 L473.2192,53.4759 L473.2192,17.6319 L466.7412,17.6319 L466.7412,53.4759 Z" id="text" fill="#53555A"></path>
            <g id="symbol">
                <path d="M17.715,39.99 L29.654,39.99 L29.654,0 L17.715,0 L17.715,39.99 Z M17.715,71.634 L29.654,71.634 L29.654,55.908 L17.715,55.908 L17.715,71.634 Z" id="Fill-1" fill="#E71615"></path>
                <path d="M41.979,15.725 L53.918,15.725 L53.918,0 L41.979,0 L41.979,15.725 Z M41.979,71.634 L53.918,71.634 L53.918,31.644 L41.979,31.644 L41.979,71.634 Z" id="Fill-2" fill="#E71615"></path>
                <path d="M55.908,53.918 L71.635,53.918 L71.635,41.979 L55.908,41.979 L55.908,53.918 Z M0,53.918 L39.991,53.918 L39.991,41.979 L0,41.979 L0,53.918 Z" id="Fill-3" fill="#53555A"></path>
                <path d="M31.644,29.654 L71.635,29.654 L71.635,17.715 L31.644,17.715 L31.644,29.654 Z M0,29.654 L15.725,29.654 L15.725,17.715 L0,17.715 L0,29.654 Z" id="Fill-4" fill="#53555A"></path>
            </g>
        </g>
    </g>
</svg>