<?xml version="1.0" encoding="UTF-8"?>
<svg xmlns="http://www.w3.org/2000/svg" xmlns:xlink="http://www.w3.org/1999/xlink" width="90px" height="94px" viewBox="0 0 90 94" version="1.1">
<g id="surface1">
<path style=" stroke:none;fill-rule:nonzero;fill:rgb(69.803922%,16.862745%,25.098039%);fill-opacity:1;" d="M 0 0.046875 L 90 0.046875 L 90 75.859375 C 60 75.859375 30 75.859375 0 75.859375 Z M 41.71875 4.34375 C 38.515625 4.679688 35.402344 5.792969 32.707031 7.550781 C 30.183594 9.199219 28.027344 11.40625 26.445312 13.96875 C 24.902344 16.457031 23.90625 19.285156 23.546875 22.1875 C 23.09375 25.753906 23.589844 29.433594 24.976562 32.75 C 26.75 37.027344 30.003906 40.667969 34.050781 42.921875 C 37.3125 44.753906 41.082031 45.664062 44.816406 45.542969 C 47.820312 45.445312 50.804688 44.691406 53.480469 43.324219 C 56.21875 41.933594 58.632812 39.917969 60.496094 37.476562 C 62.203125 35.246094 63.445312 32.660156 64.113281 29.929688 C 64.972656 26.445312 64.898438 22.738281 63.910156 19.289062 C 63.128906 16.558594 61.773438 13.992188 59.964844 11.800781 C 58.0625 9.492188 55.664062 7.597656 52.96875 6.292969 C 49.5 4.605469 45.550781 3.921875 41.71875 4.34375 Z M 12.414062 49.476562 C 12.542969 49.898438 12.605469 50.335938 12.601562 50.777344 C 12.636719 57.761719 12.667969 64.75 12.703125 71.734375 C 12.699219 72.46875 12.765625 73.21875 12.527344 73.925781 C 15.703125 73.925781 18.878906 73.929688 22.054688 73.933594 C 22.953125 73.925781 23.863281 73.972656 24.753906 73.804688 C 26.324219 73.535156 27.824219 72.730469 28.816406 71.476562 C 29.804688 70.238281 30.160156 68.613281 30.136719 67.058594 C 30.136719 65.585938 29.6875 64.0625 28.648438 62.984375 C 27.726562 61.976562 26.414062 61.445312 25.101562 61.160156 C 26.367188 60.792969 27.6875 60.296875 28.542969 59.242188 C 29.507812 58.070312 29.71875 56.472656 29.613281 55.003906 C 29.523438 53.589844 29.007812 52.152344 27.941406 51.183594 C 26.628906 49.972656 24.792969 49.511719 23.039062 49.488281 C 19.5 49.480469 15.957031 49.484375 12.414062 49.476562 Z M 33.382812 49.492188 C 33.503906 49.882812 33.578125 50.285156 33.574219 50.691406 C 33.597656 55.605469 33.621094 60.523438 33.644531 65.4375 C 33.652344 67.066406 33.96875 68.730469 34.792969 70.152344 C 35.644531 71.640625 37.03125 72.78125 38.589844 73.464844 C 40.15625 74.128906 41.875 74.320312 43.5625 74.339844 C 45.535156 74.347656 47.550781 74.121094 49.371094 73.316406 C 50.753906 72.710938 51.980469 71.710938 52.78125 70.421875 C 53.683594 68.996094 54.058594 67.292969 54.054688 65.621094 C 54.035156 60.671875 54.007812 55.726562 53.984375 50.78125 C 53.980469 50.351562 54.050781 49.921875 54.164062 49.507812 C 53.128906 49.507812 52.09375 49.507812 51.058594 49.503906 C 51.191406 49.945312 51.25 50.410156 51.246094 50.871094 C 51.269531 55.726562 51.296875 60.582031 51.3125 65.4375 C 51.3125 67.015625 50.914062 68.699219 49.769531 69.847656 C 48.679688 70.972656 47.066406 71.394531 45.542969 71.40625 C 44 71.445312 42.355469 71.046875 41.25 69.914062 C 40.179688 68.875 39.765625 67.34375 39.753906 65.890625 C 39.730469 61.183594 39.707031 56.476562 39.6875 51.765625 C 39.691406 51.007812 39.617188 50.230469 39.863281 49.496094 C 37.703125 49.496094 35.542969 49.496094 33.382812 49.492188 Z M 63.554688 49.515625 C 63.546875 49.882812 63.492188 50.253906 63.363281 50.601562 C 60.789062 57.984375 58.214844 65.363281 55.640625 72.746094 C 55.496094 73.179688 55.289062 73.585938 55.03125 73.957031 C 56.132812 73.953125 57.238281 73.957031 58.339844 73.960938 C 58.277344 73.328125 58.542969 72.742188 58.742188 72.15625 C 59.335938 70.441406 59.933594 68.726562 60.527344 67.011719 C 63.207031 67.011719 65.886719 67.011719 68.566406 67.015625 C 69.242188 68.960938 69.917969 70.910156 70.59375 72.855469 C 70.722656 73.210938 70.78125 73.589844 70.765625 73.96875 C 73.097656 73.96875 75.429688 73.96875 77.761719 73.976562 C 77.378906 73.503906 77.117188 72.953125 76.933594 72.378906 C 74.378906 65.394531 71.820312 58.410156 69.265625 51.425781 C 69.042969 50.800781 68.761719 50.1875 68.71875 49.519531 C 67 49.519531 65.277344 49.515625 63.554688 49.515625 Z M 63.554688 49.515625 "/>
<path style=" stroke:none;fill-rule:nonzero;fill:rgb(69.803922%,16.862745%,25.098039%);fill-opacity:1;" d="M 41.65625 7.222656 C 42.085938 6.53125 42.617188 5.855469 43.367188 5.488281 C 43.382812 7.191406 43.382812 8.894531 43.394531 10.59375 C 42.296875 10.617188 41.203125 10.695312 40.113281 10.835938 C 40.507812 9.585938 40.96875 8.347656 41.65625 7.222656 Z M 41.65625 7.222656 "/>
<path style=" stroke:none;fill-rule:nonzero;fill:rgb(69.803922%,16.862745%,25.098039%);fill-opacity:1;" d="M 44.53125 5.488281 C 45.210938 5.816406 45.71875 6.398438 46.128906 7.011719 C 46.902344 8.1875 47.414062 9.507812 47.84375 10.839844 C 46.753906 10.703125 45.652344 10.617188 44.550781 10.59375 C 44.546875 8.894531 44.53125 7.191406 44.53125 5.488281 Z M 44.53125 5.488281 "/>
<path style=" stroke:none;fill-rule:nonzero;fill:rgb(69.803922%,16.862745%,25.098039%);fill-opacity:1;" d="M 39.277344 6.660156 C 39.898438 6.304688 40.554688 6.019531 41.230469 5.796875 C 40.0625 7.339844 39.386719 9.183594 38.847656 11.027344 C 37.160156 11.328125 35.496094 11.777344 33.894531 12.394531 C 35.1875 10.089844 36.960938 7.984375 39.277344 6.660156 Z M 39.277344 6.660156 "/>
<path style=" stroke:none;fill-rule:nonzero;fill:rgb(69.803922%,16.862745%,25.098039%);fill-opacity:1;" d="M 46.6875 5.804688 C 49.945312 6.859375 52.421875 9.5 54.078125 12.410156 C 52.472656 11.792969 50.808594 11.339844 49.117188 11.035156 C 48.558594 9.195312 47.867188 7.347656 46.6875 5.804688 Z M 46.6875 5.804688 "/>
<path style=" stroke:none;fill-rule:nonzero;fill:rgb(69.803922%,16.862745%,25.098039%);fill-opacity:1;" d="M 30.15625 11.117188 C 32.183594 9.066406 34.679688 7.480469 37.394531 6.507812 C 35.285156 8.101562 33.65625 10.261719 32.472656 12.609375 C 32.355469 12.816406 32.300781 13.089844 32.070312 13.195312 C 29.585938 14.40625 27.296875 16.101562 25.636719 18.324219 C 26.589844 15.628906 28.140625 13.148438 30.15625 11.117188 Z M 30.15625 11.117188 "/>
<path style=" stroke:none;fill-rule:nonzero;fill:rgb(69.803922%,16.862745%,25.098039%);fill-opacity:1;" d="M 50.539062 6.523438 C 53.488281 7.585938 56.175781 9.359375 58.304688 11.660156 C 60.097656 13.589844 61.496094 15.882812 62.394531 18.359375 C 60.726562 16.152344 58.453125 14.460938 55.980469 13.25 C 55.839844 13.191406 55.722656 13.089844 55.667969 12.945312 C 54.449219 10.472656 52.753906 8.191406 50.539062 6.523438 Z M 50.539062 6.523438 "/>
<path style=" stroke:none;fill-rule:nonzero;fill:rgb(69.803922%,16.862745%,25.098039%);fill-opacity:1;" d="M 39.769531 12.050781 C 40.972656 11.875 42.1875 11.777344 43.398438 11.753906 C 43.410156 13.847656 43.421875 15.945312 43.429688 18.039062 C 41.847656 18.054688 40.265625 18.125 38.6875 18.253906 C 38.910156 16.167969 39.246094 14.085938 39.769531 12.050781 Z M 39.769531 12.050781 "/>
<path style=" stroke:none;fill-rule:nonzero;fill:rgb(69.803922%,16.862745%,25.098039%);fill-opacity:1;" d="M 44.558594 11.753906 C 45.777344 11.78125 46.996094 11.882812 48.199219 12.0625 C 48.742188 14.09375 49.097656 16.171875 49.339844 18.261719 C 47.761719 18.128906 46.175781 18.058594 44.589844 18.042969 C 44.578125 15.945312 44.566406 13.847656 44.558594 11.753906 Z M 44.558594 11.753906 "/>
<path style=" stroke:none;fill-rule:nonzero;fill:rgb(69.803922%,16.862745%,25.098039%);fill-opacity:1;" d="M 33.097656 13.984375 C 34.828125 13.199219 36.65625 12.632812 38.519531 12.269531 C 38.039062 14.273438 37.722656 16.316406 37.511719 18.367188 C 35.457031 18.585938 33.410156 18.910156 31.402344 19.402344 C 31.761719 17.539062 32.316406 15.714844 33.097656 13.984375 Z M 33.097656 13.984375 "/>
<path style=" stroke:none;fill-rule:nonzero;fill:rgb(69.803922%,16.862745%,25.098039%);fill-opacity:1;" d="M 49.453125 12.28125 C 51.324219 12.652344 53.15625 13.21875 54.894531 14.007812 C 55.6875 15.734375 56.261719 17.558594 56.640625 19.417969 C 54.628906 18.925781 52.578125 18.597656 50.519531 18.375 C 50.292969 16.324219 49.953125 14.28125 49.453125 12.28125 Z M 49.453125 12.28125 "/>
<path style=" stroke:none;fill-rule:nonzero;fill:rgb(69.803922%,16.862745%,25.098039%);fill-opacity:1;" d="M 29.433594 16.152344 C 30.089844 15.652344 30.785156 15.203125 31.503906 14.792969 C 30.898438 16.390625 30.453125 18.050781 30.164062 19.734375 C 28.324219 20.285156 26.472656 20.960938 24.9375 22.148438 C 25.707031 19.710938 27.417969 17.675781 29.433594 16.152344 Z M 29.433594 16.152344 "/>
<path style=" stroke:none;fill-rule:nonzero;fill:rgb(69.803922%,16.862745%,25.098039%);fill-opacity:1;" d="M 56.5 14.828125 C 58.824219 16.144531 60.949219 17.945312 62.28125 20.289062 C 62.621094 20.882812 62.890625 21.515625 63.113281 22.164062 C 61.570312 20.984375 59.722656 20.308594 57.882812 19.753906 C 57.578125 18.074219 57.117188 16.417969 56.5 14.828125 Z M 56.5 14.828125 "/>
<path style=" stroke:none;fill-rule:nonzero;fill:rgb(69.803922%,16.862745%,25.098039%);fill-opacity:1;" d="M 38.578125 19.429688 C 40.191406 19.285156 41.8125 19.210938 43.433594 19.199219 C 43.441406 20.902344 43.453125 22.601562 43.460938 24.304688 C 41.761719 24.300781 40.066406 24.304688 38.367188 24.300781 C 38.375 22.675781 38.445312 21.046875 38.578125 19.429688 Z M 38.578125 19.429688 "/>
<path style=" stroke:none;fill-rule:nonzero;fill:rgb(69.803922%,16.862745%,25.098039%);fill-opacity:1;" d="M 44.59375 19.199219 C 46.21875 19.214844 47.84375 19.292969 49.464844 19.4375 C 49.613281 21.054688 49.695312 22.683594 49.71875 24.308594 C 48.019531 24.308594 46.320312 24.308594 44.617188 24.304688 C 44.609375 22.605469 44.601562 20.902344 44.59375 19.199219 Z M 44.59375 19.199219 "/>
<path style=" stroke:none;fill-rule:nonzero;fill:rgb(69.803922%,16.862745%,25.098039%);fill-opacity:1;" d="M 31.1875 20.652344 C 33.226562 20.113281 35.3125 19.773438 37.40625 19.542969 C 37.28125 21.125 37.21875 22.710938 37.210938 24.300781 C 35.105469 24.300781 33.003906 24.296875 30.902344 24.296875 C 30.921875 23.078125 31.019531 21.859375 31.1875 20.652344 Z M 31.1875 20.652344 "/>
<path style=" stroke:none;fill-rule:nonzero;fill:rgb(69.803922%,16.862745%,25.098039%);fill-opacity:1;" d="M 50.636719 19.554688 C 52.734375 19.789062 54.820312 20.136719 56.863281 20.671875 C 57.046875 21.878906 57.152344 23.09375 57.183594 24.316406 C 55.082031 24.3125 52.980469 24.3125 50.878906 24.308594 C 50.855469 22.722656 50.777344 21.136719 50.636719 19.554688 Z M 50.636719 19.554688 "/>
<path style=" stroke:none;fill-rule:nonzero;fill:rgb(69.803922%,16.862745%,25.098039%);fill-opacity:1;" d="M 26.277344 22.609375 C 27.421875 21.890625 28.691406 21.40625 29.972656 21 C 29.839844 22.09375 29.761719 23.191406 29.742188 24.292969 C 28.039062 24.292969 26.335938 24.296875 24.632812 24.289062 C 24.976562 23.5625 25.617188 23.035156 26.277344 22.609375 Z M 26.277344 22.609375 "/>
<path style=" stroke:none;fill-rule:nonzero;fill:rgb(69.803922%,16.862745%,25.098039%);fill-opacity:1;" d="M 58.085938 21.023438 C 59.394531 21.445312 60.695312 21.9375 61.855469 22.6875 C 62.496094 23.101562 63.105469 23.617188 63.445312 24.316406 C 61.742188 24.320312 60.042969 24.316406 58.34375 24.316406 C 58.316406 23.214844 58.226562 22.117188 58.085938 21.023438 Z M 58.085938 21.023438 "/>
<path style=" stroke:none;fill-rule:nonzero;fill:rgb(69.803922%,16.862745%,25.098039%);fill-opacity:1;" d="M 24.648438 25.453125 C 26.347656 25.445312 28.046875 25.453125 29.75 25.453125 C 29.777344 26.550781 29.863281 27.644531 30.003906 28.730469 C 28.757812 28.332031 27.523438 27.863281 26.402344 27.175781 C 25.703125 26.742188 25.019531 26.207031 24.648438 25.453125 Z M 24.648438 25.453125 "/>
<path style=" stroke:none;fill-rule:nonzero;fill:rgb(69.803922%,16.862745%,25.098039%);fill-opacity:1;" d="M 30.90625 25.453125 C 33.011719 25.453125 35.113281 25.457031 37.214844 25.457031 C 37.238281 27.039062 37.316406 28.621094 37.453125 30.199219 C 35.355469 29.964844 33.269531 29.617188 31.226562 29.082031 C 31.042969 27.878906 30.9375 26.667969 30.90625 25.453125 Z M 30.90625 25.453125 "/>
<path style=" stroke:none;fill-rule:nonzero;fill:rgb(69.803922%,16.862745%,25.098039%);fill-opacity:1;" d="M 38.375 25.460938 C 40.070312 25.460938 41.765625 25.460938 43.464844 25.460938 C 43.472656 27.160156 43.480469 28.855469 43.488281 30.550781 C 41.867188 30.535156 40.246094 30.457031 38.628906 30.316406 C 38.476562 28.703125 38.398438 27.082031 38.375 25.460938 Z M 38.375 25.460938 "/>
<path style=" stroke:none;fill-rule:nonzero;fill:rgb(69.803922%,16.862745%,25.098039%);fill-opacity:1;" d="M 44.625 25.464844 C 46.324219 25.464844 48.023438 25.464844 49.726562 25.46875 C 49.71875 27.089844 49.648438 28.707031 49.515625 30.324219 C 47.898438 30.464844 46.273438 30.539062 44.648438 30.554688 C 44.640625 28.855469 44.632812 27.160156 44.625 25.464844 Z M 44.625 25.464844 "/>
<path style=" stroke:none;fill-rule:nonzero;fill:rgb(69.803922%,16.862745%,25.098039%);fill-opacity:1;" d="M 50.6875 30.207031 C 50.8125 28.632812 50.875 27.050781 50.882812 25.46875 C 52.984375 25.46875 55.089844 25.472656 57.191406 25.472656 C 57.171875 26.683594 57.078125 27.898438 56.90625 29.097656 C 54.867188 29.632812 52.78125 29.976562 50.6875 30.207031 Z M 50.6875 30.207031 "/>
<path style=" stroke:none;fill-rule:nonzero;fill:rgb(69.803922%,16.862745%,25.098039%);fill-opacity:1;" d="M 58.125 28.75 C 58.257812 27.660156 58.332031 26.566406 58.351562 25.472656 C 60.046875 25.476562 61.746094 25.472656 63.445312 25.480469 C 62.941406 26.492188 61.933594 27.109375 60.96875 27.617188 C 60.058594 28.082031 59.097656 28.441406 58.125 28.75 Z M 58.125 28.75 "/>
<path style=" stroke:none;fill-rule:nonzero;fill:rgb(69.803922%,16.862745%,25.098039%);fill-opacity:1;" d="M 24.953125 27.578125 C 26.5 28.761719 28.355469 29.445312 30.207031 30 C 30.515625 31.699219 30.976562 33.367188 31.601562 34.976562 C 29.75 33.929688 28.035156 32.585938 26.730469 30.894531 C 25.957031 29.898438 25.34375 28.777344 24.953125 27.578125 Z M 24.953125 27.578125 "/>
<path style=" stroke:none;fill-rule:nonzero;fill:rgb(69.803922%,16.862745%,25.098039%);fill-opacity:1;" d="M 57.933594 30.015625 C 59.773438 29.460938 61.625 28.785156 63.160156 27.597656 C 62.355469 30.179688 60.5 32.3125 58.332031 33.875 C 57.773438 34.28125 57.183594 34.648438 56.585938 34.992188 C 57.195312 33.382812 57.644531 31.714844 57.933594 30.015625 Z M 57.933594 30.015625 "/>
<path style=" stroke:none;fill-rule:nonzero;fill:rgb(69.803922%,16.862745%,25.098039%);fill-opacity:1;" d="M 31.449219 30.332031 C 33.460938 30.828125 35.511719 31.15625 37.570312 31.378906 C 37.800781 33.441406 38.136719 35.496094 38.640625 37.515625 C 36.828125 37.15625 35.050781 36.609375 33.359375 35.859375 C 33.230469 35.816406 33.160156 35.699219 33.113281 35.582031 C 32.363281 33.902344 31.8125 32.136719 31.449219 30.332031 Z M 31.449219 30.332031 "/>
<path style=" stroke:none;fill-rule:nonzero;fill:rgb(69.803922%,16.862745%,25.098039%);fill-opacity:1;" d="M 50.582031 31.382812 C 52.640625 31.167969 54.6875 30.839844 56.699219 30.347656 C 56.351562 32.144531 55.820312 33.910156 55.089844 35.585938 C 55.035156 35.703125 54.972656 35.828125 54.839844 35.871094 C 53.15625 36.625 51.378906 37.164062 49.570312 37.523438 C 50.054688 35.503906 50.371094 33.449219 50.582031 31.382812 Z M 50.582031 31.382812 "/>
<path style=" stroke:none;fill-rule:nonzero;fill:rgb(69.803922%,16.862745%,25.098039%);fill-opacity:1;" d="M 25.714844 31.472656 C 27.1875 33.402344 29.128906 34.9375 31.25 36.101562 C 31.609375 36.34375 32.074219 36.441406 32.378906 36.75 C 33.613281 39.246094 35.308594 41.566406 37.550781 43.25 C 34.636719 42.203125 31.980469 40.457031 29.867188 38.199219 C 28.046875 36.265625 26.628906 33.960938 25.714844 31.472656 Z M 25.714844 31.472656 "/>
<path style=" stroke:none;fill-rule:nonzero;fill:rgb(69.803922%,16.862745%,25.098039%);fill-opacity:1;" d="M 38.75 31.488281 C 40.328125 31.621094 41.910156 31.695312 43.496094 31.710938 C 43.503906 33.820312 43.515625 35.929688 43.523438 38.039062 C 42.308594 38.011719 41.097656 37.914062 39.894531 37.730469 C 39.351562 35.683594 38.992188 33.59375 38.75 31.488281 Z M 38.75 31.488281 "/>
<path style=" stroke:none;fill-rule:nonzero;fill:rgb(69.803922%,16.862745%,25.098039%);fill-opacity:1;" d="M 44.652344 31.710938 C 46.238281 31.699219 47.824219 31.628906 49.40625 31.496094 C 49.183594 33.597656 48.847656 35.691406 48.320312 37.738281 C 47.113281 37.917969 45.898438 38.015625 44.683594 38.039062 C 44.671875 35.929688 44.664062 33.820312 44.652344 31.710938 Z M 44.652344 31.710938 "/>
<path style=" stroke:none;fill-rule:nonzero;fill:rgb(69.803922%,16.862745%,25.098039%);fill-opacity:1;" d="M 56.074219 36.566406 C 58.535156 35.359375 60.804688 33.664062 62.457031 31.457031 C 61.449219 34.300781 59.773438 36.902344 57.597656 38.988281 C 55.632812 40.882812 53.265625 42.347656 50.695312 43.269531 C 52.800781 41.679688 54.425781 39.53125 55.605469 37.191406 C 55.730469 36.960938 55.800781 36.664062 56.074219 36.566406 Z M 56.074219 36.566406 "/>
<path style=" stroke:none;fill-rule:nonzero;fill:rgb(69.803922%,16.862745%,25.098039%);fill-opacity:1;" d="M 34.027344 37.390625 C 35.632812 38.003906 37.292969 38.457031 38.984375 38.757812 C 39.539062 40.59375 40.226562 42.433594 41.40625 43.96875 C 38.851562 43.152344 36.746094 41.316406 35.183594 39.175781 C 34.765625 38.605469 34.386719 38.003906 34.027344 37.390625 Z M 34.027344 37.390625 "/>
<path style=" stroke:none;fill-rule:nonzero;fill:rgb(69.803922%,16.862745%,25.098039%);fill-opacity:1;" d="M 49.242188 38.761719 C 50.929688 38.460938 52.589844 38.011719 54.191406 37.394531 C 52.878906 39.722656 51.078125 41.851562 48.722656 43.167969 C 48.132812 43.5 47.503906 43.765625 46.859375 43.980469 C 48.03125 42.441406 48.699219 40.597656 49.242188 38.761719 Z M 49.242188 38.761719 "/>
<path style=" stroke:none;fill-rule:nonzero;fill:rgb(69.803922%,16.862745%,25.098039%);fill-opacity:1;" d="M 40.253906 38.953125 C 41.339844 39.089844 42.433594 39.171875 43.53125 39.195312 C 43.535156 40.890625 43.550781 42.585938 43.550781 44.285156 C 42.574219 43.796875 41.964844 42.835938 41.457031 41.910156 C 40.957031 40.96875 40.582031 39.964844 40.253906 38.953125 Z M 40.253906 38.953125 "/>
<path style=" stroke:none;fill-rule:nonzero;fill:rgb(69.803922%,16.862745%,25.098039%);fill-opacity:1;" d="M 44.6875 39.195312 C 45.789062 39.175781 46.882812 39.09375 47.976562 38.957031 C 47.566406 40.25 47.082031 41.535156 46.351562 42.6875 C 45.9375 43.332031 45.421875 43.953125 44.714844 44.289062 C 44.699219 42.59375 44.699219 40.894531 44.6875 39.195312 Z M 44.6875 39.195312 "/>
<path style=" stroke:none;fill-rule:nonzero;fill:rgb(69.803922%,16.862745%,25.098039%);fill-opacity:1;" d="M 18.714844 52.117188 C 19.871094 52.164062 21.121094 51.941406 22.179688 52.535156 C 23.03125 52.992188 23.476562 53.945312 23.609375 54.867188 C 23.796875 56.195312 23.671875 57.605469 23.078125 58.824219 C 22.839844 59.3125 22.449219 59.742188 21.929688 59.933594 C 20.925781 60.347656 19.8125 60.230469 18.753906 60.25 C 18.742188 57.539062 18.726562 54.828125 18.714844 52.117188 Z M 18.714844 52.117188 "/>
<path style=" stroke:none;fill-rule:nonzero;fill:rgb(69.803922%,16.862745%,25.098039%);fill-opacity:1;" d="M 64.5 55.179688 C 65.542969 58.214844 66.582031 61.253906 67.625 64.292969 C 65.570312 64.292969 63.515625 64.292969 61.464844 64.289062 C 62.476562 61.253906 63.488281 58.214844 64.5 55.179688 Z M 64.5 55.179688 "/>
<path style=" stroke:none;fill-rule:nonzero;fill:rgb(69.803922%,16.862745%,25.098039%);fill-opacity:1;" d="M 18.765625 62.808594 C 19.777344 62.835938 20.828125 62.703125 21.792969 63.082031 C 22.535156 63.355469 23.144531 63.9375 23.480469 64.648438 C 23.941406 65.617188 24.023438 66.714844 23.984375 67.773438 C 23.941406 68.691406 23.75 69.671875 23.121094 70.382812 C 22.589844 70.996094 21.765625 71.265625 20.976562 71.289062 C 20.253906 71.308594 19.527344 71.289062 18.804688 71.296875 C 18.792969 68.464844 18.78125 65.636719 18.765625 62.808594 Z M 18.765625 62.808594 "/>
<path style=" stroke:none;fill-rule:nonzero;fill:rgb(100%,86.666667%,12.941176%);fill-opacity:1;" d="M 41.71875 4.34375 C 45.550781 3.921875 49.5 4.605469 52.96875 6.292969 C 55.664062 7.597656 58.0625 9.492188 59.964844 11.800781 C 61.773438 13.992188 63.128906 16.558594 63.910156 19.289062 C 64.898438 22.738281 64.972656 26.445312 64.113281 29.929688 C 63.445312 32.660156 62.203125 35.246094 60.496094 37.476562 C 58.632812 39.917969 56.21875 41.933594 53.480469 43.324219 C 50.804688 44.691406 47.820312 45.445312 44.816406 45.542969 C 41.082031 45.664062 37.3125 44.753906 34.050781 42.921875 C 30.003906 40.667969 26.75 37.027344 24.976562 32.75 C 23.589844 29.433594 23.09375 25.753906 23.546875 22.1875 C 23.90625 19.285156 24.902344 16.457031 26.445312 13.96875 C 28.027344 11.40625 30.183594 9.199219 32.707031 7.550781 C 35.402344 5.792969 38.515625 4.679688 41.71875 4.34375 Z M 41.65625 7.222656 C 40.96875 8.347656 40.507812 9.585938 40.113281 10.835938 C 41.203125 10.695312 42.296875 10.617188 43.394531 10.59375 C 43.382812 8.894531 43.382812 7.191406 43.367188 5.488281 C 42.617188 5.855469 42.085938 6.53125 41.65625 7.222656 Z M 44.53125 5.488281 C 44.53125 7.191406 44.546875 8.894531 44.550781 10.59375 C 45.652344 10.617188 46.753906 10.703125 47.84375 10.839844 C 47.414062 9.507812 46.902344 8.1875 46.128906 7.011719 C 45.71875 6.398438 45.210938 5.816406 44.53125 5.488281 Z M 39.277344 6.660156 C 36.960938 7.984375 35.1875 10.089844 33.894531 12.394531 C 35.496094 11.777344 37.160156 11.328125 38.847656 11.027344 C 39.386719 9.183594 40.0625 7.339844 41.230469 5.796875 C 40.554688 6.019531 39.898438 6.304688 39.277344 6.660156 Z M 46.6875 5.804688 C 47.867188 7.347656 48.558594 9.195312 49.117188 11.035156 C 50.808594 11.339844 52.472656 11.792969 54.078125 12.410156 C 52.421875 9.5 49.945312 6.859375 46.6875 5.804688 Z M 30.15625 11.117188 C 28.140625 13.148438 26.589844 15.628906 25.636719 18.324219 C 27.296875 16.101562 29.585938 14.40625 32.070312 13.195312 C 32.300781 13.089844 32.355469 12.816406 32.472656 12.609375 C 33.65625 10.261719 35.285156 8.101562 37.394531 6.507812 C 34.679688 7.480469 32.183594 9.066406 30.15625 11.117188 Z M 50.539062 6.523438 C 52.753906 8.191406 54.449219 10.472656 55.667969 12.945312 C 55.722656 13.089844 55.839844 13.191406 55.980469 13.25 C 58.453125 14.460938 60.726562 16.152344 62.394531 18.359375 C 61.496094 15.882812 60.097656 13.589844 58.304688 11.660156 C 56.175781 9.359375 53.488281 7.585938 50.539062 6.523438 Z M 39.769531 12.050781 C 39.246094 14.085938 38.910156 16.167969 38.6875 18.253906 C 40.265625 18.125 41.847656 18.054688 43.429688 18.039062 C 43.421875 15.945312 43.410156 13.847656 43.398438 11.753906 C 42.1875 11.777344 40.972656 11.875 39.769531 12.050781 Z M 44.558594 11.753906 C 44.566406 13.847656 44.578125 15.945312 44.589844 18.042969 C 46.175781 18.058594 47.761719 18.128906 49.339844 18.261719 C 49.097656 16.171875 48.742188 14.09375 48.199219 12.0625 C 46.996094 11.882812 45.777344 11.78125 44.558594 11.753906 Z M 33.097656 13.984375 C 32.316406 15.714844 31.761719 17.539062 31.402344 19.402344 C 33.410156 18.910156 35.457031 18.585938 37.511719 18.367188 C 37.722656 16.316406 38.039062 14.273438 38.519531 12.269531 C 36.65625 12.632812 34.828125 13.199219 33.097656 13.984375 Z M 49.453125 12.28125 C 49.953125 14.28125 50.292969 16.324219 50.519531 18.375 C 52.578125 18.597656 54.628906 18.925781 56.640625 19.417969 C 56.261719 17.558594 55.6875 15.734375 54.894531 14.007812 C 53.15625 13.21875 51.324219 12.652344 49.453125 12.28125 Z M 29.433594 16.152344 C 27.417969 17.675781 25.707031 19.710938 24.9375 22.148438 C 26.472656 20.960938 28.324219 20.285156 30.164062 19.734375 C 30.453125 18.050781 30.898438 16.390625 31.503906 14.792969 C 30.785156 15.203125 30.089844 15.652344 29.433594 16.152344 Z M 56.5 14.828125 C 57.117188 16.417969 57.578125 18.074219 57.882812 19.753906 C 59.722656 20.308594 61.570312 20.984375 63.113281 22.164062 C 62.890625 21.515625 62.621094 20.882812 62.28125 20.289062 C 60.949219 17.945312 58.824219 16.144531 56.5 14.828125 Z M 38.578125 19.429688 C 38.445312 21.046875 38.375 22.675781 38.367188 24.300781 C 40.066406 24.304688 41.761719 24.300781 43.460938 24.304688 C 43.453125 22.601562 43.441406 20.902344 43.433594 19.199219 C 41.8125 19.210938 40.191406 19.285156 38.578125 19.429688 Z M 44.59375 19.199219 C 44.601562 20.902344 44.609375 22.605469 44.617188 24.304688 C 46.320312 24.308594 48.019531 24.308594 49.71875 24.308594 C 49.695312 22.683594 49.613281 21.054688 49.464844 19.4375 C 47.84375 19.292969 46.21875 19.214844 44.59375 19.199219 Z M 31.1875 20.652344 C 31.019531 21.859375 30.921875 23.078125 30.902344 24.296875 C 33.003906 24.296875 35.105469 24.300781 37.210938 24.300781 C 37.21875 22.710938 37.28125 21.125 37.40625 19.542969 C 35.3125 19.773438 33.226562 20.113281 31.1875 20.652344 Z M 50.636719 19.554688 C 50.777344 21.136719 50.855469 22.722656 50.878906 24.308594 C 52.980469 24.3125 55.082031 24.3125 57.183594 24.316406 C 57.152344 23.09375 57.046875 21.878906 56.863281 20.671875 C 54.820312 20.136719 52.734375 19.789062 50.636719 19.554688 Z M 26.277344 22.609375 C 25.617188 23.035156 24.976562 23.5625 24.632812 24.289062 C 26.335938 24.296875 28.039062 24.292969 29.742188 24.292969 C 29.761719 23.191406 29.839844 22.09375 29.972656 21 C 28.691406 21.40625 27.421875 21.890625 26.277344 22.609375 Z M 58.085938 21.023438 C 58.226562 22.117188 58.316406 23.214844 58.34375 24.316406 C 60.042969 24.316406 61.742188 24.320312 63.445312 24.316406 C 63.105469 23.617188 62.496094 23.101562 61.855469 22.6875 C 60.695312 21.9375 59.394531 21.445312 58.085938 21.023438 Z M 24.648438 25.453125 C 25.019531 26.207031 25.703125 26.742188 26.402344 27.175781 C 27.523438 27.863281 28.757812 28.332031 30.003906 28.730469 C 29.863281 27.644531 29.777344 26.550781 29.75 25.453125 C 28.046875 25.453125 26.347656 25.445312 24.648438 25.453125 Z M 30.90625 25.453125 C 30.9375 26.667969 31.042969 27.878906 31.226562 29.082031 C 33.269531 29.617188 35.355469 29.964844 37.453125 30.199219 C 37.316406 28.621094 37.238281 27.039062 37.214844 25.457031 C 35.113281 25.457031 33.011719 25.453125 30.90625 25.453125 Z M 38.375 25.460938 C 38.398438 27.082031 38.476562 28.703125 38.628906 30.316406 C 40.246094 30.457031 41.867188 30.535156 43.488281 30.550781 C 43.480469 28.855469 43.472656 27.160156 43.464844 25.460938 C 41.765625 25.460938 40.070312 25.460938 38.375 25.460938 Z M 44.625 25.464844 C 44.632812 27.160156 44.640625 28.855469 44.648438 30.554688 C 46.273438 30.539062 47.898438 30.464844 49.515625 30.324219 C 49.648438 28.707031 49.71875 27.089844 49.726562 25.46875 C 48.023438 25.464844 46.324219 25.464844 44.625 25.464844 Z M 50.6875 30.207031 C 52.78125 29.976562 54.867188 29.632812 56.90625 29.097656 C 57.078125 27.898438 57.171875 26.683594 57.191406 25.472656 C 55.089844 25.472656 52.984375 25.46875 50.882812 25.46875 C 50.875 27.050781 50.8125 28.632812 50.6875 30.207031 Z M 58.125 28.75 C 59.097656 28.441406 60.058594 28.082031 60.96875 27.617188 C 61.933594 27.109375 62.941406 26.492188 63.445312 25.480469 C 61.746094 25.472656 60.046875 25.476562 58.351562 25.472656 C 58.332031 26.566406 58.257812 27.660156 58.125 28.75 Z M 24.953125 27.578125 C 25.34375 28.777344 25.957031 29.898438 26.730469 30.894531 C 28.035156 32.585938 29.75 33.929688 31.601562 34.976562 C 30.976562 33.367188 30.515625 31.699219 30.207031 30 C 28.355469 29.445312 26.5 28.761719 24.953125 27.578125 Z M 57.933594 30.015625 C 57.644531 31.714844 57.195312 33.382812 56.585938 34.992188 C 57.183594 34.648438 57.773438 34.28125 58.332031 33.875 C 60.5 32.3125 62.355469 30.179688 63.160156 27.597656 C 61.625 28.785156 59.773438 29.460938 57.933594 30.015625 Z M 31.449219 30.332031 C 31.8125 32.136719 32.363281 33.902344 33.113281 35.582031 C 33.160156 35.699219 33.230469 35.816406 33.359375 35.859375 C 35.050781 36.609375 36.828125 37.15625 38.640625 37.515625 C 38.136719 35.496094 37.800781 33.441406 37.570312 31.378906 C 35.511719 31.15625 33.460938 30.828125 31.449219 30.332031 Z M 50.582031 31.382812 C 50.371094 33.449219 50.054688 35.503906 49.570312 37.523438 C 51.378906 37.164062 53.15625 36.625 54.839844 35.871094 C 54.972656 35.828125 55.035156 35.703125 55.089844 35.585938 C 55.820312 33.910156 56.351562 32.144531 56.699219 30.347656 C 54.6875 30.839844 52.640625 31.167969 50.582031 31.382812 Z M 25.714844 31.472656 C 26.628906 33.960938 28.046875 36.265625 29.867188 38.199219 C 31.980469 40.457031 34.636719 42.203125 37.550781 43.25 C 35.308594 41.566406 33.613281 39.246094 32.378906 36.75 C 32.074219 36.441406 31.609375 36.34375 31.25 36.101562 C 29.128906 34.9375 27.1875 33.402344 25.714844 31.472656 Z M 38.75 31.488281 C 38.992188 33.59375 39.351562 35.683594 39.894531 37.730469 C 41.097656 37.914062 42.308594 38.011719 43.523438 38.039062 C 43.515625 35.929688 43.503906 33.820312 43.496094 31.710938 C 41.910156 31.695312 40.328125 31.621094 38.75 31.488281 Z M 44.652344 31.710938 C 44.664062 33.820312 44.671875 35.929688 44.683594 38.039062 C 45.898438 38.015625 47.113281 37.917969 48.320312 37.738281 C 48.847656 35.691406 49.183594 33.597656 49.40625 31.496094 C 47.824219 31.628906 46.238281 31.699219 44.652344 31.710938 Z M 56.074219 36.566406 C 55.800781 36.664062 55.730469 36.960938 55.605469 37.191406 C 54.425781 39.53125 52.800781 41.679688 50.695312 43.269531 C 53.265625 42.347656 55.632812 40.882812 57.597656 38.988281 C 59.773438 36.902344 61.449219 34.300781 62.457031 31.457031 C 60.804688 33.664062 58.535156 35.359375 56.074219 36.566406 Z M 34.027344 37.390625 C 34.386719 38.003906 34.765625 38.605469 35.183594 39.175781 C 36.746094 41.316406 38.851562 43.152344 41.40625 43.96875 C 40.226562 42.433594 39.539062 40.59375 38.984375 38.757812 C 37.292969 38.457031 35.632812 38.003906 34.027344 37.390625 Z M 49.242188 38.761719 C 48.699219 40.597656 48.03125 42.441406 46.859375 43.980469 C 47.503906 43.765625 48.132812 43.5 48.722656 43.167969 C 51.078125 41.851562 52.878906 39.722656 54.191406 37.394531 C 52.589844 38.011719 50.929688 38.460938 49.242188 38.761719 Z M 40.253906 38.953125 C 40.582031 39.964844 40.957031 40.96875 41.457031 41.910156 C 41.964844 42.835938 42.574219 43.796875 43.550781 44.285156 C 43.550781 42.585938 43.535156 40.890625 43.53125 39.195312 C 42.433594 39.171875 41.339844 39.089844 40.253906 38.953125 Z M 44.6875 39.195312 C 44.699219 40.894531 44.699219 42.59375 44.714844 44.289062 C 45.421875 43.953125 45.9375 43.332031 46.351562 42.6875 C 47.082031 41.535156 47.566406 40.25 47.976562 38.957031 C 46.882812 39.09375 45.789062 39.175781 44.6875 39.195312 Z M 44.6875 39.195312 "/>
<path style=" stroke:none;fill-rule:nonzero;fill:rgb(99.607843%,99.607843%,99.607843%);fill-opacity:1;" d="M 12.414062 49.476562 C 15.957031 49.484375 19.5 49.480469 23.039062 49.488281 C 24.792969 49.511719 26.628906 49.972656 27.941406 51.183594 C 29.007812 52.152344 29.523438 53.589844 29.613281 55.003906 C 29.71875 56.472656 29.507812 58.070312 28.542969 59.242188 C 27.6875 60.296875 26.367188 60.792969 25.101562 61.160156 C 26.414062 61.445312 27.726562 61.976562 28.648438 62.984375 C 29.6875 64.0625 30.136719 65.585938 30.136719 67.058594 C 30.160156 68.613281 29.804688 70.238281 28.816406 71.476562 C 27.824219 72.730469 26.324219 73.535156 24.753906 73.804688 C 23.863281 73.972656 22.953125 73.925781 22.054688 73.933594 C 18.878906 73.929688 15.703125 73.925781 12.527344 73.925781 C 12.765625 73.21875 12.699219 72.46875 12.703125 71.734375 C 12.667969 64.75 12.636719 57.761719 12.601562 50.777344 C 12.605469 50.335938 12.542969 49.898438 12.414062 49.476562 Z M 18.714844 52.117188 C 18.726562 54.828125 18.742188 57.539062 18.753906 60.25 C 19.8125 60.230469 20.925781 60.347656 21.929688 59.933594 C 22.449219 59.742188 22.839844 59.3125 23.078125 58.824219 C 23.671875 57.605469 23.796875 56.195312 23.609375 54.867188 C 23.476562 53.945312 23.03125 52.992188 22.179688 52.535156 C 21.121094 51.941406 19.871094 52.164062 18.714844 52.117188 Z M 18.765625 62.808594 C 18.78125 65.636719 18.792969 68.464844 18.804688 71.296875 C 19.527344 71.289062 20.253906 71.308594 20.976562 71.289062 C 21.765625 71.265625 22.589844 70.996094 23.121094 70.382812 C 23.75 69.671875 23.941406 68.691406 23.984375 67.773438 C 24.023438 66.714844 23.941406 65.617188 23.480469 64.648438 C 23.144531 63.9375 22.535156 63.355469 21.792969 63.082031 C 20.828125 62.703125 19.777344 62.835938 18.765625 62.808594 Z M 18.765625 62.808594 "/>
<path style=" stroke:none;fill-rule:nonzero;fill:rgb(99.607843%,99.607843%,99.607843%);fill-opacity:1;" d="M 33.382812 49.492188 C 35.542969 49.496094 37.703125 49.496094 39.863281 49.496094 C 39.617188 50.230469 39.691406 51.007812 39.6875 51.765625 C 39.707031 56.476562 39.730469 61.183594 39.753906 65.890625 C 39.765625 67.34375 40.179688 68.875 41.25 69.914062 C 42.355469 71.046875 44 71.445312 45.542969 71.40625 C 47.066406 71.394531 48.679688 70.972656 49.769531 69.847656 C 50.914062 68.699219 51.3125 67.015625 51.3125 65.4375 C 51.296875 60.582031 51.269531 55.726562 51.246094 50.871094 C 51.25 50.410156 51.191406 49.945312 51.058594 49.503906 C 52.09375 49.507812 53.128906 49.507812 54.164062 49.507812 C 54.050781 49.921875 53.980469 50.351562 53.984375 50.78125 C 54.007812 55.726562 54.035156 60.671875 54.054688 65.621094 C 54.058594 67.292969 53.683594 68.996094 52.78125 70.421875 C 51.980469 71.710938 50.753906 72.710938 49.371094 73.316406 C 47.550781 74.121094 45.535156 74.347656 43.5625 74.339844 C 41.875 74.320312 40.15625 74.128906 38.589844 73.464844 C 37.03125 72.78125 35.644531 71.640625 34.792969 70.152344 C 33.96875 68.730469 33.652344 67.066406 33.644531 65.4375 C 33.621094 60.523438 33.597656 55.605469 33.574219 50.691406 C 33.578125 50.285156 33.503906 49.882812 33.382812 49.492188 Z M 33.382812 49.492188 "/>
<path style=" stroke:none;fill-rule:nonzero;fill:rgb(99.607843%,99.607843%,99.607843%);fill-opacity:1;" d="M 63.554688 49.515625 C 65.277344 49.515625 67 49.519531 68.71875 49.519531 C 68.761719 50.1875 69.042969 50.800781 69.265625 51.425781 C 71.820312 58.410156 74.378906 65.394531 76.933594 72.378906 C 77.117188 72.953125 77.378906 73.503906 77.761719 73.976562 C 75.429688 73.96875 73.097656 73.96875 70.765625 73.96875 C 70.78125 73.589844 70.722656 73.210938 70.59375 72.855469 C 69.917969 70.910156 69.242188 68.960938 68.566406 67.015625 C 65.886719 67.011719 63.207031 67.011719 60.527344 67.011719 C 59.933594 68.726562 59.335938 70.441406 58.742188 72.15625 C 58.542969 72.742188 58.277344 73.328125 58.339844 73.960938 C 57.238281 73.957031 56.132812 73.953125 55.03125 73.957031 C 55.289062 73.585938 55.496094 73.179688 55.640625 72.746094 C 58.214844 65.363281 60.789062 57.984375 63.363281 50.601562 C 63.492188 50.253906 63.546875 49.882812 63.554688 49.515625 Z M 64.5 55.179688 C 63.488281 58.214844 62.476562 61.253906 61.464844 64.289062 C 63.515625 64.292969 65.570312 64.292969 67.625 64.292969 C 66.582031 61.253906 65.542969 58.214844 64.5 55.179688 Z M 64.5 55.179688 "/>
<path style=" stroke:none;fill-rule:nonzero;fill:rgb(99.607843%,99.607843%,99.607843%);fill-opacity:1;" d="M 0 75.859375 C 30 75.859375 60 75.859375 90 75.859375 L 90 78.332031 C 60 78.332031 30 78.332031 0 78.332031 Z M 0 75.859375 "/>
<path style=" stroke:none;fill-rule:nonzero;fill:rgb(99.607843%,99.607843%,99.607843%);fill-opacity:1;" d="M 27.492188 81.609375 C 28.839844 81.457031 30.292969 81.632812 31.425781 82.429688 C 32.3125 83.035156 32.9375 84.007812 33.105469 85.070312 C 33.335938 86.550781 33.035156 88.195312 31.996094 89.324219 C 31.195312 90.226562 30.003906 90.722656 28.804688 90.792969 C 27.371094 90.898438 25.816406 90.578125 24.75 89.554688 C 23.917969 88.804688 23.480469 87.6875 23.46875 86.574219 C 23.425781 85.316406 23.773438 84 24.640625 83.058594 C 25.367188 82.238281 26.414062 81.738281 27.492188 81.609375 Z M 27.574219 82.5 C 27.097656 82.644531 26.6875 82.96875 26.390625 83.367188 C 25.75 84.234375 25.570312 85.347656 25.570312 86.398438 C 25.566406 87.386719 25.78125 88.4375 26.460938 89.1875 C 27.320312 90.167969 29.015625 90.261719 29.953125 89.347656 C 30.597656 88.71875 30.902344 87.824219 31.015625 86.945312 C 31.109375 86.105469 31.109375 85.238281 30.867188 84.421875 C 30.664062 83.753906 30.265625 83.117188 29.664062 82.746094 C 29.046875 82.367188 28.265625 82.300781 27.574219 82.5 Z M 27.574219 82.5 "/>
<path style=" stroke:none;fill-rule:nonzero;fill:rgb(99.607843%,99.607843%,99.607843%);fill-opacity:1;" d="M 43.605469 81.605469 C 45.109375 81.433594 46.769531 81.703125 47.921875 82.757812 C 48.828125 83.546875 49.277344 84.761719 49.257812 85.945312 C 49.285156 87.320312 48.796875 88.75 47.730469 89.664062 C 46.523438 90.753906 44.765625 90.976562 43.210938 90.707031 C 41.9375 90.5 40.730469 89.753906 40.085938 88.621094 C 39.515625 87.625 39.453125 86.421875 39.640625 85.316406 C 39.8125 84.308594 40.324219 83.355469 41.101562 82.6875 C 41.796875 82.070312 42.691406 81.714844 43.605469 81.605469 Z M 43.683594 82.492188 C 42.699219 82.78125 42.101562 83.742188 41.855469 84.683594 C 41.605469 85.699219 41.566406 86.785156 41.816406 87.804688 C 42.035156 88.644531 42.570312 89.460938 43.402344 89.792969 C 44.214844 90.109375 45.21875 90.039062 45.902344 89.460938 C 46.519531 88.941406 46.863281 88.167969 47.023438 87.386719 C 47.179688 86.5625 47.207031 85.703125 47.058594 84.875 C 46.921875 84.148438 46.59375 83.429688 46.023438 82.945312 C 45.390625 82.402344 44.472656 82.269531 43.683594 82.492188 Z M 43.683594 82.492188 "/>
<path style=" stroke:none;fill-rule:nonzero;fill:rgb(99.607843%,99.607843%,99.607843%);fill-opacity:1;" d="M 73.328125 81.625 C 74.296875 81.433594 75.296875 81.675781 76.15625 82.132812 C 75.992188 82.550781 75.851562 82.980469 75.726562 83.417969 C 75.667969 83.417969 75.550781 83.425781 75.492188 83.429688 C 75.332031 83.0625 75.113281 82.675781 74.71875 82.519531 C 74.136719 82.296875 73.367188 82.332031 72.929688 82.828125 C 72.5 83.300781 72.621094 84.105469 73.121094 84.480469 C 73.980469 85.179688 75.171875 85.402344 75.898438 86.28125 C 76.472656 86.933594 76.605469 87.886719 76.386719 88.710938 C 76.121094 89.6875 75.253906 90.429688 74.292969 90.683594 C 73.207031 90.964844 72.046875 90.75 71.042969 90.289062 C 71.207031 89.765625 71.335938 89.230469 71.433594 88.691406 C 71.519531 88.6875 71.605469 88.683594 71.691406 88.679688 C 71.871094 89.167969 72.148438 89.675781 72.65625 89.882812 C 73.316406 90.144531 74.183594 90.085938 74.679688 89.523438 C 75.105469 89.0625 75.070312 88.265625 74.605469 87.84375 C 74.078125 87.367188 73.40625 87.105469 72.785156 86.78125 C 72.238281 86.492188 71.71875 86.101562 71.414062 85.550781 C 71.078125 84.941406 71.050781 84.199219 71.226562 83.539062 C 71.488281 82.570312 72.347656 81.808594 73.328125 81.625 Z M 73.328125 81.625 "/>
<path style=" stroke:none;fill-rule:nonzero;fill:rgb(99.607843%,99.607843%,99.607843%);fill-opacity:1;" d="M 56.230469 81.644531 C 57.609375 81.878906 59.003906 81.648438 60.390625 81.640625 C 61.542969 81.640625 62.773438 81.984375 63.558594 82.878906 C 64.433594 83.847656 64.625 85.226562 64.546875 86.484375 C 64.484375 87.667969 64.054688 88.894531 63.121094 89.671875 C 62.109375 90.546875 60.703125 90.777344 59.402344 90.722656 C 58.347656 90.699219 57.28125 90.519531 56.230469 90.722656 C 56.378906 88.867188 56.332031 87 56.339844 85.140625 C 56.328125 83.972656 56.339844 82.804688 56.230469 81.644531 Z M 58.25 82.59375 C 58.199219 84.984375 58.199219 87.378906 58.25 89.769531 C 59.132812 89.824219 60.085938 89.933594 60.898438 89.507812 C 61.597656 89.152344 62.042969 88.4375 62.242188 87.695312 C 62.46875 86.84375 62.507812 85.941406 62.402344 85.070312 C 62.292969 84.238281 61.894531 83.386719 61.144531 82.953125 C 60.277344 82.433594 59.21875 82.535156 58.25 82.59375 Z M 58.25 82.59375 "/>
<path style=" stroke:none;fill-rule:nonzero;fill:rgb(99.607843%,99.607843%,99.607843%);fill-opacity:1;" d="M 12.210938 81.640625 C 13.882812 81.792969 15.566406 81.769531 17.238281 81.648438 C 17.207031 81.992188 17.203125 82.335938 17.238281 82.679688 C 16.226562 82.5625 15.210938 82.566406 14.195312 82.582031 C 14.195312 83.59375 14.195312 84.605469 14.195312 85.617188 C 15.15625 85.609375 16.125 85.628906 17.082031 85.515625 C 17.050781 85.859375 17.050781 86.207031 17.082031 86.554688 C 16.125 86.4375 15.15625 86.460938 14.195312 86.449219 C 14.1875 87.851562 14.195312 89.253906 14.296875 90.648438 C 13.601562 90.621094 12.90625 90.621094 12.214844 90.648438 C 12.351562 89.058594 12.316406 87.457031 12.328125 85.859375 C 12.3125 84.453125 12.339844 83.042969 12.210938 81.640625 Z M 12.210938 81.640625 "/>
<path style=" stroke:none;fill-rule:nonzero;fill:rgb(34.117647%,72.54902%,32.156863%);fill-opacity:1;" d="M 0 78.332031 C 30 78.332031 60 78.332031 90 78.332031 L 90 94.046875 L 0 94.046875 Z M 27.492188 81.609375 C 26.414062 81.738281 25.367188 82.238281 24.640625 83.058594 C 23.773438 84 23.425781 85.316406 23.46875 86.574219 C 23.480469 87.6875 23.917969 88.804688 24.75 89.554688 C 25.816406 90.578125 27.371094 90.898438 28.804688 90.792969 C 30.003906 90.722656 31.195312 90.226562 31.996094 89.324219 C 33.035156 88.195312 33.335938 86.550781 33.105469 85.070312 C 32.9375 84.007812 32.3125 83.035156 31.425781 82.429688 C 30.292969 81.632812 28.839844 81.457031 27.492188 81.609375 Z M 43.605469 81.605469 C 42.691406 81.714844 41.796875 82.070312 41.101562 82.6875 C 40.324219 83.355469 39.8125 84.308594 39.640625 85.316406 C 39.453125 86.421875 39.515625 87.625 40.085938 88.621094 C 40.730469 89.753906 41.9375 90.5 43.210938 90.707031 C 44.765625 90.976562 46.523438 90.753906 47.730469 89.664062 C 48.796875 88.75 49.285156 87.320312 49.257812 85.945312 C 49.277344 84.761719 48.828125 83.546875 47.921875 82.757812 C 46.769531 81.703125 45.109375 81.433594 43.605469 81.605469 Z M 73.328125 81.625 C 72.347656 81.808594 71.488281 82.570312 71.226562 83.539062 C 71.050781 84.199219 71.078125 84.941406 71.414062 85.550781 C 71.71875 86.101562 72.238281 86.492188 72.785156 86.78125 C 73.40625 87.105469 74.078125 87.367188 74.605469 87.84375 C 75.070312 88.265625 75.105469 89.0625 74.679688 89.523438 C 74.183594 90.085938 73.316406 90.144531 72.65625 89.882812 C 72.148438 89.675781 71.871094 89.167969 71.691406 88.679688 C 71.605469 88.683594 71.519531 88.6875 71.433594 88.691406 C 71.335938 89.230469 71.207031 89.765625 71.042969 90.289062 C 72.046875 90.75 73.207031 90.964844 74.292969 90.683594 C 75.253906 90.429688 76.121094 89.6875 76.386719 88.710938 C 76.605469 87.886719 76.472656 86.933594 75.898438 86.28125 C 75.171875 85.402344 73.980469 85.179688 73.121094 84.480469 C 72.621094 84.105469 72.5 83.300781 72.929688 82.828125 C 73.367188 82.332031 74.136719 82.296875 74.71875 82.519531 C 75.113281 82.675781 75.332031 83.0625 75.492188 83.429688 C 75.550781 83.425781 75.667969 83.417969 75.726562 83.417969 C 75.851562 82.980469 75.992188 82.550781 76.15625 82.132812 C 75.296875 81.675781 74.296875 81.433594 73.328125 81.625 Z M 56.230469 81.644531 C 56.339844 82.804688 56.328125 83.972656 56.339844 85.140625 C 56.332031 87 56.378906 88.867188 56.230469 90.722656 C 57.28125 90.519531 58.347656 90.699219 59.402344 90.722656 C 60.703125 90.777344 62.109375 90.546875 63.121094 89.671875 C 64.054688 88.894531 64.484375 87.667969 64.546875 86.484375 C 64.625 85.226562 64.433594 83.847656 63.558594 82.878906 C 62.773438 81.984375 61.542969 81.640625 60.390625 81.640625 C 59.003906 81.648438 57.609375 81.878906 56.230469 81.644531 Z M 12.210938 81.640625 C 12.339844 83.042969 12.3125 84.453125 12.328125 85.859375 C 12.316406 87.457031 12.351562 89.058594 12.214844 90.648438 C 12.90625 90.621094 13.601562 90.621094 14.296875 90.648438 C 14.195312 89.253906 14.1875 87.851562 14.195312 86.449219 C 15.15625 86.460938 16.125 86.4375 17.082031 86.554688 C 17.050781 86.207031 17.050781 85.859375 17.082031 85.515625 C 16.125 85.628906 15.15625 85.609375 14.195312 85.617188 C 14.195312 84.605469 14.195312 83.59375 14.195312 82.582031 C 15.210938 82.566406 16.226562 82.5625 17.238281 82.679688 C 17.203125 82.335938 17.207031 81.992188 17.238281 81.648438 C 15.566406 81.769531 13.882812 81.792969 12.210938 81.640625 Z M 12.210938 81.640625 "/>
<path style=" stroke:none;fill-rule:nonzero;fill:rgb(34.117647%,72.54902%,32.156863%);fill-opacity:1;" d="M 27.574219 82.5 C 28.265625 82.300781 29.046875 82.367188 29.664062 82.746094 C 30.265625 83.117188 30.664062 83.753906 30.867188 84.421875 C 31.109375 85.238281 31.109375 86.105469 31.015625 86.945312 C 30.902344 87.824219 30.597656 88.71875 29.953125 89.347656 C 29.015625 90.261719 27.320312 90.167969 26.460938 89.1875 C 25.78125 88.4375 25.566406 87.386719 25.570312 86.398438 C 25.570312 85.347656 25.75 84.234375 26.390625 83.367188 C 26.6875 82.96875 27.097656 82.644531 27.574219 82.5 Z M 27.574219 82.5 "/>
<path style=" stroke:none;fill-rule:nonzero;fill:rgb(34.117647%,72.54902%,32.156863%);fill-opacity:1;" d="M 43.683594 82.492188 C 44.472656 82.269531 45.390625 82.402344 46.023438 82.945312 C 46.59375 83.429688 46.921875 84.148438 47.058594 84.875 C 47.207031 85.703125 47.179688 86.5625 47.023438 87.386719 C 46.863281 88.167969 46.519531 88.941406 45.902344 89.460938 C 45.21875 90.039062 44.214844 90.109375 43.402344 89.792969 C 42.570312 89.460938 42.035156 88.644531 41.816406 87.804688 C 41.566406 86.785156 41.605469 85.699219 41.855469 84.683594 C 42.101562 83.742188 42.699219 82.78125 43.683594 82.492188 Z M 43.683594 82.492188 "/>
<path style=" stroke:none;fill-rule:nonzero;fill:rgb(34.117647%,72.54902%,32.156863%);fill-opacity:1;" d="M 58.25 82.59375 C 59.21875 82.535156 60.277344 82.433594 61.144531 82.953125 C 61.894531 83.386719 62.292969 84.238281 62.402344 85.070312 C 62.507812 85.941406 62.46875 86.84375 62.242188 87.695312 C 62.042969 88.4375 61.597656 89.152344 60.898438 89.507812 C 60.085938 89.933594 59.132812 89.824219 58.25 89.769531 C 58.199219 87.378906 58.199219 84.984375 58.25 82.59375 Z M 58.25 82.59375 "/>
</g>
</svg>
