<svg xmlns="http://www.w3.org/2000/svg" width="926" height="200" viewBox="0 0 926 200">
  <g fill="none" fill-rule="evenodd" transform="translate(.86)">
    <path fill="#FFF" d="M636.22001,67.0685079 C641.263387,67.0685079 645.583742,67.8745001 649.198854,69.4687053 C652.825819,71.0629104 655.646792,73.5697832 657.721036,77.0367349 L657.993651,77.0367349 C658.586293,75.489941 659.392285,74.2928056 660.269394,73.208272 C661.158356,72.1000327 662.272522,71.3236726 663.623744,70.8910444 C664.980893,70.4465634 666.598803,70.3695201 668.477476,70.5947238 C670.350223,70.8554859 672.560775,71.4836857 675.103206,72.520808 L675.826229,72.8171287 C677.473772,73.4868134 678.143456,74.6958017 677.841209,76.45002 L676.744823,82.2223464 C676.430723,83.9824911 675.446938,84.5217947 673.817175,83.8580364 L673.574192,83.7632138 C672.744494,83.4194818 671.867385,83.6920968 670.925085,84.5810588 C669.976859,85.4640944 669.241984,87.3190617 668.78565,90.1341079 L659.528592,133.853258 C658.49147,139.068508 656.731325,143.815558 654.289643,148.064797 C651.842035,152.314035 648.896607,155.941 645.465214,158.933838 C642.0516,161.944456 638.223137,164.255757 634.003531,165.849962 C629.777998,167.438241 625.339115,168.244233 620.633543,168.244233 C617.800717,168.244233 614.956039,168.01903 612.099508,167.574549 C609.25483,167.135994 606.617576,166.578911 604.199599,165.915153 C601.746064,165.257321 599.624408,164.558004 597.834632,163.80535 C596.015223,163.040843 594.788455,162.353379 594.11877,161.725179 C593.703922,161.298477 593.561688,160.84807 593.674289,160.409515 C593.792818,159.965034 594.142476,159.253865 594.729191,158.281933 L598.01835,152.705178 C598.320597,152.171801 598.800637,151.952524 599.458469,152.04142 C600.116301,152.130316 600.803765,152.266623 601.485302,152.450342 C602.273515,152.705178 603.47065,153.013352 605.147825,153.374863 C606.825,153.724521 608.62663,154.0564 610.65939,154.376427 C612.686223,154.678674 614.796026,154.969068 616.976946,155.22983 C619.157866,155.502445 621.226184,155.6269 623.181901,155.6269 C627.964516,155.6269 632.190049,153.748227 635.846646,149.990881 C639.497316,146.221682 641.956777,141.326465 643.242809,135.323008 L644.410313,129.728474 L644.161403,129.728474 C641.938998,132.300538 639.064688,134.564427 635.544398,136.508291 C631.982624,138.458081 627.389654,139.430013 621.729929,139.430013 C617.854055,139.430013 614.298207,138.831445 611.097944,137.628383 C607.897681,136.454953 605.307839,134.434046 603.263226,131.601221 C601.230466,128.762469 599.938508,125.016976 599.369573,120.376594 C598.800637,115.730286 599.209559,109.963886 600.643751,103.047762 C602.066091,96.2383135 604.021807,90.5311776 606.499048,85.932281 C608.952583,81.327458 611.767629,77.6175233 614.932333,74.8321092 C618.085185,72.0526214 621.457314,70.0554202 625.090206,68.8582847 C628.675686,67.6670757 632.415252,67.0685079 636.22001,67.0685079 Z M517.599294,70.7713309 C519.359439,70.7713309 520.040977,71.6365872 519.65576,73.3730262 L509.456403,120.381335 C508.81635,123.605304 508.721527,125.8929 509.21342,127.273754 C509.687533,128.654608 510.380923,129.347999 511.258032,129.347999 L511.530647,129.347999 C513.278939,129.347999 513.960477,130.219181 513.598965,131.943767 L512.443315,137.644977 C512.081804,139.381416 511.050608,140.246672 509.391212,140.246672 L508.597073,140.246672 C495.87899,140.222967 490.82376,133.917263 493.461014,121.299929 L503.897427,73.3611734 C504.253012,71.6306608 505.325693,70.7713309 507.073985,70.7713309 L517.599294,70.7713309 Z M495.547704,36.4781411 L477.964036,119.702761 C477.353615,122.517807 477.323983,124.532788 477.910698,125.700291 C478.432222,126.8915 479.178951,127.495994 480.044207,127.495994 L480.044207,127.495994 L480.328675,127.495994 C482.07104,127.495994 482.770357,128.373104 482.414772,130.133248 L482.414772,130.133248 L481.270974,135.94706 C480.909463,137.707204 479.913826,138.578387 478.230724,138.578387 L478.230724,138.578387 L477.412879,138.578387 C471.954653,138.566534 468.386952,137.600529 466.34234,135.644812 C464.303653,133.712802 463.331722,131.087401 463.420618,127.738977 L463.420618,127.738977 L463.142077,127.738977 C459.562523,132.11267 455.609605,135.31886 451.295177,137.298282 C446.998527,139.271777 442.322587,140.243709 437.308842,140.243709 C433.480379,140.243709 430.02528,139.662921 426.866502,138.471712 C423.725503,137.274576 421.147513,135.289228 419.132532,132.515666 C417.111626,129.736179 415.784109,126.079582 415.191468,121.474759 C414.569194,116.875862 414.889221,111.204285 416.276001,104.442247 C417.63315,97.5616815 419.505896,91.8189872 421.965358,87.2023113 C424.377408,82.5737827 427.13319,78.8579216 430.327527,76.0843603 C433.450747,73.2278291 436.864361,71.2424807 440.509105,70.0631245 C444.165702,68.8778419 447.9349,68.2970534 451.781142,68.2970534 C454.608042,68.2970534 457.05565,68.563742 459.070631,69.0674871 C461.12117,69.6245699 462.910946,70.3416659 464.434035,71.2069222 C465.909711,72.0958842 467.094994,73.1211537 468.025441,74.3123627 C468.932182,75.5154246 469.649278,76.7244129 470.313036,77.945254 L470.313036,77.945254 L471.207925,78.5675274 L478.704837,45.4210986 L495.547704,36.4781411 Z M354.498478,67.1822951 C360.83974,67.1822951 365.906823,68.1364476 369.64639,70.0980903 C373.385957,72.0241746 376.123959,74.6199436 377.812987,77.8853972 C379.561279,81.1745565 380.426535,85.0207987 380.462094,89.4241236 C380.4858,93.833375 379.982054,98.4737565 378.939006,103.333415 C377.890031,108.276044 376.426207,112.946057 374.594945,117.301971 C372.728125,121.669738 370.239031,125.486348 367.133591,128.757728 C364.040003,132.023181 360.199687,134.61895 355.642276,136.50355 C351.102643,138.417781 345.674049,139.360081 339.297228,139.360081 C332.926334,139.360081 327.87703,138.417781 324.137463,136.50355 C320.380117,134.61895 317.624335,132.035034 315.935307,128.828845 C314.181089,125.604876 313.345465,121.811972 313.30398,117.438279 C313.262495,113.046806 313.784019,108.418278 314.827068,103.45787 C315.870117,98.4915358 317.322088,93.8511543 319.171129,89.4893142 C321.026096,85.1156213 323.51519,81.2753055 326.650262,77.9742934 C329.726071,74.6317964 333.548607,72.0241746 338.129725,70.0980903 C342.675284,68.1364476 348.121657,67.1822951 354.498478,67.1822951 Z M417.910506,37.3629546 L400.463146,119.354881 C399.817167,122.578849 400.024591,124.896077 401.091345,126.29471 C402.152173,127.687418 403.432279,128.368955 404.94944,128.368955 L404.94944,128.368955 L407.159993,128.380808 C408.93199,128.380808 409.649086,129.251991 409.252016,130.976577 L409.252016,130.976577 L408.084513,136.73705 C407.723002,138.503122 406.697732,139.356525 405.020557,139.356525 L405.020557,139.356525 L399.420097,139.356525 C393.392935,139.356525 389.688927,137.67935 387.265024,134.319074 C384.805562,130.952871 384.307743,125.83245 385.730083,118.945958 L385.730083,118.945958 L401.097272,46.2999857 L417.910506,37.3629546 Z M708.912208,66.0100505 C714.690461,66.0100505 719.567899,66.7389994 723.538596,68.1554121 C727.49744,69.5777513 730.045797,71.0475017 731.213301,72.5587371 C731.367387,72.8194993 731.515548,73.2343482 731.616297,73.7617989 C731.734825,74.2951761 731.337755,75.0419042 730.448793,76.0197624 L726.691448,80.2808534 C726.264746,80.9031268 725.749148,81.1579626 725.079463,81.0157287 C724.415705,80.8853476 723.751947,80.7134816 723.147452,80.5534684 C720.853931,79.6467272 718.507071,78.8762935 716.118726,78.2066088 C713.748161,77.548777 711.104981,77.205045 708.206965,77.205045 C704.165151,77.205045 701.089343,78.0110372 699.009172,79.5933895 C696.905295,81.1875946 695.548146,83.2855449 694.955505,85.869461 C694.676964,87.3806964 694.836977,88.7082129 695.429618,89.8460843 C696.045965,91.0017348 697.231248,91.8551383 699.003245,92.3885155 L713.866689,96.9222216 C719.342695,98.634955 722.845205,101.112196 724.415705,104.413208 C725.968425,107.690514 726.205482,111.91012 725.162433,117.060173 C724.380146,120.722697 722.951881,123.857769 720.853931,126.512802 C718.744127,129.173762 716.201696,131.425799 713.256269,133.251134 C710.293062,135.064617 707.021682,136.427692 703.459908,137.310727 C699.874428,138.187836 696.265242,138.626391 692.567161,138.626391 C689.680997,138.620465 686.942994,138.454525 684.40649,138.087087 C681.846279,137.725576 679.534978,137.269242 677.472586,136.676601 C675.362783,136.101739 673.655976,135.420201 672.32846,134.59643 C670.971311,133.814143 670.046791,132.96074 669.560825,132.083631 C668.920772,130.92798 669.092638,129.778256 670.076423,128.610753 L673.851548,124.349662 C674.325661,123.92296 674.900523,123.703683 675.58206,123.75702 C676.257672,123.798505 676.856239,123.92296 677.38369,124.088899 C679.849078,124.977861 682.415215,125.766074 685.093954,126.435759 C687.737134,127.093591 690.747752,127.419544 694.084322,127.437323 C696.881589,127.437323 699.216596,127.164708 701.089343,126.637257 C702.973942,126.115733 704.485177,125.428269 705.623049,124.580792 C706.749067,123.727388 707.596544,122.779162 708.159554,121.700555 C708.716636,120.657506 709.131485,119.578899 709.386321,118.523998 C709.795244,116.479385 709.321131,114.902959 707.993614,113.788793 C706.672024,112.674628 704.188857,111.489345 700.579671,110.238872 L689.568395,106.777847 C684.886529,105.260685 681.769236,102.783444 680.240221,99.3105661 C678.711207,95.837688 678.39118,91.8966232 679.291995,87.4518133 C679.949827,84.4174898 681.063993,81.6142964 682.670051,78.9770425 C684.276109,76.3694207 686.3385,74.0877517 688.857226,72.1320353 C691.358172,70.1822454 694.297673,68.6650836 697.663876,67.6042557 C701.024152,66.5375013 704.769645,66.0100505 708.912208,66.0100505 Z M569.579864,68.469512 C573.117933,68.469512 576.359681,69.0384477 579.293255,70.1940982 C582.214977,71.3201167 584.686291,72.973586 586.600523,75.1663589 C588.544386,77.3294997 589.865976,80.0260177 590.612704,83.2085015 C591.335727,86.3969118 591.294242,90.0475823 590.511955,94.130881 L585.545621,118.061737 C584.911495,121.291632 584.822599,123.602934 585.302638,125.001567 C585.794531,126.400201 586.464215,127.087665 587.36503,127.087665 L587.637645,127.087665 C589.385937,127.087665 590.103033,127.964774 589.729669,129.713066 L588.562165,135.467613 C588.182875,137.204052 587.151679,138.075235 585.462651,138.075235 L584.686291,138.075235 C571.831901,138.057455 566.776671,131.692488 569.425777,118.968479 L573.65131,98.5697644 C574.155055,96.039186 574.451376,93.615283 574.498787,91.3099083 C574.563978,88.9867543 574.303215,86.9658475 573.763912,85.2294084 C573.18905,83.4751901 572.240824,82.082483 570.913307,81.0394343 C569.562085,79.9904592 567.71897,79.457082 565.425449,79.457082 C556.12098,79.4511556 550.117523,86.2606043 547.385447,99.8557961 L539.965578,135.426128 C539.592214,137.162567 538.555091,138.045602 536.854211,138.045602 L526.26371,138.027823 C524.402817,138.027823 523.650162,137.144788 524.029453,135.414275 L533.920636,88.7141393 C534.554762,85.9465044 534.572542,83.9374503 534.033238,82.7640205 C533.493934,81.5905907 532.782765,81.0157287 531.88195,81.0157287 L531.615261,81.0157287 C529.861043,81.0157287 529.1558,80.1386195 529.529164,78.3844012 L530.696667,72.629854 C531.064105,70.8815622 532.148639,70.0163058 533.920636,70.0163058 L534.702923,70.0163058 C537.452778,70.0163058 539.4322,70.2711416 541.269389,70.7334018 C543.094724,71.2312205 544.558548,71.9186845 545.654934,72.8432049 C546.739468,73.7499461 547.474343,74.8996703 547.889192,76.2568189 C548.292188,77.5902618 548.46998,79.0955708 548.440348,80.7549665 L548.730743,80.7549665 C551.830257,76.5768452 554.923844,73.5069632 558.017432,71.4860563 C561.11102,69.4651494 564.963188,68.469512 569.579864,68.469512 Z M264.88637,42.0394872 C266.640588,42.0394872 267.345831,42.9343756 266.972467,44.7004468 L259.155528,82.5761532 L293.202772,82.5761532 L301.007858,44.7004468 C301.393075,42.9343756 302.453903,42.0394872 304.237753,42.0394872 L315.634246,42.0394872 C317.388464,42.0394872 318.081854,42.9343756 317.702564,44.7004468 L298.678778,134.776 C298.299487,136.536145 297.262365,137.43696 295.58519,137.43696 L284.194624,137.43696 C282.33373,137.43696 281.598855,136.536145 281.978145,134.776 L290.695899,94.4941701 L256.654582,94.4941701 L247.930902,134.776 C247.539759,136.536145 246.514489,137.43696 244.855093,137.43696 L233.458601,137.43696 C231.603634,137.43696 230.862832,136.536145 231.242122,134.776 L250.271835,44.7004468 C250.651125,42.9343756 251.71788,42.0394872 253.483951,42.0394872 L264.88637,42.0394872 Z M104.880919,42.1698683 C115.175099,42.1698683 122.873509,44.3270827 127.952445,48.6474379 C133.037308,52.9559403 134.755968,59.1727477 133.078793,67.2682281 C132.04167,72.0330642 130.121513,76.0393195 127.312393,79.2988468 C124.497346,82.558374 120.888161,85.154143 116.431498,87.0861537 L116.407793,87.3528422 C122.600894,88.324774 126.915323,90.8968373 129.380711,95.080885 C131.822393,99.2649327 132.415034,104.32609 131.146782,110.211018 C130.376348,114.086892 128.876966,117.666446 126.678267,120.91412 C124.479567,124.167721 121.783049,127.030178 118.582786,129.501493 C115.382523,131.96688 111.802969,133.887038 107.82042,135.250113 C103.855649,136.613188 99.7190131,137.300652 95.4045843,137.300652 L65.2213621,137.300652 C63.3782476,137.300652 62.6492988,136.41169 63.0226628,134.651546 L82.0997867,44.818975 C82.4790772,43.0588303 83.551758,42.1698683 85.3178291,42.1698683 L104.880919,42.1698683 Z M68.924185,42.1995004 C70.6843297,42.1995004 71.3717936,43.0766095 70.9984296,44.8367543 L69.6353546,51.4328521 C69.2619906,53.1929968 68.1952362,54.0760324 66.4291651,54.0760324 L33.7864814,54.0760324 L27.6052325,83.2636172 L53.805905,83.2636172 C55.5541969,83.2636172 56.2475873,84.1407263 55.8623704,85.9067974 L54.5170746,92.5028953 C54.1318578,94.26304 53.059177,95.1460755 51.2990323,95.1460755 L25.0746541,95.1460755 L16.6176625,134.633766 C16.2502249,136.387985 15.2131026,137.276947 13.5418541,137.276947 L2.31130113,137.276947 C0.468186639,137.276947 -0.290394245,136.387985 0.100749024,134.633766 L19.1126824,44.8367543 C19.4860465,43.0766095 20.5528008,42.1995004 22.3247984,42.1995004 L68.924185,42.1995004 Z M165.888601,42.342327 C167.814686,42.342327 169.088864,43.0416437 169.705211,44.45213 L194.424281,105.346025 L194.465765,105.346025 L207.355714,44.9795808 C207.746857,43.2194361 208.801759,42.342327 210.550051,42.342327 L221.93469,42.342327 C223.688909,42.342327 224.376373,43.2194361 224.008935,44.9795808 L204.973296,134.486199 C204.588079,136.240417 203.568736,137.123453 201.903414,137.123453 L192.160391,137.123453 C190.14541,137.123453 188.835673,136.412283 188.219326,135.019576 L163.42914,73.9775204 L150.604382,134.486199 C150.225091,136.240417 149.211675,137.123453 147.540426,137.123453 L137.536641,137.123453 C135.699453,137.123453 134.952725,136.240417 135.343868,134.486199 L154.367654,44.9795808 C154.746945,43.2194361 155.801846,42.342327 157.561991,42.342327 L165.888601,42.342327 Z M451.840407,79.3853724 C449.558738,79.3853724 447.401523,79.7113251 445.481365,80.4462003 C443.549355,81.1395907 441.759578,82.4137695 440.135741,84.2450312 C438.464492,86.0999985 436.976962,88.6542826 435.649446,91.8960306 C434.292297,95.1555578 433.142573,99.3455319 432.182494,104.460026 C431.163151,109.467846 430.677185,113.580776 430.677185,116.733628 C430.677185,119.922038 431.127593,122.393353 432.028407,124.289805 C432.947001,126.11514 434.250812,127.407098 435.999104,128.100489 C437.711838,128.799805 439.774229,129.161316 442.132942,129.161316 C448.065281,129.161316 452.972352,127.253011 456.919343,123.430475 C460.824849,119.607938 463.639895,113.296308 465.394114,104.483732 C467.124626,95.4992898 466.745336,89.0987636 464.279948,85.1873309 C461.808634,81.3470151 457.648292,79.3912988 451.840407,79.3853724 Z M636.788945,78.2279439 C634.41838,78.2279439 632.190049,78.5835287 630.163215,79.2828454 C628.124529,79.994015 626.30512,81.2859731 624.675357,83.1409404 C623.039667,84.9959077 621.534358,87.5146333 620.189062,90.70897 C618.814134,93.8973803 617.622925,97.9984582 616.585803,103.047762 C615.530901,108.286711 614.985671,112.53595 615.00345,115.795477 C615.00345,119.066857 615.489416,121.644847 616.40801,123.499814 C617.368089,125.360708 618.654121,126.623034 620.355002,127.286792 C622.038103,127.938697 624.017525,128.282429 626.316973,128.282429 C632.166343,128.282429 637.097119,126.332639 641.1093,122.43306 C645.133335,118.551259 648.066909,112.079616 649.892245,103.047762 C651.723506,94.1996274 651.48645,87.8583653 649.157369,84.0002703 C646.857921,80.1540282 642.721285,78.2279439 636.788945,78.2279439 Z M352.086428,79.0766063 C348.666887,79.0766063 345.834062,79.7225853 343.499055,81.0145434 C341.152195,82.2887222 339.154994,84.0310877 337.489672,86.2416398 C335.842129,88.4521919 334.455349,91.0242552 333.364889,94.005241 C332.280355,96.9565948 331.397319,100.044256 330.709855,103.333415 C330.052024,106.675912 329.607543,109.822838 329.382339,112.72678 C329.168988,115.636649 329.447529,118.185007 330.146846,120.348147 C330.893574,122.493509 332.138121,124.229948 333.951603,125.504127 C335.759159,126.796085 338.372708,127.436138 341.732984,127.436138 C345.01029,127.436138 347.801631,126.796085 350.213681,125.504127 C352.613878,124.229948 354.605153,122.493509 356.288255,120.348147 C357.959503,118.185007 359.298873,115.636649 360.395259,112.72678 C361.509425,109.822838 362.368755,106.675912 363.050292,103.333415 C363.73183,100.044256 364.158531,96.9565948 364.377809,94.005241 C364.579307,91.0242552 364.318544,88.4521919 363.595522,86.2416398 C362.8725,84.0310877 361.568689,82.2887222 359.743354,81.0145434 C357.876533,79.7225853 355.322249,79.0766063 352.086428,79.0766063 Z M99.8434677,94.363789 L88.4825337,94.363789 L81.6671586,126.206407 L93.2236642,126.206407 C96.8387763,126.206407 99.9145847,125.73822 102.439237,124.8137 C104.969815,123.895106 107.049986,122.692044 108.697529,121.240073 C110.327293,119.788101 111.601471,118.128706 112.520065,116.220401 C113.450512,114.335801 114.108344,112.374159 114.505414,110.341399 C114.890631,108.409388 114.985453,106.48923 114.819514,104.598705 C114.629869,102.708179 114.007595,100.983593 112.917135,99.4427251 C111.820749,97.9018577 110.226544,96.6632373 108.13452,95.7446433 C106.030643,94.8260492 103.257082,94.363789 99.8434677,94.363789 Z M102.421457,53.2700402 L96.9987894,53.2700402 L90.7938348,83.2576908 L98.7115228,83.2576908 C100.64946,83.2576908 102.569618,82.9080324 104.46607,82.2087156 C106.362522,81.4916196 108.110814,80.4604237 109.699093,79.1032751 C111.287372,77.7283473 112.668226,76.0808044 113.859435,74.1487937 C115.038791,72.2108566 115.892195,70.0121573 116.39594,67.5408431 C117.308607,63.2264143 116.680408,59.7713154 114.517267,57.1577672 C112.354126,54.5738511 108.312312,53.2700402 102.421457,53.2700402 Z M512.478873,44.9618016 L522.998257,44.9736544 C524.770254,44.9736544 525.457718,45.8389107 525.072501,47.5694234 L522.838244,57.9524992 C522.470806,59.6830119 521.451463,60.5482682 519.786141,60.5365355 L509.260831,60.5245625 C507.417717,60.5245625 506.682841,59.671159 507.044353,57.9406464 L509.29639,47.5516441 C509.651974,45.8211315 510.724655,44.9618016 512.478873,44.9618016 Z"/>
    <g transform="translate(735.729 .134)">
      <path fill="#C6CCD1" d="M171.910014,102.495364 C169.611248,102.495364 167.264088,102.495364 165.637476,102.285652 L187.426008,-5.84808836e-15 L42.2596433,-5.84808836e-15 L37.7535254,21.2051029 C32.5752538,20.3796982 28.95369,22.4956379 27.851358,25.8806036 C26.7732236,29.2628807 22.8827984,43.6846091 22.8827984,53.1754184 C22.8827984,68.0676543 26.630727,73.5255418 26.630727,73.5255418 L4.67847069e-14,198.882195 L145.150233,198.882195 L162.682689,116.414321 C182.546173,115.731413 188.116982,109.534156 188.116982,105.912593 C188.116982,100.876818 178.177174,102.495364 171.910014,102.495364"/>
      <path fill="#003B65" d="M106.766765,91.2362524 C106.766765,91.2362524 132.655435,117.157185 168.822678,112.734414 C181.924296,111.099737 184.830689,107.644867 184.419331,106.061273 C184.024104,104.539517 179.539495,105.184785 175.170497,105.364922 C172.637822,105.507418 150.870798,108.341218 121.876779,86.3107106 C110.595353,83.3747435 106.766765,91.2362524 106.766765,91.2362524 L106.766765,91.2362524 Z M22.7260521,146.50879 L51.1984801,136.63082 L90.6189465,164.552082 L75.361059,174.107418 L97.9050919,192.855128 L98.2304143,186.235759 L105.040675,169.491067 L104.511018,155.055896 L90.1780137,131.772494 L92.9526639,121.660615 L92.0062716,110.320038 C54.9464088,110.403385 39.0513196,94.1910398 30.2891248,80.9146612 L16.6847353,145.610793 L22.7260521,146.50879 Z M104.66158,59.760642 L96.5177668,51.9663484 L84.3921152,62.5729328 L104.66158,59.760642 Z M139.84479,75.9595446 C142.288741,80.4656626 143.141032,86.6871166 143.853514,96.2155665 C135.370936,92.3385844 121.158919,80.9012181 121.158919,80.9012181 C104.981525,77.6695034 99.4134047,90.6205597 99.4134047,90.6205597 L103.06992,93.868406 C101.690661,100.200093 97.2006749,103.394167 97.2006749,103.394167 C24.9817997,103.394167 26.5627051,58.3598738 26.5627051,53.1735364 C26.5627051,43.6854156 30.2891248,29.8256077 31.4721152,26.7901619 C32.6631715,23.7816022 38.0995501,24.773701 38.0995501,24.773701 L73.4252565,29.9223978 L80.8592757,25.8518354 C80.8592757,25.8518354 91.7374102,25.0425624 103.5942,28.3845103 C103.5942,28.3845103 121.825695,43.647775 128.869866,54.7759506 L128.332143,60.5430288 C128.332143,60.5430288 137.610551,71.7760604 139.84479,75.9595446 L139.84479,75.9595446 Z M132.679632,164.649008 C135.473103,164.649008 137.40084,162.955045 137.40084,162.955045 C137.685833,158.801136 136.725997,156.650244 136.725997,156.650244 C133.381361,157.526733 130.655106,156.343742 130.289454,152.926513 C129.829701,148.337048 140.202376,128.250409 142.856038,121.550381 C143.899221,118.934359 143.987945,115.199874 143.987945,115.199874 C132.91623,113.661986 123.347451,107.741657 123.347451,107.741657 L124.425586,114.764318 C124.866519,119.074167 119.276889,141.905882 120.422239,153.1658 C120.422239,153.1658 121.39014,164.694579 132.679632,164.649008 L132.679632,164.649008 Z M50.7602359,161.575786 L50.6768889,141.54023 L72.3014156,156.71746 L66.0208121,187.606952 L68.929893,193.602562 L42.8449547,193.602562 L39.8847901,187.660724 L50.7602359,161.575786 Z"/>
    </g>
  </g>
</svg>
