<svg id="Layer_1" data-name="Layer 1" xmlns="http://www.w3.org/2000/svg" viewBox="0 0 152.85498 37"><defs><style>.cls-1{fill:#fff;}.cls-1,.cls-2{fill-rule:evenodd;}.cls-2{fill:#db291c;}.cls-3{fill:none;}.cls-4{fill:#b99852;}</style></defs><title>Untitled-1</title><path class="cls-1" d="M151.84911,9.01873v5.234h-.41141a6.634,6.634,0,0,0-.71982-2.39974,3.71812,3.71812,0,0,0-1.4817-1.41726,4.0735,4.0735,0,0,0-1.98458-.52563,2.70574,2.70574,0,0,0-1.92.70848,2.1512,2.1512,0,0,0-.75811,1.61132,1.90561,1.90561,0,0,0,.48014,1.26093A12.25659,12.25659,0,0,0,148.3448,15.723a22.15771,22.15771,0,0,1,2.89493,1.74835,4.23876,4.23876,0,0,1,1.196,1.43237A3.79583,3.79583,0,0,1,152.855,20.633a3.92347,3.92347,0,0,1-1.33318,2.96358,4.83289,4.83289,0,0,1-3.43246,1.24563,7.10708,7.10708,0,0,1-1.24165-.10293,12.15678,12.15678,0,0,1-1.4323-.4038,6.3642,6.3642,0,0,0-1.37906-.3543.594.594,0,0,0-.44183.16765,1.35564,1.35564,0,0,0-.24.69338h-.41141V19.654h.41141a7.357,7.357,0,0,0,.78473,2.43793,3.77192,3.77192,0,0,0,1.50081,1.34457,4.66962,4.66962,0,0,0,2.2133.53332,3.15588,3.15588,0,0,0,2.20553-.73509,2.28651,2.28651,0,0,0,.80744-1.74086,2.38655,2.38655,0,0,0-.30471-1.12739,3.37274,3.37274,0,0,0-.95605-1.059,27.08513,27.08513,0,0,0-2.37687-1.42476,23.086,23.086,0,0,1-2.76186-1.73325,4.76852,4.76852,0,0,1-1.24577-1.42837,3.56836,3.56836,0,0,1-.42263-1.72166,3.71456,3.71456,0,0,1,1.24948-2.80354,4.45577,4.45577,0,0,1,3.18078-1.1772,6.34763,6.34763,0,0,1,2.556.59045,2.61148,2.61148,0,0,0,.87986.278.67005.67005,0,0,0,.47594-.17126,1.42316,1.42316,0,0,0,.29719-.69718Zm-12.71145,0v5.234h-.41141a6.63159,6.63159,0,0,0-.71982-2.39974,3.71827,3.71827,0,0,0-1.48161-1.41726,4.07423,4.07423,0,0,0-1.98493-.52563,2.70569,2.70569,0,0,0-1.91976.70848,2.15116,2.15116,0,0,0-.758,1.61132,1.90563,1.90563,0,0,0,.48,1.26093,12.25778,12.25778,0,0,0,3.29122,2.23219,22.15037,22.15037,0,0,1,2.8949,1.74835,4.24008,4.24008,0,0,1,1.19614,1.43237,3.79665,3.79665,0,0,1,.41892,1.72925,3.92256,3.92256,0,0,1-1.33327,2.96358,4.8316,4.8316,0,0,1-3.43206,1.24563,7.10632,7.10632,0,0,1-1.24167-.10293,12.15491,12.15491,0,0,1-1.43236-.4038,6.36838,6.36838,0,0,0-1.37909-.3543.59416.59416,0,0,0-.44183.16765,1.35592,1.35592,0,0,0-.24.69338h-.41141V19.654h.41141a7.35768,7.35768,0,0,0,.78473,2.43793,3.77267,3.77267,0,0,0,1.50081,1.34457,4.66943,4.66943,0,0,0,2.21313.53332,3.15618,3.15618,0,0,0,2.20578-.73509,2.2867,2.2867,0,0,0,.80736-1.74086,2.38643,2.38643,0,0,0-.30471-1.12739,3.37091,3.37091,0,0,0-.95605-1.059,27.1134,27.1134,0,0,0-2.37687-1.42476,23.086,23.086,0,0,1-2.76186-1.73325,4.76747,4.76747,0,0,1-1.24565-1.42837,3.56809,3.56809,0,0,1-.42272-1.72166,3.71464,3.71464,0,0,1,1.24945-2.80354,4.45531,4.45531,0,0,1,3.18078-1.1772,6.34686,6.34686,0,0,1,2.556.59045,2.61167,2.61167,0,0,0,.87986.278.67037.67037,0,0,0,.47606-.17126,1.4241,1.4241,0,0,0,.29707-.69718Zm-19.66318,1.16941v5.98045h3.32541a2.71769,2.71769,0,0,0,1.7295-.3885,2.51255,2.51255,0,0,0,.64738-1.80918h.4116V19.2388h-.4116a5.78592,5.78592,0,0,0-.31219-1.417,1.4022,1.4022,0,0,0-.659-.61336,3.36072,3.36072,0,0,0-1.40571-.22466h-3.32541v4.99011a4.78649,4.78649,0,0,0,.08753,1.22281.7202.7202,0,0,0,.31256.3464,1.94113,1.94113,0,0,0,.84935.12583h2.56731a6.82025,6.82025,0,0,0,1.86291-.17915,2.75138,2.75138,0,0,0,1.11612-.701,8.60529,8.60529,0,0,0,1.417-2.08726h.44563L126.83,24.49547H115.16627v-.4114h.537a2.12135,2.12135,0,0,0,1.01319-.25887.94181.94181,0,0,0,.48762-.53334,5.3858,5.3858,0,0,0,.12573-1.46288V11.9976a3.25083,3.25083,0,0,0-.28957-1.775,1.723,1.723,0,0,0-1.337-.44591h-.537V9.36162H126.83l.16755,3.31406h-.438a5.17991,5.17991,0,0,0-.518-1.63793,1.78223,1.78223,0,0,0-.84184-.68206,5.08975,5.08975,0,0,0-1.57306-.16755ZM97.89136,9.36162h4.10634L111.25038,20.713V11.9863a3.02166,3.02166,0,0,0-.31247-1.741,1.66216,1.66216,0,0,0-1.30658-.46853h-.52565V9.36162h5.26837v.41511h-.53724a1.53769,1.53769,0,0,0-1.35989.579,3.39968,3.39968,0,0,0-.24377,1.63061V24.73924h-.40381l-9.97656-12.18558v9.32113a3.09329,3.09329,0,0,0,.301,1.74085,1.67835,1.67835,0,0,0,1.30658.46843h.53334v.4114H98.7294v-.4114h.52185a1.55477,1.55477,0,0,0,1.375-.58266,3.37948,3.37948,0,0,0,.24377-1.62662V11.35a6.95663,6.95663,0,0,0-.99779-1.017,3.18371,3.18371,0,0,0-1.98084-.55634Zm-16.50561,0H85.4921L94.74478,20.713V11.9863a3.0238,3.0238,0,0,0-.31219-1.741A1.66286,1.66286,0,0,0,93.126,9.77673H92.6001V9.36162h5.26835v.41511h-.53714a1.53839,1.53839,0,0,0-1.36.579,3.39968,3.39968,0,0,0-.24377,1.63061V24.73924h-.40384L85.34746,12.55366v9.32113a3.092,3.092,0,0,0,.30087,1.74085,1.67778,1.67778,0,0,0,1.30659.46843h.53316v.4114H82.22379v-.4114h.52185a1.55539,1.55539,0,0,0,1.37529-.58266,3.38128,3.38128,0,0,0,.24356-1.62662V11.35a6.96017,6.96017,0,0,0-.99787-1.017,3.18373,3.18373,0,0,0-1.98087-.55634Zm-.25517,14.72245v.4114H74.64327v-.4114h.53725a1.60949,1.60949,0,0,0,1.35989-.54845,3.37787,3.37787,0,0,0,.27048-1.71794V12.03932a5.0516,5.0516,0,0,0-.14467-1.5158,1.01871,1.01871,0,0,0-.4572-.48,2.11458,2.11458,0,0,0-1.0285-.26676h-.53725V9.36162h6.48731v.41511h-.54844a1.60457,1.60457,0,0,0-1.34858.54475,3.26812,3.26812,0,0,0-.28179,1.71784v9.77836a5.04912,5.04912,0,0,0,.14464,1.5159,1.01133,1.01133,0,0,0,.46845.48,2.05383,2.05383,0,0,0,1.01728.27047ZM68.47256,9.77673V9.36162h5.35959v.41511H73.2605a1.5338,1.5338,0,0,0-1.3712.74679,3.41021,3.41021,0,0,0-.23626,1.60742v6.13651a10.8431,10.8431,0,0,1-.44934,3.53112,4.439,4.439,0,0,1-1.77509,2.156,6.34053,6.34053,0,0,1-3.59961.899,6.74542,6.74542,0,0,1-3.76-.86074,4.64281,4.64281,0,0,1-1.82081-2.3084,12.90056,12.90056,0,0,1-.358-3.72917V12.03932a2.94017,2.94017,0,0,0-.38469-1.82828,1.5802,1.5802,0,0,0-1.24167-.43431h-.57165V9.36162h6.54062v.41511h-.57916a1.49782,1.49782,0,0,0-1.34078.59054,3.2926,3.2926,0,0,0-.27808,1.67205v6.59773a14.69433,14.69433,0,0,0,.16,2.01882,4.35043,4.35043,0,0,0,.5865,1.775,3.17446,3.17446,0,0,0,1.22282,1.04767,4.19357,4.19357,0,0,0,1.95795.41511,5.40544,5.40544,0,0,0,2.65513-.64756,3.46321,3.46321,0,0,0,1.60375-1.657,9.6154,9.6154,0,0,0,.43052-3.42052V12.03932a3.12862,3.12862,0,0,0-.31257-1.77116,1.64694,1.64694,0,0,0-1.295-.49143ZM54.07421,2.64141,54.62266,9.381h-.54845a9.30387,9.30387,0,0,0-2.16248-3.79731A6.76224,6.76224,0,0,0,47.01145,3.744a6.96447,6.96447,0,0,0-6.20714,3.2273,11.59244,11.59244,0,0,0-1.78049,6.49231,13.00368,13.00368,0,0,0,1.17807,5.5778A8.29743,8.29743,0,0,0,43.3,22.73656a7.41218,7.41218,0,0,0,3.93207,1.17807,8.71911,8.71911,0,0,0,2.28609-.30118,9.10947,9.10947,0,0,0,2.12473-.88221V16.55112a5.76851,5.76851,0,0,0-.24215-2.10314,1.63433,1.63433,0,0,0-.75839-.75323,4.27306,4.27306,0,0,0-1.802-.26345v-.597h8.27284v.597h-.39278a1.759,1.759,0,0,0-1.68881.823,5.54265,5.54265,0,0,0-.312,2.29681v6.54051a16.25552,16.25552,0,0,1-3.577,1.43617,15.58632,15.58632,0,0,1-3.92673.4571q-6.18828,0-9.40747-3.96941a10.61262,10.61262,0,0,1-2.40977-6.87408A11.50841,11.50841,0,0,1,36.754,8.73553a11.57856,11.57856,0,0,1,4.41073-4.7278,11.97586,11.97586,0,0,1,7.67022-1.17806,19.08332,19.08332,0,0,1,2.70017.83384,4.32283,4.32283,0,0,0,1.1835.32807.62755.62755,0,0,0,.511-.27447,2.1284,2.1284,0,0,0,.25812-1.0757Z" transform="translate(-0.00001 0)"/><path class="cls-2" d="M108.00629,33.59309h2.16733l-.66782-2.20529q-.30352-1.00458-.45239-1.65267a12.06,12.06,0,0,1-.34507,1.52285Zm-1.843,3.27148,2.45452-7.96565h.91028l2.615,7.96565h-.96385l-.7452-2.41294h-2.67158l-.70071,2.41294Zm-1.63329,0V28.89892h.84479v7.96565Zm-5.73165-4.44925h1.81785a2.21714,2.21714,0,0,0,.906-.15035,1.02922,1.02922,0,0,0,.49676-.4785,1.53215,1.53215,0,0,0,.16944-.7141,1.20672,1.20672,0,0,0-1.36853-1.29256H98.79839Zm-.84479,4.44925V28.89892h2.8321a3.08816,3.08816,0,0,1,1.29875.215,1.56485,1.56485,0,0,1,.711.75666,2.70919,2.70919,0,0,1,.26477,1.20181,2.28878,2.28878,0,0,1-.44021,1.42829,2.0618,2.0618,0,0,1-1.3596.74,2.12183,2.12183,0,0,1,.51025.39677,5.43106,5.43106,0,0,1,.702,1.059l1.11127,2.16813h-1.06365l-.84506-1.65817c-.24673-.4765-.45068-.84372-.61129-1.09613a2.14726,2.14726,0,0,0-.42832-.532,1.16716,1.16716,0,0,0-.38519-.21336,2.14017,2.14017,0,0,0-.47176-.03725h-.9803v3.53691Zm-5.94882,0V28.89892h4.61906v.94019h-3.774V32.2779h3.53424v.93476H92.84984v2.71173h3.92244v.94018Zm-3.97035-3.12522v-.933l2.7058-.00532v2.95436a4.67306,4.67306,0,0,1-1.285.933A3.16588,3.16588,0,0,1,88.09554,37a3.031,3.031,0,0,1-2.8723-1.955,5.52129,5.52129,0,0,1-.393-2.12547,5.95254,5.95254,0,0,1,.39133-2.16964,3.04747,3.04747,0,0,1,1.12155-1.49862,2.97553,2.97553,0,0,1,1.687-.4879,2.75268,2.75268,0,0,1,1.2524.28016,2.13872,2.13872,0,0,1,.87766.77882,3.9028,3.9028,0,0,1,.4849,1.30387l-.76286.26154a3.3642,3.3642,0,0,0-.35726-.9571,1.5381,1.5381,0,0,0-.61127-.55634,1.85579,1.85579,0,0,0-.87928-.20954,2.1434,2.1434,0,0,0-1.00245.22057,1.9226,1.9226,0,0,0-.68294.57867,2.939,2.939,0,0,0-.40293.78822,5.08543,5.08543,0,0,0-.24406,1.60267,4.7104,4.7104,0,0,0,.2947,1.78228,2.168,2.168,0,0,0,.85666,1.0643,2.23027,2.23027,0,0,0,1.19309.34887,2.34822,2.34822,0,0,0,1.0725-.26532,2.6343,2.6343,0,0,0,.79288-.562V33.73935Zm-5.32519,3.12522V28.89892h.84488v7.96565Zm-6.59877,0V28.89892h.86719l3.35586,6.25389V28.89892h.81084v7.96565h-.86748L76.921,30.605v6.25957Z" transform="translate(-0.00001 0)"/><path class="cls-1" d="M150.876,2.5188h.47928V5.86709H150.876Zm-3.20664,0h2.166l-1.5165,3.38659-.42719-.18,1.227-2.74831h-1.4493Zm-2.45423,0h2.16628l-1.5167,3.38659-.427-.18,1.22711-2.74831h-1.44968Zm-.45949,2.57194v.52659a2.49806,2.49806,0,0,1-1.21827.28806,1.87172,1.87172,0,0,1-.95124-.2258,1.65822,1.65822,0,0,1-.61848-.62012,1.69006,1.69006,0,0,1-.22744-.8556,1.63282,1.63282,0,0,1,.52109-1.22947,1.79174,1.79174,0,0,1,1.28576-.49892,3.02842,3.02842,0,0,1,1.17247.27559v.51529a2.31336,2.31336,0,0,0-1.14843-.33539,1.32653,1.32653,0,0,0-.95475.36342,1.20463,1.20463,0,0,0-.38043.90948,1.19579,1.19579,0,0,0,.374.90569,1.33534,1.33534,0,0,0,.95637.35505A2.17776,2.17776,0,0,0,144.75567,5.09074Zm-5.21345-2.16461h-.1433V3.983h.18161a1.35035,1.35035,0,0,0,.5-.062.46764.46764,0,0,0,.211-.18836.5402.5402,0,0,0,.07506-.28607.51351.51351,0,0,0-.08315-.28642.45006.45006,0,0,0-.23655-.18076A1.69264,1.69264,0,0,0,139.54222,2.92613Zm-.62249,2.941V2.5188h.83833a1.21173,1.21173,0,0,1,.80657.25195.84457.84457,0,0,1,.29882.68073.83866.83866,0,0,1-.56634.82433,1.48907,1.48907,0,0,1,.3141.28711,5.75139,5.75139,0,0,1,.43136.63578c.11691.18969.21013.333.28037.42861l.17762.23978h-.57011l-.14656-.22087c-.00484-.0076-.01482-.02129-.02851-.0402l-.09324-.13171-.14893-.24462-.1603-.26182a2.63053,2.63053,0,0,0-.27239-.32787,1.0227,1.0227,0,0,0-.22249-.17592.75072.75072,0,0,0-.3346-.05388h-.12451V5.86709Z" transform="translate(-0.00001 0)"/><path class="cls-3" d="M9.8631,5.65826,7.96686,9.67407l.75354,1.62445,2.23382-5.05566C11.37689,5.54816,10.7594,4.46594,9.8631,5.65826Z" transform="translate(-0.00001 0)"/><path class="cls-3" d="M12.09186,6.43152l-2.67,6.14606.803,1.67346,2.28321-5.10547C13.88147,5.87189,12.74158,5.61493,12.09186,6.43152Z" transform="translate(-0.00001 0)"/><path class="cls-3" d="M5.76373,5.78839,6.88361,3.65564c-.45258-1.01746-2.528-1.1333-1.92151.65674Z" transform="translate(-0.00001 0)"/><path class="cls-3" d="M13.03259,19.61438l2.38086-5.2052c3.99951-8.62775,1.8349-7.14691,1.42975-6.82825L12.23,18.03973Z" transform="translate(-0.00001 0)"/><path class="cls-3" d="M7.69641,4.62646,6.51459,7.09167l.73565,1.40247,1.7-3.32556C9.1059,4.5824,8.38824,2.95062,7.69641,4.62646Z" transform="translate(-0.00001 0)"/><path class="cls-3" d="M14.41968,7.204l-3.59479,7.981.6048,1.52685,2.285-4.80914C16.70178,6.443,15.06952,6.38727,14.41968,7.204Z" transform="translate(-0.00001 0)"/><path class="cls-3" d="M7.198,1.458l-.41071.19061C12.91223,5.42163,18.08887,6.18182,22.209,3.58673l-.08429-.74737C18.191,5.48267,13.06464,4.57239,7.198,1.458Z" transform="translate(-0.00001 0)"/><path class="cls-3" d="M6.76672,1.65814l.02057-.00958c-.06006-.037-.11871-.06952-.17895-.10712Z" transform="translate(-0.00001 0)"/><path class="cls-3" d="M13.84052,21.22119l1.0307,2.12238L12.556,25.69421,4.36157,5.57135C3.21045,3.63751,1.392,4.25848,1.08649,5.46594c-.30866,1.80518,1.65631,2.105,2.603,1.5304l8.27417,20.83258c4.66376-4.76935,9.21173-11.36371,7.556-20.04053ZM2.5202,6.68658a.883.883,0,1,1-.01336-1.76367A.883.883,0,1,1,2.5202,6.68658Z" transform="translate(-0.00001 0)"/><path class="cls-4" d="M2.50684,4.92291A.883.883,0,1,0,2.5202,6.68658a.883.883,0,1,0-.01336-1.76367Z" transform="translate(-0.00001 0)"/><path class="cls-4" d="M23.96252,4.182,22.39734.31305C19.00421,2.77014,14.44562,3.40216,8.58063.54663,6.42944-.25916,2.62341-.44019.82874,1.8855L.9715,3.84637c-2.05866,2.20472-.32544,3.91181.45709,4.00531l7.58679,21.6504c.81006,2.11444,1.84375,1.817,3.16187.78637,6.75457-5.74188,10.91943-15.46924,8.62335-23.854l.76269-.2226c2.27423,11.38074-2.64221,19.27491-9.6864,24.67243.83515.92859,15.81781-8.91468,10.85657-25.66913ZM6.88361,3.65564,5.76373,5.78839l-.80163-1.476C4.35565,2.52234,6.431,2.63818,6.88361,3.65564Zm6.83105,8.24713-2.285,4.80914-.6048-1.52685,3.59479-7.981C15.06952,6.38727,16.70178,6.443,13.71466,11.90277ZM16.8432,7.58093c.40515-.31866,2.56976-1.7995-1.42975,6.82825l-2.38086,5.2052L12.23,18.03973ZM12.50812,9.14557,10.22491,14.251l-.803-1.67346,2.67-6.14606C12.74158,5.61493,13.88147,5.87189,12.50812,9.14557Zm-1.5539-2.90271L8.7204,11.29852,7.96686,9.67407,9.8631,5.65826C10.7594,4.46594,11.37689,5.54816,10.95422,6.24286ZM8.9502,5.16858l-1.7,3.32556L6.51459,7.09167,7.69641,4.62646C8.38824,2.95062,9.1059,4.5824,8.9502,5.16858Zm3.01342,22.66034L3.68945,6.99634c-.94665.57458-2.91162.27478-2.603-1.5304.30554-1.20746,2.124-1.82843,3.27508.10541L12.556,25.69421l2.31519-2.35064-1.0307-2.12238,5.67907-13.4328C21.17535,16.46521,16.62738,23.05957,11.96362,27.82892ZM6.78729,1.64856l-.02057.00958-.15838-.1167c.06024.0376.11889.07013.17895.10712L7.198,1.458c5.86664,3.11444,10.993,4.02472,14.92669,1.38141l.08429.74737C18.08887,6.18182,12.91223,5.42163,6.78729,1.64856Z" transform="translate(-0.00001 0)"/></svg>