<svg xmlns="http://www.w3.org/2000/svg" xmlns:xlink="http://www.w3.org/1999/xlink" id="Layer_1" x="0px" y="0px" width="1804.5px" height="560px" viewBox="0 0 1804.5 560" xml:space="preserve">
<g>
	<path fill="#CDA453" d="M303.338,343.515c-7.666,68.885-19.996,143.083-29.834,171.202c0,0-26.971,17.913-63.578,17.111   c-42.695,0.696-66.936-18.88-66.936-18.88c1.83,0.827,3.743,1.457,5.705,1.881c8.994,5.472,29.962,15.666,60.673,15.167   c35.89,0.786,62.335-16.776,62.335-16.776c9.366-26.748,21.032-96.021,28.57-161.809   C301.3,348.817,302.322,346.185,303.338,343.515z"></path>
	<path fill="#FFFFFF" stroke="#FFFFFF" stroke-width="2" stroke-miterlimit="10" d="M306.184,338.772   c-7.666,71.544-19.996,148.605-29.834,177.809c0,0-26.971,18.605-63.578,17.772c-42.695,0.723-66.936-19.609-66.936-19.609   c1.83,0.859,3.743,1.513,5.705,1.953c8.994,5.683,29.962,16.271,60.673,15.752c35.89,0.817,62.335-17.424,62.335-17.424   c9.366-27.78,21.032-99.727,28.57-168.054C304.146,344.278,305.168,341.545,306.184,338.772z"></path>
	
		<linearGradient id="SVGID_1_" gradientUnits="userSpaceOnUse" x1="-392.4022" y1="878.0613" x2="-121.7272" y2="878.0613" gradientTransform="matrix(0.56 0 0 0.56 368.44 -51)">
		<stop offset="0" style="stop-color:#020F58"></stop>
		<stop offset="0.18" style="stop-color:#02125C"></stop>
		<stop offset="0.34" style="stop-color:#031B67"></stop>
		<stop offset="0.51" style="stop-color:#042B7B"></stop>
		<stop offset="0.67" style="stop-color:#064196"></stop>
		<stop offset="0.84" style="stop-color:#095DB9"></stop>
		<stop offset="1" style="stop-color:#0C7FE3"></stop>
		<stop offset="1" style="stop-color:#0C80E4"></stop>
	</linearGradient>
	<path fill="url(#SVGID_1_)" d="M300.273,351.409c-7.538,65.788-19.204,135.088-28.57,161.809c0,0-26.445,17.563-62.335,16.776   c-30.711,0.499-51.679-9.695-60.673-15.167C168.059,519.397,233.815,520.135,300.273,351.409z"></path>
	<path fill="#CDA453" stroke="#CCA256" stroke-miterlimit="10" d="M207.53,38.548c0,0-1.254,0.951-3.506,2.959   c-30.828,0.972-93.976,8.314-93.976,8.314c-4.537,62.835-4.361,142.313-4.075,173.714c-0.985,3.542-1.948,7.138-2.89,10.789   c-1.413,5.477-1.881-107.214,3.905-187.346C106.988,46.984,180.352,38.436,207.53,38.548z"></path>
	<path fill="#FFFFFF" stroke="#FFFFFF" stroke-width="3" stroke-miterlimit="10" d="M207.993,34.254c0,0-1.301,1.072-3.638,3.336   c-31.989,1.096-97.517,9.374-97.517,9.374c-4.708,70.844-4.526,160.454-4.228,195.858c-1.022,3.993-2.021,8.048-2.999,12.165   c-1.466,6.175-1.951-120.881,4.052-211.227C103.663,43.765,179.791,34.128,207.993,34.254z"></path>
	
		<linearGradient id="SVGID_2_" gradientUnits="userSpaceOnUse" x1="-317.5956" y1="158.1888" x2="-494.8864" y2="370.9396" gradientTransform="matrix(0.56 0 0 0.56 368.44 -51)">
		<stop offset="0" style="stop-color:#0C80E4"></stop>
		<stop offset="0.24" style="stop-color:#0858B2"></stop>
		<stop offset="0.47" style="stop-color:#06388B"></stop>
		<stop offset="0.68" style="stop-color:#04226F"></stop>
		<stop offset="0.86" style="stop-color:#02145E"></stop>
		<stop offset="1" style="stop-color:#020F58"></stop>
	</linearGradient>
	<path fill="url(#SVGID_2_)" d="M204.023,41.507c-13.833,12.314-65.438,64.46-98.05,182.028   c-0.287-31.391-0.462-110.869,4.075-173.714C110.048,49.821,173.196,42.479,204.023,41.507z"></path>
	
		<ellipse transform="matrix(-0.2368 0.9716 -0.9716 -0.2368 517.2504 122.0655)" fill="#FFFFFF" cx="210.682" cy="264.191" rx="260.371" ry="112.319"></ellipse>
	
		<linearGradient id="SVGID_3_" gradientUnits="userSpaceOnUse" x1="21.3408" y1="223.0349" x2="-390.4056" y2="608.8929" gradientTransform="matrix(0.56 0 0 0.56 368.44 -51)">
		<stop offset="0" style="stop-color:#020F58"></stop>
		<stop offset="0.1" style="stop-color:#02125B"></stop>
		<stop offset="0.19" style="stop-color:#031A65"></stop>
		<stop offset="0.26" style="stop-color:#042776"></stop>
		<stop offset="0.34" style="stop-color:#063B8E"></stop>
		<stop offset="0.41" style="stop-color:#0854AD"></stop>
		<stop offset="0.47" style="stop-color:#0B72D2"></stop>
		<stop offset="0.5" style="stop-color:#0C80E4"></stop>
		<stop offset="0.57" style="stop-color:#0C7CDF"></stop>
		<stop offset="0.67" style="stop-color:#0B6FD0"></stop>
		<stop offset="0.77" style="stop-color:#095BB6"></stop>
		<stop offset="0.87" style="stop-color:#073F94"></stop>
		<stop offset="0.98" style="stop-color:#031B67"></stop>
		<stop offset="1" style="stop-color:#031560"></stop>
	</linearGradient>
	<path fill="url(#SVGID_3_)" d="M153.694,136.412c0,0,44.571-69.114,86.639-69.114s54.229,53.804,54.229,105.716   c2.061,53.841-19.656,137.102-47.875,203.331c0,0,70.431-109.031,70.431-238.265c0-52.199-17.196-109.509-54.914-109.509   C208.05,28.571,153.694,136.412,153.694,136.412z"></path>
	
		<linearGradient id="SVGID_4_" gradientUnits="userSpaceOnUse" x1="-476.924" y1="682.8911" x2="-76.1193" y2="682.8911" gradientTransform="matrix(0.56 0 0 0.56 368.44 -51)">
		<stop offset="0.1" style="stop-color:#D2AE66"></stop>
		<stop offset="0.17" style="stop-color:#CDA453"></stop>
		<stop offset="0.36" style="stop-color:#F2E8D3"></stop>
		<stop offset="0.39" style="stop-color:#F8F2E6"></stop>
		<stop offset="0.48" style="stop-color:#F0E3CA"></stop>
		<stop offset="0.65" style="stop-color:#E1C897"></stop>
		<stop offset="0.8" style="stop-color:#D6B472"></stop>
		<stop offset="0.92" style="stop-color:#CFA85B"></stop>
		<stop offset="1" style="stop-color:#CDA453"></stop>
	</linearGradient>
	<path fill="url(#SVGID_4_)" d="M103.211,330.909c0,38.116,10.253,124.432,60.481,124.432c95.734,0,153.426-220.994,161.836-294.741   c5.456,86.06-67.908,341.638-168.933,341.638C86.004,502.238,103.211,330.909,103.211,330.909z"></path>
	
		<radialGradient id="SVGID_5_" cx="-314.3006" cy="530.9946" r="140.7492" gradientTransform="matrix(0.56 0 0 0.56 368.44 -51)" gradientUnits="userSpaceOnUse">
		<stop offset="0" style="stop-color:#0C80E4"></stop>
		<stop offset="1" style="stop-color:#020F58"></stop>
	</radialGradient>
	<path fill="url(#SVGID_5_)" d="M261.997,245.316c0,0,10.205-8.957,11.246-18.12c2.534-22.312-25.622-53.124-67.897-53.124v153.091   c0,0,66.856-2.693,72.068-58.107C278.922,253.003,261.997,245.316,261.997,245.316z M229.294,205.027   c14.721,0,23.619,10.433,23.619,18.561c0.395,5.38-2.763,10.389-7.788,12.351h-15.831V205.027z M255.017,283.219   c-8.016,11.873-25.722,13.536-25.722,13.536V260.1c24.58-2.497,26.275,2.242,27.624,5.52   C258.523,269.402,258.385,277.806,255.017,283.219z"></path>
	
		<radialGradient id="SVGID_6_" cx="-314.3006" cy="530.9946" r="140.7492" gradientTransform="matrix(0.56 0 0 0.56 368.44 -51)" gradientUnits="userSpaceOnUse">
		<stop offset="0" style="stop-color:#0C80E4"></stop>
		<stop offset="1" style="stop-color:#020F58"></stop>
	</radialGradient>
	<path fill="url(#SVGID_6_)" d="M195.487,174.082v153.081c-7.895,0.011-15.77-0.789-23.502-2.385l-35.152-94.666v80.514   c-6.942-4.419-13.221-9.803-18.646-15.99l0.398-88.472c6.809-7.615,14.877-14.002,23.853-18.88l30.812,72.971v-84.032   C180.575,174.793,188.022,174.076,195.487,174.082z"></path>
</g>
<g>
	<g>
		<path fill="#FFFFFF" stroke="#FFFFFF" stroke-miterlimit="10" d="M909.081,218.056c0-0.844,0-1.572,0-2.361    c0.506-0.073,0.882-0.176,1.258-0.175c11.733,0.023,23.467-0.019,35.198,0.121c5.07,0.061,10.102,0.823,14.737,3.003    c2.505,1.178,4.974,2.604,7.122,4.335c8.933,7.201,9.048,22.034-0.548,29.273c-2.567,1.936-5.352,3.435-8.33,4.606    c-0.707,0.278-1.411,0.565-2.689,1.078c1.252,0.382,1.988,0.623,2.734,0.832c6.988,1.959,12.68,5.764,16.776,11.818    c3.237,4.783,4.356,10.109,3.633,15.771c-0.852,6.664-4.655,11.367-10.34,14.677c-5.248,3.055-11.027,4.215-16.987,4.265    c-13.676,0.114-27.353,0.038-41.029,0.032c-0.454,0-0.909-0.07-1.515-0.12c0-0.812,0-1.534,0-2.306    c1.37-0.252,2.671-0.419,3.934-0.74c2.352-0.598,4.015-2.088,4.763-4.379c0.526-1.61,0.871-3.306,1.066-4.99    c0.213-1.846,0.214-3.723,0.215-5.586c0.014-17.873,0.029-35.745-0.014-53.618c-0.006-2.632-0.107-5.297-0.532-7.886    c-0.857-5.219-2.885-6.954-8.207-7.52C909.948,218.147,909.575,218.108,909.081,218.056z M931.078,260.502    c-0.051,0.746-0.101,1.127-0.1,1.507c0.006,9.013-0.039,18.027,0.065,27.039c0.027,2.31,0.338,4.656,0.848,6.911    c0.893,3.951,2.994,5.658,7.059,5.804c3.491,0.126,7.002,0.186,10.484-0.04c6.839-0.444,11.632-4.01,14.319-10.264    c1.962-4.567,2.149-9.373,1.053-14.176c-1.68-7.363-6.502-11.999-13.318-14.751C944.945,259.89,938.081,260.571,931.078,260.502z     M931.116,219.002c0,12.808,0,25.279,0,37.967c3.388,0,6.637,0.064,9.881-0.025c1.855-0.051,3.744-0.167,5.548-0.569    c6.734-1.501,11.761-5.111,14.041-11.904c0.829-2.47,0.929-5.026,0.839-7.602c-0.298-8.596-5.134-14.656-13.423-16.896    C942.494,218.485,936.895,219.22,931.116,219.002z"></path>
		<path fill="#FFFFFF" stroke="#FFFFFF" stroke-miterlimit="10" d="M397.095,228.207c0,0.838,0,1.676,0,2.514    c0,19.205-0.005,38.409,0.009,57.614c0.001,1.786,0.029,3.583,0.216,5.357c0.577,5.482,3.55,8.374,9.028,8.907    c0.759,0.074,1.519,0.139,2.404,0.22c0.043,0.779,0.08,1.449,0.115,2.087c-1.841,0.557-20.341,0.76-27.031,0.317    c0-0.764,0-1.542,0-2.348c1.447-0.236,2.83-0.39,4.177-0.697c2.718-0.62,4.615-2.281,5.387-4.955    c0.557-1.927,0.888-3.933,1.158-5.925c0.187-1.378,0.128-2.794,0.128-4.193c0.007-17.261,0.023-34.522-0.018-51.783    c-0.005-2.243-0.149-4.514-0.524-6.722c-0.963-5.671-4.048-8.76-9.672-9.962c-0.907-0.194-1.82-0.359-2.87-0.564    c0-0.761,0-1.499,0-2.566c0.789,0,1.535,0,2.282,0c6.142,0,12.286,0.057,18.427-0.039c1.581-0.025,2.551,0.529,3.511,1.722    c17.598,21.863,35.233,43.696,52.863,65.534c0.557,0.69,1.142,1.358,1.715,2.036c0.156-0.058,0.311-0.117,0.467-0.175    c0-0.746,0-1.492,0-2.238c0-16.25,0.035-32.5-0.035-48.75c-0.012-2.779-0.228-5.607-0.785-8.323    c-0.924-4.505-3.054-6.288-7.587-6.979c-0.755-0.115-1.521-0.166-2.404-0.26c0-0.81,0-1.54,0-2.399c8.962,0,17.782,0,26.773,0    c0,0.816,0,1.539,0,2.325c-1.508,0.24-2.965,0.399-4.387,0.714c-3.063,0.679-5.211,2.49-5.956,5.573    c-0.508,2.099-0.875,4.276-0.936,6.429c-0.144,5.05-0.075,10.106-0.076,15.16c-0.004,18.816-0.002,37.632-0.002,56.448    c0,0.918,0,1.837,0,2.711c-1.933,0.805-3.024,0.074-4.129-1.285c-19.955-24.557-39.948-49.083-59.934-73.614    c-0.574-0.704-1.169-1.391-1.755-2.087C397.467,228.076,397.281,228.142,397.095,228.207z"></path>
		<path fill="#FFFFFF" stroke="#FFFFFF" stroke-miterlimit="10" d="M536.64,318.444c-2.352-0.985-4.438-1.66-6.333-2.688    c-6.679-3.623-7.552-9.924-2.179-15.341c2.901-2.924,6.51-4.741,10.258-6.311c1.055-0.442,2.107-0.893,3.5-1.483    c-1.386-0.502-2.401-0.847-3.399-1.235c-5.505-2.135-9.988-5.538-12.323-11.073c-5.051-11.975,0.423-27.598,15.635-31.268    c2.31-0.557,4.777-0.677,7.168-0.651c9.947,0.105,19.892,0.343,29.838,0.536c0.378,0.007,0.755,0.054,1.299,0.095    c0,1.97,0,3.867,0,6.04c-4.59,0-9.207,0-14.303,0c0.594,0.953,0.91,1.517,1.278,2.044c2.869,4.105,4.67,8.568,4.759,13.653    c0.203,11.617-8.701,21.577-20.279,22.443c-5.283,0.395-9.983,2.181-14.266,5.179c-1.073,0.751-2.101,1.628-2.954,2.617    c-1.81,2.1-1.556,4.696,0.724,6.275c1.246,0.862,2.744,1.516,4.223,1.857c5.143,1.186,10.339,2.145,15.493,3.285    c4.394,0.972,8.783,1.988,13.127,3.161c1.701,0.459,3.357,1.254,4.885,2.15c6.451,3.785,8.798,10.015,6.601,17.185    c-1.304,4.258-3.998,7.498-7.45,10.178c-6.285,4.88-13.534,7.221-21.36,7.815c-6.629,0.504-13.207,0.169-19.534-2.208    c-2.866-1.077-5.499-2.546-7.766-4.62c-5.959-5.45-6.035-14.072-0.148-19.593c3.276-3.073,7.235-5.073,11.251-6.968    C535.067,319.195,535.746,318.869,536.64,318.444z M552.813,347.269c2.697-0.267,5.416-0.4,8.087-0.833    c3.726-0.604,7.154-2.006,10.087-4.477c4.323-3.643,5.293-11.146-1.354-14.817c-1.821-1.005-3.758-1.956-5.76-2.449    c-6.921-1.707-13.893-3.207-20.851-4.763c-0.519-0.116-1.114-0.18-1.614-0.044c-4.52,1.225-8.925,2.748-12.453,5.999    c-4.462,4.112-4.423,9.949,0.024,14.1c2.017,1.883,4.42,3.137,6.954,4.153C541.344,346.306,547.004,347.071,552.813,347.269z     M534.489,270.49c0,0.932-0.067,1.869,0.011,2.795c0.371,4.394,1.376,8.59,4.081,12.203c4.934,6.592,14.251,6.662,19.124,0.033    c1.218-1.657,2.172-3.616,2.801-5.579c1.613-5.041,1.786-10.234,0.822-15.433c-0.617-3.329-1.882-6.414-4.16-8.984    c-3.027-3.415-6.795-4.736-11.313-3.897c-4.36,0.81-7.123,3.59-9.056,7.345C534.942,262.579,534.366,266.477,534.489,270.49z"></path>
		<path fill="#FFFFFF" stroke="#FFFFFF" stroke-miterlimit="10" d="M1538.781,302.839c0,0.79,0,1.461,0,2.127    c-1.651,0.455-28.609,0.596-31.995,0.149c0-0.699,0-1.421,0-2.259c1.023-0.147,2.016-0.244,2.99-0.437    c3.004-0.596,5.069-2.298,5.895-5.295c0.39-1.416,0.676-2.87,0.877-4.325c0.159-1.149,0.159-2.326,0.16-3.491    c0.009-19.123,0.022-38.247-0.017-57.37c-0.004-2.087-0.169-4.201-0.531-6.255c-0.882-5.011-3.027-6.923-8.064-7.486    c-0.378-0.042-0.758-0.076-1.262-0.126c-0.08-0.396-0.2-0.755-0.212-1.116c-0.012-0.375,0.081-0.753,0.136-1.187    c0.342-0.092,0.63-0.237,0.917-0.237c11.349,0.018,22.698-0.019,34.045,0.108c5.947,0.067,11.763,1.086,17.219,3.592    c5.661,2.6,10.356,6.331,13.087,12.08c6.017,12.669,0.006,26.278-13.522,30.658c-6.444,2.087-13.093,2.523-19.811,2.15    c-2.714-0.151-5.421-0.428-8.133-0.632c-0.525-0.04-1.055-0.006-1.727-0.006c-0.048,0.784-0.125,1.464-0.126,2.143    c-0.008,7.774-0.068,15.548,0.034,23.321c0.033,2.467,0.299,4.973,0.822,7.383c0.872,4.022,3.017,5.773,7.075,6.266    C1537.318,302.678,1537.999,302.75,1538.781,302.839z M1528.837,219.017c0,13.65,0,26.897,0,40.127    c0.401,0.177,0.672,0.346,0.966,0.419c6.132,1.517,12.314,1.828,18.412,0.061c6.874-1.992,11.394-6.444,12.939-13.588    c0.613-2.834,0.563-5.711,0.199-8.578c-1.064-8.4-6.77-16.486-16.829-18.049C1539.367,218.608,1534.174,219.164,1528.837,219.017z    "></path>
		<path fill="#FFFFFF" stroke="#FFFFFF" stroke-miterlimit="10" d="M1169.275,306.407c-0.949,0-1.711,0-2.703,0    c-5.769-14.296-11.545-28.608-17.539-43.46c-3.259,7.536-5.943,14.769-8.827,21.916c-2.876,7.127-5.675,14.284-8.536,21.499    c-0.919,0-1.744,0-2.636,0c-0.366-0.831-0.724-1.597-1.044-2.379c-5.949-14.519-11.894-29.04-17.841-43.559    c-0.265-0.647-0.547-1.287-0.823-1.929c-1.452-3.376-4.089-5.172-7.651-5.726c-0.383-0.06-0.775-0.061-1.161-0.104    c-0.3-0.033-0.597-0.09-1.05-0.161c0-0.782,0-1.513,0-2.389c8.802,0,17.553,0,26.527,0c0.058,0.725,0.117,1.451,0.182,2.267    c-1.262,0.276-2.409,0.432-3.491,0.787c-1.86,0.61-2.493,1.617-2.203,3.546c0.159,1.064,0.478,2.127,0.877,3.129    c4.03,10.1,8.089,20.188,12.151,30.274c0.163,0.404,0.431,0.765,0.774,1.362c0.44-1.081,0.799-1.933,1.135-2.794    c3.587-9.189,7.186-18.374,10.735-27.577c0.448-1.163,1.441-2.282,0.521-3.711c-1.139-1.771-2.13-3.669-4.365-4.292    c-0.96-0.267-1.948-0.433-3.046-0.672c0-0.746,0-1.478,0-2.336c8.856,0,17.604,0,26.475,0c0,0.854,0,1.584,0,2.332    c-1.339,0.262-2.575,0.402-3.747,0.755c-2.6,0.783-3.599,2.545-3.012,5.18c0.185,0.83,0.443,1.653,0.755,2.445    c3.794,9.609,7.602,19.211,11.414,28.813c0.225,0.568,0.507,1.113,0.872,1.906c0.389-0.859,0.699-1.475,0.952-2.114    c3.433-8.665,6.87-17.329,10.274-26.006c0.537-1.37,1.004-2.782,1.345-4.212c0.846-3.543-0.415-5.511-3.965-6.306    c-0.821-0.184-1.667-0.255-2.63-0.397c0-0.795,0-1.526,0-2.39c7.118,0,14.153,0,21.297,0c0,0.808,0,1.485,0,2.446    c-0.765,0.049-1.507,0.12-2.25,0.14c-3.753,0.1-6.561,1.685-8.161,5.173c-0.906,1.975-1.883,3.924-2.685,5.941    c-5.31,13.353-10.581,26.721-15.867,40.083C1170.016,304.677,1169.673,305.457,1169.275,306.407z"></path>
		<path fill="#FFFFFF" stroke="#FFFFFF" stroke-miterlimit="10" d="M836.049,305.2c0-0.812,0-1.487,0-2.394    c0.841-0.059,1.675-0.079,2.497-0.184c1.076-0.138,2.161-0.273,3.21-0.535c1.911-0.478,3.099-1.733,3.456-3.676    c0.195-1.064,0.342-2.154,0.345-3.233c0.026-9.404,0.039-18.808-0.01-28.211c-0.008-1.461-0.184-2.966-0.566-4.374    c-1.859-6.835-9.356-10.327-16.242-7.632c-4.049,1.584-6.936,4.607-9.708,7.798c-1.231,1.417-1.779,2.901-1.749,4.84    c0.116,7.459,0.024,14.921,0.062,22.382c0.011,2.173,0.106,4.353,0.318,6.515c0.41,4.186,2.007,5.701,6.226,6.099    c0.834,0.079,1.671,0.119,2.597,0.183c0,0.859,0,1.535,0,2.386c-9.628,0-19.21,0-28.922,0c0-0.746,0-1.416,0-2.257    c0.596-0.085,1.181-0.17,1.767-0.253c0.997-0.141,2-0.252,2.991-0.426c2.06-0.362,3.366-1.551,3.711-3.64    c0.24-1.451,0.5-2.919,0.52-4.382c0.079-6.061,0.076-12.123,0.09-18.184c0.011-4.741,0.017-9.482-0.008-14.222    c-0.008-1.397-0.038-2.805-0.22-4.186c-0.37-2.801-1.441-3.968-4.203-4.555c-1.429-0.303-2.905-0.39-4.569-0.602    c0-0.752,0-1.528,0-2.508c6.471-0.597,12.864-1.186,19.545-1.802c0,3.705,0,7.081,0,10.56c1.206,0.059,1.523-0.776,2.015-1.269    c3.55-3.558,7.424-6.6,12.306-8.156c11.944-3.809,23.461,3.799,24.458,16.288c0.29,3.633,0.203,7.298,0.226,10.948    c0.033,5.362-0.028,10.725,0.029,16.087c0.019,1.778,0.17,3.57,0.453,5.325c0.387,2.4,1.87,3.876,4.287,4.308    c1.441,0.258,2.898,0.428,4.506,0.66c0,0.715,0,1.439,0,2.303C855.656,305.2,845.908,305.2,836.049,305.2z"></path>
		<path fill="#FFFFFF" stroke="#FFFFFF" stroke-miterlimit="10" d="M774.266,271.809c-0.101-2.287-0.074-4.389-0.306-6.462    c-1.025-9.194-9.174-13.088-17.13-10.285c-4.368,1.539-7.168,4.782-8.999,8.938c-0.277,0.629-0.524,1.27-0.84,2.039    c-0.89-0.212-1.691-0.404-2.687-0.641c0.19-0.823,0.299-1.495,0.501-2.137c4.485-14.258,19.01-17.95,29.896-12.732    c5.932,2.843,9,7.922,9.809,14.373c0.222,1.769,0.282,3.567,0.289,5.352c0.031,7.309-0.015,14.618,0.032,21.926    c0.014,2.092,0.122,4.201,0.418,6.269c0.248,1.731,1.219,2.594,2.494,2.656c1.492,0.072,2.239-0.912,2.765-2.104    c0.438-0.993,0.793-2.023,1.233-3.163c0.721,0,1.468,0,2.214,0c0.68,4.144-2.402,9.118-6.561,10.605    c-5.672,2.029-9.454,0.087-13.348-6.937c-1.377,1.261-2.696,2.548-4.098,3.736c-4.675,3.963-10.063,4.724-15.772,3.061    c-7.926-2.309-12.391-10.25-10.252-17.862c0.882-3.139,2.681-5.698,5.527-7.214c3.07-1.635,6.286-3.045,9.552-4.248    c3.492-1.286,7.13-2.173,10.676-3.318C771.211,273.166,772.675,272.459,774.266,271.809z M774.185,275.313    c-5.027,1.91-9.747,3.331-14.225,5.496c-6.999,3.384-7.172,13.487-2.607,17.958c1.574,1.541,3.401,2.521,5.614,2.338    c4.231-0.35,7.708-2.229,10.284-5.621c0.485-0.639,0.884-1.532,0.894-2.313C774.219,287.36,774.185,281.547,774.185,275.313z"></path>
		<path fill="#FFFFFF" stroke="#FFFFFF" stroke-miterlimit="10" d="M1581.78,211.289c0-0.885,0-1.558,0-2.453    c7.153-0.683,14.187-1.695,21.612-1.942c0,1.152,0,2.06,0,2.968c0,27.904-0.006,55.809,0.017,83.713    c0.001,1.544,0.142,3.103,0.389,4.627c0.361,2.228,1.739,3.636,3.966,4.025c1.819,0.318,3.671,0.453,5.667,0.689    c0,0.703,0,1.427,0,2.287c-10.207,0-20.351,0-30.615,0c-0.074-0.402-0.189-0.767-0.197-1.134    c-0.009-0.371,0.087-0.746,0.178-1.431c1.267,0,2.491,0.062,3.706-0.012c3.453-0.208,5.074-1.559,5.757-4.958    c0.303-1.511,0.425-3.081,0.432-4.625c0.044-10.104,0.036-20.209,0.039-30.314c0.004-13.991,0.004-27.982-0.004-41.973    c-0.001-1.32,0.016-2.65-0.128-3.959c-0.357-3.267-1.976-4.871-5.244-5.196C1585.588,211.427,1583.807,211.398,1581.78,211.289z"></path>
		<path fill="#FFFFFF" stroke="#FFFFFF" stroke-miterlimit="10" d="M1253.391,271.433c-6.891,0-13.628,0-20.365,0    c-6.664,0-13.328,0-20.091,0c-0.357,3.017-0.051,5.774,0.369,8.518c0.663,4.335,1.893,8.493,4.242,12.238    c3.28,5.232,7.803,8.874,13.941,10.083c5.255,1.035,10.254,0.165,14.543-3.214c2.25-1.772,4.257-3.853,6.368-5.8    c0.547-0.505,1.075-1.031,1.839-1.766c0.284,2.191,0.248,3.798-1.195,5.396c-3.82,4.229-7.982,7.892-13.686,9.223    c-12.392,2.892-26.356-0.537-33.895-13.016c-3.163-5.235-4.155-11.006-3.76-17.024c0.676-10.292,5.208-18.439,13.977-23.979    c9.1-5.75,24.274-5.962,33.562,5.883C1252.267,261.836,1253.696,266.222,1253.391,271.433z M1242.913,268.674    c-0.065-1.43-0.068-2.582-0.178-3.723c-0.654-6.758-5.523-12.115-11.9-13.129c-7.251-1.153-13.33,1.963-16.145,8.512    c-0.876,2.037-1.249,4.296-1.785,6.47c-0.137,0.556-0.021,1.175-0.021,1.87C1222.919,268.674,1232.739,268.674,1242.913,268.674z"></path>
		<path fill="#FFFFFF" stroke="#FFFFFF" stroke-miterlimit="10" d="M1409.962,271.381c-13.562,0-26.977,0-40.334,0    c-0.195,0.411-0.375,0.612-0.373,0.812c0.034,5.64,0.712,11.182,2.976,16.402c3.052,7.036,8.043,12.002,15.718,13.649    c5.245,1.126,10.254,0.204,14.559-3.147c2.26-1.76,4.279-3.834,6.377-5.797c0.555-0.519,1-1.156,1.778-2.073    c0.539,2.325,0.458,3.875-0.879,5.395c-3.815,4.333-8.011,8.077-13.807,9.459c-12.409,2.96-26.554-0.529-34.07-13.12    c-2.62-4.389-3.684-9.214-3.735-14.268c-0.091-9.071,2.889-16.9,9.548-23.219c11.521-10.933,30.406-9.1,38.998,3.808    C1409.111,262.879,1410.151,266.837,1409.962,271.381z M1399.564,268.666c-0.181-1.841-0.219-3.457-0.514-5.026    c-1.559-8.291-8.646-13.133-17.213-11.824c-7.331,1.12-13.165,9.076-12.253,16.85    C1379.406,268.666,1389.244,268.666,1399.564,268.666z"></path>
		<path fill="#FFFFFF" stroke="#FFFFFF" stroke-miterlimit="10" d="M1093.069,271.433c-6.885,0-13.635,0-20.386,0    c-6.666,0-13.333,0-20.208,0c-0.096,3.347,0.183,6.415,0.72,9.457c0.818,4.64,2.299,9.039,5.139,12.871    c3.265,4.406,7.471,7.487,12.922,8.523c5.183,0.985,10.112,0.168,14.355-3.116c2.326-1.8,4.386-3.945,6.56-5.941    c0.544-0.499,1.064-1.025,1.807-1.745c0.424,2.244,0.196,3.829-1.207,5.415c-4.343,4.91-9.286,8.777-15.978,9.705    c-10.857,1.506-20.572-0.731-28.294-9.056c-4.954-5.341-7.075-11.794-7.132-18.966c-0.073-9.072,2.952-16.894,9.634-23.184    c11.561-10.884,30.445-8.961,38.982,3.978C1092.307,262.895,1093.415,267.053,1093.069,271.433z M1082.825,268.628    c-0.254-2.136-0.277-4.016-0.725-5.787c-1.38-5.462-4.694-9.294-10.254-10.667c-5.547-1.37-10.684-0.459-14.733,3.946    c-3.189,3.47-4.34,7.734-4.588,12.508C1062.576,268.628,1072.47,268.628,1082.825,268.628z"></path>
		<path fill="#FFFFFF" stroke="#FFFFFF" stroke-miterlimit="10" d="M639.66,271.38c-13.561,0-26.977,0-40.443,0    c-0.134,0.482-0.284,0.764-0.28,1.044c0.09,5.318,0.695,10.558,2.724,15.525c3,7.345,8.032,12.565,15.986,14.293    c5.242,1.138,10.253,0.206,14.558-3.145c2.261-1.76,4.287-3.825,6.371-5.803c0.55-0.522,0.92-1.233,1.592-1.701    c0.732,1.958,0.651,3.509-0.687,5.028c-3.814,4.333-8.011,8.077-13.806,9.459c-12.41,2.961-26.555-0.53-34.071-13.12    c-2.62-4.389-3.684-9.214-3.735-14.268c-0.091-9.071,2.888-16.9,9.547-23.219c11.522-10.934,30.406-9.101,38.998,3.806    C638.809,262.878,639.849,266.836,639.66,271.38z M629.319,268.625c-0.251-2.126-0.271-4.005-0.72-5.775    c-1.409-5.556-4.796-9.408-10.472-10.731c-5.57-1.297-10.689-0.307-14.667,4.165c-3.069,3.45-4.203,7.644-4.433,12.34    C609.066,268.625,618.961,268.625,629.319,268.625z"></path>
		<path fill="#FFFFFF" stroke="#FFFFFF" stroke-miterlimit="10" d="M647.014,252.516c0-0.876,0-1.557,0-2.505    c7.265-0.556,14.466-1.548,22.071-1.671c0,3.91,0,7.584,0,11.718c0.9-0.658,1.385-0.987,1.841-1.351    c2.369-1.891,4.703-3.826,7.105-5.672c1.229-0.944,2.538-1.799,3.876-2.583c5.701-3.34,11.278-2.555,16.229,2.363    c-1.322,3.115-2.674,6.303-4.091,9.642c-1.905-0.921-3.664-1.689-5.346-2.6c-6.264-3.393-11.848-2.463-17.145,2.215    c-1.803,1.592-2.592,3.122-2.553,5.532c0.139,8.626,0.047,17.256,0.063,25.885c0.002,1.241,0.044,2.491,0.187,3.722    c0.364,3.131,1.496,4.41,4.55,5.069c1.352,0.292,2.747,0.384,4.328,0.594c0.033,0.729,0.066,1.458,0.105,2.329    c-9.733,0-19.271,0-29.019,0c0-0.747,0-1.531,0-2.314c1.629-0.232,3.162-0.402,4.676-0.676c2.13-0.386,3.533-1.639,3.87-3.808    c0.321-2.066,0.644-4.158,0.658-6.241c0.067-10.105,0.047-20.211,0.012-30.316c-0.005-1.469-0.179-2.951-0.416-4.403    c-0.392-2.406-1.791-3.933-4.264-4.275c-1.688-0.233-3.393-0.351-5.091-0.517C648.204,252.609,647.746,252.577,647.014,252.516z"></path>
		<path fill="#FFFFFF" stroke="#FFFFFF" stroke-miterlimit="10" d="M1260.881,252.533c0-0.871,0-1.6,0-2.523    c7.246-0.576,14.386-1.525,21.831-1.676c0,3.899,0,7.596,0,11.664c0.753-0.453,1.208-0.664,1.59-0.968    c2.555-2.031,5.07-4.113,7.651-6.11c1.164-0.901,2.415-1.704,3.686-2.449c5.712-3.352,11.303-2.582,16.236,2.323    c-0.644,1.555-1.311,3.194-2,4.823c-0.663,1.567-1.348,3.125-2.085,4.828c-1.085-0.527-2.028-1.044-3.016-1.453    c-2.363-0.979-4.714-2.002-7.131-2.831c-2.545-0.873-5.143-0.67-7.423,0.749c-2.296,1.429-4.401,3.162-6.595,4.755    c-0.715,0.519-0.815,1.237-0.813,2.056c0.018,9.95,0.017,19.901,0.021,29.851c0,0.155,0.007,0.311,0.016,0.466    c0.252,4.382,1.899,6.099,6.295,6.546c0.91,0.092,1.825,0.143,2.831,0.22c0,0.846,0,1.52,0,2.365c-9.636,0-19.233,0-29.002,0    c-0.063-0.315-0.176-0.667-0.192-1.024c-0.017-0.378,0.058-0.761,0.109-1.312c1.093-0.096,2.162-0.154,3.222-0.289    c3.786-0.482,5.01-1.601,5.669-5.323c0.229-1.293,0.332-2.624,0.335-3.938c0.028-10.728,0.032-21.455,0.005-32.183    c-0.003-1.233-0.196-2.472-0.377-3.697c-0.364-2.464-1.835-3.875-4.279-4.243c-1.38-0.208-2.771-0.345-4.16-0.485    C1262.548,252.597,1261.783,252.583,1260.881,252.533z"></path>
		<path fill="#FFFFFF" stroke="#FFFFFF" stroke-miterlimit="10" d="M1015.776,302.936c0,0.766,0,1.442,0,2.259    c-9.703,0-19.305,0-29.061,0c0-0.79,0-1.514,0-2.304c1.592-0.221,3.122-0.398,4.639-0.653c2.359-0.397,3.713-1.85,4.069-4.183    c0.234-1.531,0.472-3.082,0.479-4.624c0.043-10.805,0.042-21.611,0.009-32.416c-0.004-1.308-0.225-2.626-0.446-3.922    c-0.387-2.274-1.837-3.539-4.058-3.905c-1.453-0.239-2.924-0.371-4.39-0.517c-0.754-0.075-1.515-0.078-2.378-0.118    c0-0.884,0-1.56,0-2.538c7.234-0.582,14.419-1.54,21.93-1.675c0,3.944,0,7.633,0,11.713c0.763-0.513,1.201-0.764,1.591-1.076    c2.242-1.801,4.428-3.675,6.721-5.407c1.67-1.262,3.411-2.459,5.234-3.482c5.314-2.984,11.194-1.936,15.561,2.795    c-1.318,3.101-2.672,6.285-4.071,9.576c-1.939-0.939-3.708-1.725-5.412-2.635c-6.278-3.354-11.949-2.483-17.09,2.35    c-0.339,0.319-0.682,0.643-1.063,0.909c-1.121,0.782-1.465,1.813-1.455,3.187c0.059,8.24,0.029,16.48,0.029,24.72    c0,1.477-0.051,2.957,0.027,4.43c0.057,1.079,0.215,2.164,0.456,3.218c0.418,1.827,1.595,3.038,3.414,3.446    C1012.166,302.454,1013.862,302.634,1015.776,302.936z"></path>
		<path fill="#FFFFFF" stroke="#FFFFFF" stroke-miterlimit="10" d="M1424.789,306.637c-0.858,0-1.538,0-2.358,0    c0-6.269,0-12.443,0-18.743c0.842,0,1.581,0,2.443,0c0.264,0.895,0.493,1.784,0.787,2.652c2.402,7.079,6.941,11.856,14.504,13.271    c2.323,0.435,4.647,0.314,6.848-0.699c6.285-2.895,7.465-11.474,2.126-16.173c-1.555-1.369-3.402-2.456-5.24-3.44    c-2.529-1.355-5.216-2.411-7.76-3.74c-2.472-1.292-4.988-2.572-7.24-4.197c-6.338-4.572-7.725-12.91-3.411-19.456    c4.293-6.515,12.156-9.298,19.614-6.928c1.331,0.423,2.634,0.935,3.969,1.343c1.999,0.61,3.844,0.61,5.113-1.453    c0.694-1.128,1.764-0.633,3.049-0.635c0.075,5.613,0.089,11.142-0.022,16.774c-1.109,0-2.008,0-2.864,0    c-0.585-1.88-0.997-3.702-1.708-5.399c-2.646-6.31-8.853-9.548-15.302-8.092c-5.719,1.291-8.101,7.058-4.764,11.915    c0.978,1.423,2.423,2.654,3.902,3.574c2.497,1.553,5.212,2.751,7.798,4.166c2.993,1.638,6.1,3.127,8.885,5.072    c6.736,4.703,8.918,13.218,5.493,20.445c-3.588,7.572-11.862,11.652-19.704,9.61c-2.093-0.545-4.104-1.41-6.147-2.143    c-0.803-0.288-1.58-0.652-2.388-0.925c-2.757-0.932-4.135-0.279-5.293,2.471C1425.03,306.115,1424.932,306.32,1424.789,306.637z"></path>
		<path fill="#FFFFFF" stroke="#FFFFFF" stroke-miterlimit="10" d="M1672.831,267.814c-1.017,0-1.76,0-2.601,0    c-0.398-1.201-0.735-2.39-1.182-3.536c-2.223-5.703-5.885-10.067-11.851-12.023c-9.43-3.093-19.048,1.574-22.408,11.399    c-4.007,11.714-2.235,22.733,5.851,32.342c5.088,6.045,11.691,7.6,19.182,5.42c5.057-1.472,9.207-4.415,12.704-8.313    c0.414-0.462,0.822-0.929,1.238-1.389c0.043-0.048,0.127-0.058,0.386-0.167c0.376,1.717,0.43,3.212-0.791,4.691    c-6.286,7.606-14.417,11.029-24.179,10.827c-6.054-0.125-11.675-1.639-16.552-5.377c-5.84-4.476-9.19-10.406-10.186-17.681    c-1.14-8.323,0.272-16.094,5.096-23.091c7.057-10.235,18.02-14.516,30.115-11.759c1.965,0.448,3.891,1.066,5.832,1.616    c3.708,1.051,4.376,0.831,6.775-2.327c0.695,0,1.455,0,2.565,0C1672.839,254.853,1672.83,261.181,1672.831,267.814z"></path>
		<path fill="#FFFFFF" stroke="#FFFFFF" stroke-miterlimit="10" d="M705.155,252.554c0-0.9,0-1.579,0-2.24    c2.248-0.734,17.925-2.091,20.916-1.76c0.025,0.841,0.073,1.734,0.074,2.626c0.005,14.229-0.006,28.458,0.019,42.687    c0.002,1.468,0.098,2.953,0.339,4.399c0.355,2.131,1.696,3.474,3.817,3.898c1.585,0.317,3.199,0.486,4.949,0.742    c0,0.727,0,1.45,0,2.302c-10.033,0-19.95,0-29.986,0c-0.083-0.404-0.208-0.762-0.218-1.124c-0.01-0.374,0.092-0.752,0.167-1.281    c1.263-0.077,2.492-0.119,3.715-0.231c4.895-0.448,6.495-2.083,6.514-6.957c0.046-11.818,0.051-23.637-0.001-35.455    c-0.025-5.536-1.663-7.142-7.241-7.458C707.296,252.65,706.373,252.613,705.155,252.554z"></path>
		<path fill="#FFFFFF" stroke="#FFFFFF" stroke-miterlimit="10" d="M513.409,302.897c0,0.762,0,1.441,0,2.28    c-10.042,0-20.016,0-30.113,0c0-0.806,0-1.53,0-2.272c2.048-0.24,3.982-0.359,5.871-0.715c2.795-0.527,3.844-1.693,4.236-4.498    c0.16-1.149,0.21-2.322,0.212-3.484c0.015-10.877,0.019-21.755-0.003-32.632c-0.003-1.394-0.067-2.804-0.279-4.179    c-0.414-2.678-1.478-3.786-4.183-4.275c-1.891-0.342-3.822-0.464-5.86-0.698c0-0.774,0-1.503,0-2.412    c6.937-0.583,13.75-1.522,20.939-1.704c0,1.176,0,2.084,0,2.993c0,13.985-0.01,27.97,0.014,41.956    c0.003,1.547,0.126,3.104,0.328,4.639c0.305,2.329,1.64,3.829,3.973,4.287C510.056,302.478,511.596,302.636,513.409,302.897z"></path>
		<path fill="#FFFFFF" stroke="#FFFFFF" stroke-miterlimit="10" d="M1318.757,302.923c2.274-0.268,4.211-0.387,6.102-0.746    c2.675-0.507,3.74-1.67,4.143-4.326c0.174-1.147,0.231-2.321,0.233-3.482c0.017-10.955,0.018-21.91-0.001-32.865    c-0.002-1.317-0.068-2.646-0.255-3.948c-0.403-2.803-1.465-3.939-4.28-4.446c-1.888-0.34-3.816-0.461-5.818-0.691    c0-0.761,0-1.439,0-2.434c6.844-0.609,13.69-1.217,20.879-1.856c0.036,1.223,0.086,2.117,0.086,3.012    c0.005,14.063-0.005,28.126,0.017,42.189c0.002,1.47,0.127,2.947,0.301,4.408c0.303,2.548,1.766,4.08,4.298,4.518    c1.442,0.25,2.9,0.407,4.505,0.627c0,0.73,0,1.457,0,2.322c-9.961,0-19.877,0-30.031,0    C1318.879,304.481,1318.822,303.757,1318.757,302.923z"></path>
		<path fill="#FFFFFF" stroke="#FFFFFF" stroke-miterlimit="10" d="M1334.664,233.162c-3.759-0.034-6.828-3.091-6.837-6.811    c-0.01-3.797,3.191-6.83,7.114-6.739c3.658,0.085,6.634,3.156,6.575,6.784C1341.453,230.181,1338.399,233.197,1334.664,233.162z"></path>
		<path fill="#FFFFFF" stroke="#FFFFFF" stroke-miterlimit="10" d="M499.167,233.165c-3.788,0.019-6.867-2.943-6.954-6.689    c-0.088-3.798,3.057-6.891,6.98-6.865c3.672,0.025,6.681,3.016,6.7,6.66C505.914,230.037,502.881,233.146,499.167,233.165z"></path>
		<path fill="#FFFFFF" stroke="#FFFFFF" stroke-miterlimit="10" d="M727.677,226.348c-0.015,3.86-2.962,6.84-6.742,6.816    c-3.771-0.023-6.834-3.042-6.863-6.765c-0.029-3.826,3.123-6.863,7.045-6.788C724.829,219.683,727.691,222.622,727.677,226.348z"></path>
	</g>
</g>
</svg>