<?xml version="1.0" encoding="UTF-8"?>
<svg width="512px" height="512px" viewBox="0 0 512 512" version="1.1" xmlns="http://www.w3.org/2000/svg" xmlns:xlink="http://www.w3.org/1999/xlink">
    <!-- Generator: Sketch 54.1 (76490) - https://sketchapp.com -->
    <title>Group 8</title>
    <desc>Created with Sketch.</desc>
    <defs>
        <linearGradient x1="35.0981574%" y1="3.44129666%" x2="49.2154999%" y2="58.935429%" id="linearGradient-1">
            <stop stop-color="#FFFFFF" offset="0%"></stop>
            <stop stop-color="#ED0000" offset="100%"></stop>
        </linearGradient>
    </defs>
    <g id="Page-1" stroke="none" stroke-width="1" fill="none" fill-rule="evenodd">
        <g id="Group-8">
            <g id="Group-7">
                <g id="Group-6">
                    <circle id="Oval-Copy" fill="#BF0027" cx="256" cy="256" r="256"></circle>
                    <circle id="Oval" fill="#ED0000" cx="256" cy="256" r="243.441509"></circle>
                </g>
                <circle id="Oval-Copy-2" fill="url(#linearGradient-1)" opacity="0.498604911" cx="232.815094" cy="220.739623" r="200.45283"></circle>
            </g>
            <path d="M157.205139,400.791563 C154.862814,400.791563 153.257913,400.14889 152.390385,398.863524 C152.130127,398.481388 152,398.081888 152,397.665012 C152,396.397016 152.659311,395.763027 153.977953,395.763027 C154.321494,395.763027 154.788,395.931859 155.377484,396.269528 L155.578533,396.388337 C156.263879,396.805213 156.910178,397.013648 157.517447,397.013648 C158.298222,397.013648 158.688603,396.72705 158.688603,396.153846 C158.688603,395.811878 158.208251,395.416483 157.247533,394.96765 L156.472022,394.614077 C155.28008,394.061101 154.466081,393.619026 154.030004,393.287841 C152.936919,392.47146 152.390385,391.472711 152.390385,390.291563 C152.390385,388.901978 152.928244,387.781642 154.003978,386.930521 C155.01031,386.13151 156.22483,385.73201 157.647575,385.73201 C158.532453,385.73201 159.373942,385.870966 160.172068,386.148883 C161.126348,386.47891 161.811684,386.956573 162.228097,387.581886 C162.471005,387.946652 162.592457,388.311413 162.592457,388.676179 C162.592457,389.179903 162.427629,389.601115 162.097969,389.939826 C161.768308,390.278538 161.351901,390.447891 160.848736,390.447891 C160.52081,390.447891 160.041812,390.310715 159.411728,390.036359 L159.196104,389.939826 C158.458706,389.601115 157.881809,389.431762 157.465395,389.431762 C156.823425,389.431762 156.502445,389.674936 156.502445,390.16129 C156.502445,390.543426 156.771374,390.838709 157.309241,391.047146 L158.130679,391.366316 C158.888678,391.665944 159.456359,391.906947 159.833734,392.08933 C160.805364,392.575685 161.542752,393.088087 162.045917,393.626551 C162.618486,394.251864 162.904765,395.042179 162.904765,395.997519 C162.904765,397.456583 162.30618,398.637713 161.108992,399.540943 C159.998557,400.374694 158.697286,400.791563 157.205139,400.791563 Z M179.697486,397.508685 C179.697486,399.558323 179.003474,400.583127 177.615431,400.583127 C176.210036,400.583127 175.507349,399.558323 175.507349,397.508685 L175.507349,389.040943 C175.507349,387.008675 176.210036,385.992556 177.615431,385.992556 C179.003474,385.992556 179.697486,387.008675 179.697486,389.040943 L179.697486,397.508685 Z M175.169015,382.423077 C175.169015,381.745654 175.407582,381.172459 175.884722,380.703474 C176.361862,380.234489 176.938759,380 177.615431,380 C178.292102,380 178.860324,380.234489 179.320113,380.703474 C179.779903,381.172459 180.009794,381.745654 180.009794,382.423077 C180.009794,383.1005 179.779903,383.673695 179.320113,384.14268 C178.860324,384.611665 178.292102,384.846154 177.615431,384.846154 C176.921409,384.846154 176.340174,384.616007 175.871709,384.155707 C175.403244,383.695407 175.169015,383.117869 175.169015,382.423077 Z M193.236995,397.508685 L193.236995,389.040943 C193.236995,387.008675 193.948357,385.992556 195.371102,385.992556 C196.203928,385.992556 196.871914,386.435479 197.37508,387.32134 C198.173205,386.435479 199.405076,385.992556 201.070729,385.992556 C204.488787,385.992556 206.19779,387.816359 206.19779,391.46402 L206.19779,397.508685 C206.19779,399.558323 205.495103,400.583127 204.089709,400.583127 C202.684314,400.583127 201.981628,399.558323 201.981628,397.508685 L201.981628,392.740695 C201.981628,391.698506 201.860176,390.9603 201.617268,390.526055 C201.287608,389.900741 200.654322,389.588089 199.717393,389.588089 C198.225245,389.588089 197.479183,390.621578 197.479183,392.688586 L197.479183,397.508685 C197.479183,399.558323 196.776496,400.583127 195.371102,400.583127 C193.948357,400.583127 193.236995,399.558323 193.236995,397.508685 Z M218.774348,393.287841 C218.774348,391.081875 219.433659,389.279784 220.752301,387.881514 C222.070943,386.483244 223.823322,385.784119 226.009491,385.784119 C227.154627,385.784119 228.152269,385.957815 229.002446,386.305211 C230.147582,386.791566 230.720141,387.521087 230.720141,388.493797 C230.720141,388.997521 230.555314,389.423075 230.225653,389.770471 C229.895993,390.117868 229.479586,390.291563 228.97642,390.291563 C228.687967,390.291563 228.323136,390.208447 227.881918,390.042213 L227.688148,389.965881 C227.158957,389.748758 226.59941,389.640199 226.009491,389.640199 C225.055211,389.640199 224.317824,390.004959 223.797307,390.734491 C223.328842,391.394544 223.094613,392.219598 223.094613,393.209677 C223.094613,394.251866 223.337518,395.085605 223.823333,395.710918 C224.37855,396.405711 225.159313,396.753102 226.165645,396.753102 C226.67129,396.753102 227.14506,396.676534 227.586966,396.523396 L227.805264,396.440447 C228.30843,396.232009 228.724837,396.127792 229.054497,396.127792 C229.540312,396.127792 229.935032,396.305829 230.238666,396.661911 C230.542301,397.017992 230.694116,397.447888 230.694116,397.951613 C230.694116,398.802734 230.104206,399.52357 228.924369,400.114144 C228.074192,400.531019 227.015824,400.739454 225.749234,400.739454 C223.632467,400.739454 221.932139,400.018618 220.648198,398.576923 C219.398959,397.187338 218.774348,395.424328 218.774348,393.287841 Z M246.575937,394.460298 C246.66269,395.276679 247.001021,395.901983 247.590939,396.336228 C248.180858,396.770474 248.900895,396.987593 249.751072,396.987593 C250.462444,396.987593 251.321283,396.757446 252.327615,396.297146 L252.73553,396.113966 C253.504617,395.775787 253.993259,395.6067 254.201465,395.6067 C255.3119,395.6067 255.86711,396.153841 255.86711,397.248139 C255.86711,397.665014 255.710957,398.081884 255.398647,398.498759 C254.843429,399.263031 253.958565,399.844911 252.744026,400.244417 C251.720344,400.591813 250.653301,400.765509 249.542866,400.765509 C247.4608,400.765509 245.725771,400.049015 244.337728,398.616005 C242.949684,397.182995 242.255672,395.415643 242.255672,393.313896 C242.255672,391.229518 242.919321,389.449139 244.246638,387.972705 C245.573955,386.496271 247.269945,385.758065 249.334661,385.758065 C250.358343,385.758065 251.286583,385.94913 252.11941,386.331266 C253.316598,386.8871 254.296889,387.712153 255.060313,388.806452 C255.823737,389.90075 256.205444,391.090564 256.205444,392.375931 C256.205444,393.070723 255.953864,393.600494 255.450698,393.965261 C255.016935,394.295287 254.444375,394.460298 253.733003,394.460298 L246.575937,394.460298 Z M246.523886,391.698511 L252.067358,391.698511 C252.015307,390.968979 251.733365,390.369729 251.221523,389.900744 C250.709682,389.431759 250.089409,389.19727 249.360686,389.19727 C248.614613,389.19727 247.990002,389.427417 247.486836,389.887717 C246.983671,390.348017 246.66269,390.951609 246.523886,391.698511 Z M283.148468,396.388337 L285.386678,396.388337 C286.670618,396.388337 287.312579,397.057065 287.312579,398.394541 C287.312579,399.732017 286.670618,400.400744 285.386678,400.400744 L276.381788,400.400744 C275.097848,400.400744 274.455887,399.732017 274.455887,398.394541 C274.455887,397.057065 275.097848,396.388337 276.381788,396.388337 L278.776152,396.388337 L278.776152,385.210918 C277.700418,385.210918 277.023757,385.167494 276.746148,385.080645 C276.052126,384.889577 275.70512,384.394545 275.70512,383.595533 C275.70512,383.178658 275.895973,382.805213 276.277685,382.475186 C277.318718,381.589326 279.010371,381.146402 281.352695,381.146402 C281.786459,381.146402 282.098764,381.172456 282.28962,381.224566 C282.690018,381.336801 282.949964,381.745037 283.069467,382.449285 L283.096417,382.631514 C283.131118,382.839951 283.148468,383.447886 283.148468,384.455335 L283.148468,396.388337 Z M300.216868,390.004963 C299.054382,388.980144 298.473147,387.712166 298.473147,386.200993 C298.473147,384.60297 299.097757,383.291568 300.346997,382.266749 C301.526834,381.31141 302.932208,380.833747 304.563159,380.833747 C306.211461,380.833747 307.616835,381.302725 308.779321,382.240695 C310.028561,383.265514 310.653171,384.5856 310.653171,386.200993 C310.653171,387.729536 310.071937,388.997514 308.90945,390.004963 C310.609804,391.099261 311.459968,392.67989 311.459968,394.746898 C311.459968,396.605468 310.765956,398.125304 309.377912,399.306452 C308.059271,400.41812 306.454369,400.973945 304.563159,400.973945 C302.671949,400.973945 301.067048,400.41812 299.748406,399.306452 C298.360362,398.125304 297.666351,396.605468 297.666351,394.746898 C297.666351,392.662521 298.516515,391.081891 300.216868,390.004963 Z M301.986616,394.356079 C301.986616,395.068242 302.238195,395.70223 302.741361,396.258065 C303.244527,396.813899 303.851787,397.091811 304.563159,397.091811 C305.309233,397.091811 305.925168,396.822583 306.410983,396.284119 C306.896799,395.745655 307.139703,395.102981 307.139703,394.356079 C307.139703,393.591808 306.896799,392.940449 306.410983,392.401985 C305.925168,391.863521 305.309233,391.594293 304.563159,391.594293 C303.834436,391.594293 303.222838,391.867863 302.728348,392.415012 C302.233857,392.962162 301.986616,393.609177 301.986616,394.356079 Z M302.611232,386.591811 C302.611232,387.112906 302.806423,387.577541 303.19681,387.985732 C303.587198,388.393923 304.042643,388.598015 304.563159,388.598015 C305.118377,388.598015 305.586835,388.402607 305.968547,388.011787 C306.350259,387.620966 306.541112,387.147645 306.541112,386.591811 C306.541112,386.035977 306.350259,385.558315 305.968547,385.158809 C305.586835,384.759303 305.118377,384.559553 304.563159,384.559553 C304.007942,384.559553 303.543821,384.759303 303.170785,385.158809 C302.797748,385.558315 302.611232,386.035977 302.611232,386.591811 Z M330.115935,385.367246 L324.234129,385.367246 C322.499074,385.367246 321.631559,384.698518 321.631559,383.361042 C321.631559,382.040936 322.499074,381.380893 324.234129,381.380893 L331.989785,381.380893 C334.089202,381.380893 335.138894,382.171208 335.138894,383.751861 C335.138894,384.186106 334.991417,384.724563 334.696457,385.367246 L328.424265,398.941687 C327.799645,400.296533 327.044908,400.973945 326.16003,400.973945 C325.552761,400.973945 325.027915,400.769853 324.585476,400.361663 C324.143037,399.953472 323.92182,399.445412 323.92182,398.837469 C323.92182,398.368484 324.112674,397.74318 324.494386,396.961538 L330.115935,385.367246 Z M354.601658,387.451613 C354.601658,386.739451 354.367429,386.122831 353.898964,385.601737 C353.430499,385.080643 352.849265,384.820099 352.155243,384.820099 C351.461221,384.820099 350.879986,385.080643 350.411521,385.601737 C349.943057,386.122831 349.708828,386.739451 349.708828,387.451613 C349.708828,388.163775 349.943057,388.780394 350.411521,389.301489 C350.879986,389.822583 351.461221,390.083127 352.155243,390.083127 C352.849265,390.083127 353.430499,389.822583 353.898964,389.301489 C354.367429,388.780394 354.601658,388.163775 354.601658,387.451613 Z M352.181268,393.496278 L350.987936,393.614217 C350.914941,393.620384 350.861812,393.624238 350.828548,393.62578 L350.801907,393.626551 C349.188306,393.626551 347.852334,393.018617 346.79395,391.80273 C345.752917,390.638952 345.232409,389.240703 345.232409,387.60794 C345.232409,385.645151 345.922082,384.021098 347.301451,382.735732 C348.68082,381.450366 350.35946,380.807692 352.337423,380.807692 C354.315385,380.807692 355.920287,381.450366 357.152176,382.735732 C358.384065,384.021098 359,385.662521 359,387.66005 C359,390.40448 357.51655,393.635217 354.549607,397.352357 C352.606345,399.784131 351.192297,401 350.307419,401 C349.769552,401 349.288081,400.795908 348.862993,400.387717 C348.437904,399.979526 348.225363,399.506206 348.225363,398.967742 C348.225363,398.464017 348.64177,397.743181 349.474596,396.805211 C350.116567,396.110418 351.018782,395.007452 352.181268,393.496278 Z" id="Combined-Shape" fill="#FFFFFF" fill-rule="nonzero"></path>
            <path d="M38,271.155979 L38,214.145581 C38,193.462635 45.1397462,183.121317 59.4194529,183.121317 C73.6991595,183.121317 80.8389058,193.462635 80.8389058,214.145581 L80.8389058,262.405546 C80.8389058,271.951521 82.072936,279.110895 84.5410334,283.883882 C87.8905943,290.424643 93.9726003,293.694974 102.787234,293.694974 C111.601868,293.694974 117.683874,290.424643 121.033435,283.883882 C123.501532,279.110895 124.735562,271.951521 124.735562,262.405546 L124.735562,214.145581 C124.735562,193.462635 131.875309,183.121317 146.155015,183.121317 C160.258429,183.121317 167.31003,193.462635 167.31003,214.145581 L167.31003,271.155979 C167.31003,291.662148 161.712822,307.262512 150.518237,317.957539 C139.323652,328.652566 123.413477,334 102.787234,334 C82.1609911,334 66.2067433,328.652566 54.9240122,317.957539 C43.641281,307.262512 38,291.662148 38,271.155979 Z M231.832827,256.837088 C231.832827,266.206286 234.036452,274.161146 238.443769,280.701906 C243.556257,288.126554 250.607858,291.838821 259.598784,291.838821 C268.589711,291.838821 275.553167,288.126554 280.489362,280.701906 C284.720386,274.161146 286.835866,266.206286 286.835866,256.837088 C286.835866,247.467891 284.720386,239.601418 280.489362,233.237435 C275.553167,225.989565 268.589711,222.365685 259.598784,222.365685 C250.78415,222.365685 243.820694,225.989565 238.708207,233.237435 C234.124597,239.778196 231.832827,247.644668 231.832827,256.837088 Z M288.422492,316.764298 C279.607859,327.547714 267.620137,332.939341 252.458967,332.939341 C233.243065,332.939341 217.376962,324.984482 204.860182,309.074523 C193.401159,294.402006 187.671733,277.166477 187.671733,257.367418 C187.671733,237.635189 193.520293,220.404349 205.217588,205.674393 L205.653495,205.129983 C218.346568,189.220024 234.477106,181.265165 254.045593,181.265165 C268.325299,181.265165 279.784151,186.39163 288.422492,196.644714 C293.358687,187.629071 300.145853,183.121317 308.784195,183.121317 C322.887609,183.121317 329.93921,193.462635 329.93921,214.145581 L329.93921,300.32409 C329.93921,321.183813 322.887609,331.613518 308.784195,331.613518 C299.440683,331.613518 292.653517,326.663828 288.422492,316.764298 Z M351.6231,257.367418 C351.6231,234.916699 358.322121,216.576328 371.720365,202.345754 C385.118608,188.11518 402.923901,181 425.136778,181 C436.772095,181 446.908771,182.767747 455.547112,186.303293 C467.182429,191.253058 473,198.677593 473,208.577123 C473,213.703665 471.325245,218.034644 467.975684,221.570191 C464.626123,225.105737 460.395162,226.873484 455.282675,226.873484 C451.933114,226.873484 447.569936,225.768642 442.193009,223.558925 C436.816083,221.349209 431.130729,220.244367 425.136778,220.244367 C415.440681,220.244367 407.948355,223.956635 402.659574,231.381282 C397.899672,238.09882 395.519757,246.495617 395.519757,256.571924 C395.519757,267.178563 397.987817,275.663746 402.924012,282.02773 C408.565378,289.098822 416.498429,292.634315 426.723404,292.634315 C432.495357,292.634315 437.858543,291.650779 442.813111,289.683678 L443.382979,289.45234 C448.495466,287.331012 452.726427,286.270364 456.075988,286.270364 C461.012183,286.270364 465.022781,288.082304 468.107903,291.706239 C471.193025,295.330174 472.735562,299.705347 472.735562,304.831889 C472.735562,313.493977 466.741701,320.830126 454.753799,326.840555 C446.115458,331.08321 435.361766,333.204506 422.492401,333.204506 C401.206424,333.204506 384.064937,326.018839 371.067437,311.647291 L370.662614,311.195841 C357.969541,297.053655 351.6231,279.111027 351.6231,257.367418 Z" id="uac-copy" fill="#FFFFFF" fill-rule="nonzero"></path>
        </g>
    </g>
</svg>