<?xml version="1.0" encoding="UTF-8"?> <svg xmlns="http://www.w3.org/2000/svg" id="ubn-logo-white" width="119.695" height="46" viewBox="0 0 119.695 46"><path id="Path_124" data-name="Path 124" d="M240.316,380.176c-.407,1.1-.733,2.025-.783,2.134-.127.276-1.063.229-1.381.357a5.169,5.169,0,0,0-.991,2.609,2.967,2.967,0,0,0,1.922-.277,12.228,12.228,0,0,0,1.794-1.308,45.824,45.824,0,0,0,2.791-5.13,24.823,24.823,0,0,1-3.353,1.615" transform="translate(-225.52 -348.226)" fill="#fff"></path><path id="Path_125" data-name="Path 125" d="M163.338,287.308a8.191,8.191,0,0,1,1.638-2.811,8.474,8.474,0,0,1-2.771,1.125c-2.323.446-4.908-.547-8.74,1.422-3.736,1.922-4.3,6.22-3.917,6.46.347.216.08-1.915,4.917-3.005a33.53,33.53,0,0,0,8.872-3.19" transform="translate(-149.445 -266.616)" fill="#fff"></path><path id="Path_126" data-name="Path 126" d="M226.311,151.473a8.593,8.593,0,0,0,.682-1.99,9.787,9.787,0,0,0-2.388.37c-.305.05-12.326-2.6-19.544,9.742,3.46-.658,4.7-.44,3.478-.116-.586.155-7.706,2-10.054,2.619-5.426,1.433-10.594,4.187-10.594,10.124,0,2.775.757,3.886-.833,5.167-1.036.834-4.308,1.586-4.463,2.025s-2.673,7.136-2.829,7.472-1.22.208-1.608.364-1.472,2.988-1.211,3.194a3.606,3.606,0,0,0,2.352-.341,11.733,11.733,0,0,0,2.093-1.6c.568-.542,2.007-4.394,3.357-6.212a4.73,4.73,0,0,1,2.975-1.627c5.947-1.631,9.913-6.012,10.441-10.227.154-1.233.43-2.136.506-.647a12.566,12.566,0,0,1-.137,2.666c1.872-.577,5.8-.48,8.893-1.087a15.867,15.867,0,0,0,5.076-1.664c3.33-.357,3.23-.351,2.448.886-.514.81-1.49,2.278-1.72,2.738-.323.646-.059.629-.088.89-.031.286-.564.849-.994.576a.435.435,0,0,0-.337-.079,1.926,1.926,0,0,0-1.082.505c-.356.753.225,2.854.583,2.685.493-.23,1.806-.972,2.6-1.479.329-.21,3.988-6.992,3.937-7.56-.059-.623-.578-1.8-1.555-1.93-1.385-.178-5.56-.652-5.56-.734,0-.224,2.781-.2,5.622.073,2.734-3.284,3.339-8.483,4.7-8.628.549-.062,1.93,1.428,3.363,3.062a5.817,5.817,0,0,0,.28,1.091,3.135,3.135,0,0,0,1.612.509c.312-.048,1.537-1.072,1.585-1.456.034-.249-1.583-9.385-1.583-9.385" transform="translate(-173.271 -149.445)" fill="#fff"></path><path id="Path_127" data-name="Path 127" d="M486.251,261.746c-.489-.063-2.767-.351-4.385-.548a18.68,18.68,0,0,1-1.264,2.287,2.558,2.558,0,0,1,.977.8l.291-.025c2.942-.242,3.57-.34,3.317.163h0c-.068.143-.189.328-.339.566-.459.723-1.329,2.032-1.534,2.444-.289.575-.053.561-.078.793-.029.252-.5.756-.887.513a.4.4,0,0,0-.3-.07,1.731,1.731,0,0,0-.966.45c-.318.672.2,2.549.522,2.4.439-.206,1.611-.869,2.318-1.32a50.935,50.935,0,0,0,3.3-6.1h0a2.113,2.113,0,0,0,.222-.665,2.061,2.061,0,0,0-1.2-1.686" transform="translate(-436.756 -246.402)" fill="#fff"></path><path id="Path_128" data-name="Path 128" d="M444.646,423.755a1.068,1.068,0,0,1,1.072-1.089,1.082,1.082,0,0,1,1.088,1.089v.464a3.416,3.416,0,0,1,2.945-1.643c2.126,0,3.357,1.428,3.357,3.607v5.033a1.053,1.053,0,0,1-1.07,1.072,1.068,1.068,0,0,1-1.088-1.072v-4.374c0-1.465-.733-2.3-2.018-2.3a2.1,2.1,0,0,0-2.126,2.339v4.338a1.08,1.08,0,0,1-2.161,0Z" transform="translate(-405.561 -386.414)" fill="#fff"></path><path id="Path_129" data-name="Path 129" d="M367.485,431.786a1.068,1.068,0,0,1-1.071,1.09,1.083,1.083,0,0,1-1.088-1.09v-.465a3.412,3.412,0,0,1-2.947,1.643c-2.124,0-3.356-1.427-3.356-3.6v-5.036a1.052,1.052,0,0,1,1.071-1.071,1.066,1.066,0,0,1,1.089,1.071V428.7c0,1.462.733,2.3,2.018,2.3a2.1,2.1,0,0,0,2.125-2.341v-4.337a1.08,1.08,0,0,1,2.16,0Z" transform="translate(-331.274 -386.999)" fill="#fff"></path><path id="Path_130" data-name="Path 130" d="M530.544,424.341a1.068,1.068,0,0,1,1.073-1.089,1.083,1.083,0,0,1,1.089,1.089V431.8a1.081,1.081,0,0,1-2.161,0Z" transform="translate(-480.086 -386.999)" fill="#fff"></path><path id="Path_131" data-name="Path 131" d="M565.6,427.539V427.5a5.028,5.028,0,0,1,10.052-.036v.036a4.927,4.927,0,0,1-5.052,4.909,4.876,4.876,0,0,1-5-4.875m7.893,0V427.5a2.914,2.914,0,0,0-2.892-3.036,2.83,2.83,0,0,0-2.84,3v.036a2.906,2.906,0,0,0,2.875,3.018A2.828,2.828,0,0,0,573.492,427.539Z" transform="translate(-510.5 -386.414)" fill="#fff"></path><path id="Path_132" data-name="Path 132" d="M659.454,423.755a1.068,1.068,0,0,1,1.071-1.089,1.082,1.082,0,0,1,1.089,1.089v.464a3.415,3.415,0,0,1,2.945-1.643c2.127,0,3.358,1.428,3.358,3.607v5.033a1.054,1.054,0,0,1-1.072,1.072,1.068,1.068,0,0,1-1.089-1.072v-4.374c0-1.465-.731-2.3-2.016-2.3a2.1,2.1,0,0,0-2.126,2.339v4.338a1.08,1.08,0,0,1-2.161,0Z" transform="translate(-591.928 -386.414)" fill="#fff"></path><path id="Path_133" data-name="Path 133" d="M748.492,405.73a.418.418,0,0,1,.429-.446.432.432,0,0,1,.446.446V410a4.4,4.4,0,0,1,3.749-2.25,4.522,4.522,0,0,1,4.426,4.732v.037a4.554,4.554,0,0,1-4.426,4.767,4.378,4.378,0,0,1-3.749-2.178V416.7a.427.427,0,0,1-.428.446.442.442,0,0,1-.447-.446Zm8.105,6.824v-.034a3.664,3.664,0,0,0-3.569-3.928,3.813,3.813,0,0,0-3.715,3.91v.034a3.8,3.8,0,0,0,3.715,3.911A3.56,3.56,0,0,0,756.6,412.554Z" transform="translate(-669.177 -371.41)" fill="#fff"></path><path id="Path_134" data-name="Path 134" d="M831.014,431.068v-.035c0-1.893,1.625-2.965,3.982-2.965a11,11,0,0,1,3.018.393v-.393c0-1.839-1.126-2.785-3-2.785a5.892,5.892,0,0,0-2.591.606.44.44,0,0,1-.195.053.426.426,0,0,1-.412-.411.441.441,0,0,1,.25-.392,7.036,7.036,0,0,1,3-.679,3.937,3.937,0,0,1,2.874,1,3.458,3.458,0,0,1,.928,2.573v5.3a.429.429,0,1,1-.857,0v-1.144a4.142,4.142,0,0,1-3.481,1.733c-1.7,0-3.519-.964-3.519-2.857m7.018-.77v-1.034a12.13,12.13,0,0,0-3.089-.41c-1.929,0-3,.855-3,2.124v.035c0,1.322,1.249,2.09,2.641,2.09C836.443,433.1,838.032,431.96,838.032,430.3Z" transform="translate(-740.773 -388.048)" fill="#fff"></path><path id="Path_135" data-name="Path 135" d="M913.51,424.51a.438.438,0,1,1,.875,0v1.322a3.565,3.565,0,0,1,3.285-1.911,3.469,3.469,0,0,1,3.644,3.749v5.2a.418.418,0,0,1-.43.445.43.43,0,0,1-.446-.445v-5.035a2.781,2.781,0,0,0-2.893-3.106,3.121,3.121,0,0,0-3.16,3.247v4.894a.416.416,0,0,1-.428.445.432.432,0,0,1-.447-.445Z" transform="translate(-812.346 -387.58)" fill="#fff"></path><path id="Path_136" data-name="Path 136" d="M997.646,405.73a.427.427,0,0,1,.429-.446.442.442,0,0,1,.447.446V413.8l5.588-5.783a.388.388,0,0,1,.3-.125.4.4,0,0,1,.411.412.384.384,0,0,1-.145.3L1001.343,412l3.568,4.408a.45.45,0,0,1,.125.322.4.4,0,0,1-.427.409.44.44,0,0,1-.375-.2l-3.5-4.321-2.213,2.232V416.7a.418.418,0,0,1-.429.446.432.432,0,0,1-.446-.446Z" transform="translate(-885.342 -371.41)" fill="#fff"></path></svg> 